SplineFontDB: 3.0
FontName: Muli-ExtraLightItalic
FullName: Muli Extra-Light Italic
FamilyName: Muli
Weight: ExtraLight
Copyright: Digitized data Copyright (c) 2011-2014, vernon adams.
Version: 2
ItalicAngle: -7
UnderlinePosition: 0
UnderlineWidth: 0
Ascent: 1638
Descent: 410
sfntRevision: 0x00000000
UFOAscent: 1560
UFODescent: -556
LayerCount: 2
Layer: 0 0 "Back"  1
Layer: 1 0 "Fore"  0
FSType: 0
OS2Version: 0
OS2_WeightWidthSlopeOnly: 0
OS2_UseTypoMetrics: 1
CreationTime: 1391726084
ModificationTime: 1391733863
PfmFamily: 17
TTFWeight: 200
TTFWidth: 5
LineGap: 0
VLineGap: 0
OS2TypoAscent: 2364
OS2TypoAOffset: 0
OS2TypoDescent: -582
OS2TypoDOffset: 0
OS2TypoLinegap: 0
OS2WinAscent: 2364
OS2WinAOffset: 0
OS2WinDescent: 582
OS2WinDOffset: 0
HheadAscent: 2364
HheadAOffset: 0
HheadDescent: -582
HheadDOffset: 0
OS2Vendor: 'NeWT'
Lookup: 258 0 0 "kernHorizontalKerninginLatinloo"  {"kernHorizontalKerninginLatinloo subtable"  } ['kern' ('latn' <'dflt' > ) ]
MarkAttachClasses: 1
DEI: 91125
LangName: 1033 "" "" "" "" "" "Version 2.0" "" "Muli is a trademark of Vernon Adams and may be registered in certain jurisdictions." "newtypography" "Vernon Adams" "" "newtypography.co.uk" "newtypography.co.uk" "Copyright (c) 2014, vernon adams.+AAoACgAA-This Font Software is licensed under the SIL Open Font License, Version 1.1.+AAoA-This license is available with a FAQ at:+AAoA-http://scripts.sil.org/OFL+AAoA" "http://scripts.sil.org/OFL" "" "Muli" "Bold" 
PickledData: "(dp1
S'com.typemytype.robofont.foreground.layerStrokeColor'
p2
(F0.5
F0
F0.5
F0.69999999999999996
tp3
sS'com.schriftgestaltung.fontMasterID'
p4
S'CAA31E91-2985-420A-82BA-6B4D8404D924'
p5
sS'GSDimensionPlugin.Dimensions'
p6
(dp7
S'CAA31E91-2985-420A-82BA-6B4D8404D924'
p8
(dp9
ssS'com.superpolator.editor.generateInfo'
p10
S'Generated with LTR Superpolator version 120823_1018_beta_'
p11
sS'com.typemytype.robofont.b.layerStrokeColor'
p12
(F1
F0.75
F0
F0.69999999999999996
tp13
sS'com.schriftgestaltung.useNiceNames'
p14
I01

StartChar: A
Encoding: 65 65 0
Width: 1329
VWidth: 0
Flags: HW
PickledData: "(dp1
S'org.robofab.postScriptHintData'
p2
(dp3
s."
LayerCount: 2
Fore
SplineSet
328 473 m 1
 947 473 l 1
 881 772 813 1069 745 1366 c 1
 606 1068 467 770 328 473 c 1
-21 0 m 1
 687 1456 l 1
 821 1456 l 1
 1172 0 l 1
 1060 0 l 1
 966 399 l 1
 292 399 l 1
 100 0 l 1
 -21 0 l 1
EndSplineSet
EndChar

StartChar: AE
Encoding: 198 198 1
Width: 1860
VWidth: 0
Flags: HW
PickledData: "(dp1
S'org.robofab.postScriptHintData'
p2
(dp3
sS'com.typemytype.robofont.layerData'
p4
(dp5
S'b'
(dp6
S'name'
p7
S'AE'
p8
sS'lib'
p9
(dp10
sS'unicodes'
p11
(tsS'width'
p12
F2073.5500000000002
sS'contours'
p13
(tsS'components'
p14
(tsS'anchors'
p15
(tsss."
LayerCount: 2
Fore
SplineSet
398 536 m 1
 1003 536 l 1
 1040 1369 l 1
 974 1369 l 1
 398 536 l 1
-54 0 m 1
 958 1456 l 1
 1866 1456 l 1
 1856 1369 l 1
 1123 1369 l 1
 1100 796 l 1
 1715 796 l 1
 1706 719 l 1
 1089 719 l 1
 1068 83 l 1
 1722 83 l 1
 1712 0 l 1
 991 0 l 1
 1004 459 l 1
 354 459 l 1
 35 0 l 1
 -54 0 l 1
EndSplineSet
EndChar

StartChar: B
Encoding: 66 66 18
Width: 1352
VWidth: 0
Flags: HW
PickledData: "(dp1
S'org.robofab.postScriptHintData'
p2
(dp3
sS'com.typemytype.robofont.layerData'
p4
(dp5
S'b'
(dp6
S'name'
p7
S'B'
sS'lib'
p8
(dp9
sS'unicodes'
p10
(tsS'width'
p11
F1346.45
sS'contours'
p12
(tsS'components'
p13
(tsS'anchors'
p14
(tsss."
LayerCount: 2
Fore
SplineSet
342 794 m 1
 691 794 l 2
 956 794 1063 899 1088 1099 c 0
 1090 1112 1090 1125 1090 1137 c 0
 1090 1289 970 1370 716 1370 c 2
 413 1370 l 1
 342 794 l 1
645 86 m 2
 921 86 1075 204 1075 446 c 0
 1075 618 966 708 681 708 c 2
 330 708 l 1
 253 86 l 1
 645 86 l 2
135 0 m 1
 313 1456 l 1
 726 1456 l 2
 1044 1456 1199 1351 1199 1151 c 0
 1199 1134 1198 1117 1196 1099 c 0
 1169 886 1054 776 871 757 c 1
 1066 741 1185 635 1185 447 c 0
 1185 427 1184 407 1181 385 c 0
 1150 133 961 0 635 0 c 2
 135 0 l 1
EndSplineSet
EndChar

StartChar: C
Encoding: 67 67 20
Width: 1389
VWidth: 0
Flags: HW
PickledData: "(dp1
S'org.robofab.postScriptHintData'
p2
(dp3
sS'com.typemytype.robofont.layerData'
p4
(dp5
S'b'
(dp6
S'name'
p7
S'C'
sS'lib'
p8
(dp9
sS'unicodes'
p10
(tsS'width'
p11
F1394.1500000000001
sS'contours'
p12
((dp13
S'points'
p14
((dp15
S'segmentType'
p16
S'curve'
p17
sS'x'
F785
sS'smooth'
p18
I01
sS'y'
F-23
s(dp19
S'y'
F-23
sS'x'
F346
sg18
I00
s(dp20
S'y'
F309
sS'x'
F108
sg18
I00
s(dp21
g16
S'curve'
p22
sS'x'
F108
sg18
I01
sS'y'
F713
s(dp23
S'y'
F1125
sS'x'
F108
sg18
I00
s(dp24
S'y'
F1483
sS'x'
F371
sg18
I00
s(dp25
g16
S'curve'
p26
sS'x'
F814
sg18
I01
sS'y'
F1483
s(dp27
S'y'
F1483
sS'x'
F995
sg18
I00
s(dp28
S'y'
F1437
sS'x'
F1144
sg18
I00
s(dp29
g16
S'curve'
p30
sS'x'
F1265
sg18
I00
sS'y'
F1329
s(dp31
g16
S'line'
p32
sS'x'
F1200
sg18
I00
sS'y'
F1219
s(dp33
S'y'
F1295
sS'x'
F1099
sg18
I00
s(dp34
S'y'
F1334
sS'x'
F969
sg18
I00
s(dp35
g16
S'curve'
p36
sS'x'
F833
sg18
I01
sS'y'
F1334
s(dp37
S'y'
F1334
sS'x'
F464
sg18
I00
s(dp38
S'y'
F1022
sS'x'
F291
sg18
I00
s(dp39
g16
S'curve'
p40
sS'x'
F291
sg18
I01
sS'y'
F712
s(dp41
S'y'
F398
sS'x'
F291
sg18
I00
s(dp42
S'y'
F125
sS'x'
F453
sg18
I00
s(dp43
g16
S'curve'
p44
sS'x'
F811
sg18
I01
sS'y'
F125
s(dp45
S'y'
F125
sS'x'
F974
sg18
I00
s(dp46
S'y'
F172
sS'x'
F1134
sg18
I00
s(dp47
g16
S'curve'
p48
sS'x'
F1243
sg18
I00
sS'y'
F268
s(dp49
g16
S'line'
p50
sS'x'
F1301
sg18
I00
sS'y'
F127
s(dp51
S'y'
F28
sS'x'
F1178
sg18
I00
s(dp52
S'y'
F-23
sS'x'
F996
sg18
I00
stp53
stp54
sS'components'
p55
(tsS'anchors'
p56
(tsss."
LayerCount: 2
Fore
SplineSet
718 -22 m 0
 332 -22 99 210 99 580 c 0
 99 619 102 659 107 701 c 0
 165 1176 481 1481 916 1481 c 0
 1083 1481 1222 1433 1318 1342 c 1
 1266 1274 l 1
 1175 1353 1050 1395 906 1395 c 0
 538 1395 268 1123 217 701 c 0
 212 663 210 626 210 591 c 0
 210 268 404 65 728 65 c 0
 884 65 1038 108 1172 190 c 1
 1198 115 l 1
 1048 25 883 -22 718 -22 c 0
EndSplineSet
EndChar

StartChar: D
Encoding: 68 68 27
Width: 1523
VWidth: 0
Flags: HW
PickledData: "(dp1
S'org.robofab.postScriptHintData'
p2
(dp3
sS'com.typemytype.robofont.layerData'
p4
(dp5
S'b'
(dp6
S'name'
p7
S'D'
sS'lib'
p8
(dp9
sS'unicodes'
p10
(tsS'width'
p11
F1526.5999999999999
sS'contours'
p12
(tsS'components'
p13
(tsS'anchors'
p14
(tsss."
LayerCount: 2
Fore
SplineSet
135 0 m 1
 313 1456 l 1
 687 1456 l 2
 1152 1456 1394 1248 1394 851 c 0
 1394 807 1391 761 1385 712 c 0
 1328 246 1033 0 531 0 c 2
 135 0 l 1
253 86 m 1
 541 86 l 2
 971 86 1225 302 1275 712 c 0
 1280 756 1283 798 1283 838 c 0
 1283 1187 1076 1370 677 1370 c 2
 411 1370 l 1
 253 86 l 1
EndSplineSet
EndChar

StartChar: DEL
Encoding: 127 127 28
Width: 1521
VWidth: 0
Flags: HW
PickledData: "(dp1
S'org.robofab.postScriptHintData'
p2
(dp3
s."
LayerCount: 2
Fore
SplineSet
169 0 m 1
 347 1456 l 1
 1331 1456 l 1
 1153 0 l 1
 169 0 l 1
259 68 m 1
 1080 68 l 1
 1242 1390 l 1
 421 1390 l 1
 259 68 l 1
EndSplineSet
EndChar

StartChar: Delta
Encoding: 916 916 32
Width: 1298
VWidth: 0
Flags: HW
PickledData: "(dp1
S'org.robofab.postScriptHintData'
p2
(dp3
s."
LayerCount: 2
Fore
SplineSet
58 77 m 1
 1075 77 l 1
 716 1295 l 1
 58 77 l 1
-48 0 m 1
 -42 48 l 1
 723 1451 l 1
 754 1451 l 1
 1174 48 l 1
 1168 0 l 1
 -48 0 l 1
EndSplineSet
EndChar

StartChar: E
Encoding: 69 69 35
Width: 1219
VWidth: 0
Flags: HW
PickledData: "(dp1
S'org.robofab.postScriptHintData'
p2
(dp3
s."
LayerCount: 2
Fore
SplineSet
135 0 m 1
 313 1456 l 1
 1123 1456 l 1
 1113 1370 l 1
 411 1370 l 1
 339 787 l 1
 1002 787 l 1
 992 701 l 1
 327 701 l 1
 251 86 l 1
 985 86 l 1
 975 0 l 1
 135 0 l 1
EndSplineSet
EndChar

StartChar: Eng
Encoding: 330 330 46
Width: 1503
VWidth: 0
Flags: HW
PickledData: "(dp1
S'org.robofab.postScriptHintData'
p2
(dp3
s."
LayerCount: 2
Fore
SplineSet
1481 1456 m 1
 1302 0 l 1
 1272 -231 1223 -428 855 -428 c 0
 865 -346 l 0
 1064 -346 1164 -260 1186 -84 c 1
 1196 1 l 1
 533 1137 l 1
 445 1303 l 1
 285 0 l 1
 179 0 l 1
 358 1456 l 1
 464 1456 l 1
 1110 335 l 1
 1213 142 l 1
 1375 1456 l 1
 1481 1456 l 1
EndSplineSet
EndChar

StartChar: Euro
Encoding: 8364 8364 50
Width: 1334
VWidth: 0
Flags: HW
PickledData: "(dp1
S'org.robofab.postScriptHintData'
p2
(dp3
sS'com.typemytype.robofont.layerData'
p4
(dp5
S'b'
(dp6
S'name'
p7
S'Euro'
p8
sS'lib'
p9
(dp10
sS'unicodes'
p11
(tsS'width'
p12
I1190
sS'contours'
p13
(tsS'components'
p14
(tsS'anchors'
p15
(tsss."
LayerCount: 2
Fore
SplineSet
-85 542 m 1
 -71 614 l 1
 100 614 l 1
 101 642 103 671 107 701 c 0
 113 748 121 794 132 838 c 1
 -50 838 l 1
 -35 916 l 1
 154 916 l 1
 269 1266 551 1481 916 1481 c 0
 1083 1481 1222 1433 1318 1342 c 1
 1266 1274 l 1
 1175 1353 1050 1395 906 1395 c 0
 605 1395 370 1213 266 916 c 1
 879 916 l 1
 862 838 l 1
 242 838 l 1
 231 794 223 749 217 701 c 0
 213 671 211 642 210 614 c 1
 806 614 l 1
 790 542 l 1
 211 542 l 1
 230 247 421 65 728 65 c 0
 884 65 1038 108 1172 190 c 1
 1198 115 l 1
 1048 25 883 -22 718 -22 c 0
 346 -22 116 194 100 542 c 1
 -85 542 l 1
EndSplineSet
EndChar

StartChar: F
Encoding: 70 70 51
Width: 1090
VWidth: 0
Flags: HW
PickledData: "(dp1
S'org.robofab.postScriptHintData'
p2
(dp3
s."
LayerCount: 2
Fore
SplineSet
135 0 m 1
 313 1456 l 1
 1090 1456 l 1
 1080 1370 l 1
 411 1370 l 1
 338 779 l 1
 950 779 l 1
 940 693 l 1
 328 693 l 1
 243 0 l 1
 135 0 l 1
EndSplineSet
EndChar

StartChar: G
Encoding: 71 71 53
Width: 1513
VWidth: 0
Flags: HW
PickledData: "(dp1
S'org.robofab.postScriptHintData'
p2
(dp3
sS'com.typemytype.robofont.layerData'
p4
(dp5
S'b'
(dp6
S'name'
p7
S'G'
sS'lib'
p8
(dp9
sS'unicodes'
p10
(tsS'width'
p11
F1528.2
sS'contours'
p12
((dp13
S'points'
p14
((dp15
S'segmentType'
p16
S'curve'
p17
sS'x'
F841
sS'smooth'
p18
I01
sS'y'
F-23
s(dp19
S'y'
F-23
sS'x'
F361
sg18
I00
s(dp20
S'y'
F267
sS'x'
F108
sg18
I00
s(dp21
g16
S'curve'
p22
sS'x'
F108
sg18
I01
sS'y'
F701
s(dp23
S'y'
F1129
sS'x'
F108
sg18
I00
s(dp24
S'y'
F1483
sS'x'
F382
sg18
I00
s(dp25
g16
S'curve'
p26
sS'x'
F852
sg18
I01
sS'y'
F1483
s(dp27
S'y'
F1483
sS'x'
F1059
sg18
I00
s(dp28
S'y'
F1415
sS'x'
F1233
sg18
I00
s(dp29
g16
S'curve'
p30
sS'x'
F1334
sg18
I00
sS'y'
F1308
s(dp31
g16
S'line'
p32
sS'x'
F1262
sg18
I00
sS'y'
F1196
s(dp33
S'y'
F1291
sS'x'
F1164
sg18
I00
s(dp34
S'y'
F1334
sS'x'
F1034
sg18
I00
s(dp35
g16
S'curve'
p36
sS'x'
F848
sg18
I01
sS'y'
F1334
s(dp37
S'y'
F1334
sS'x'
F477
sg18
I00
s(dp38
S'y'
F1033
sS'x'
F286
sg18
I00
s(dp39
g16
S'curve'
p40
sS'x'
F286
sg18
I01
sS'y'
F714
s(dp41
S'y'
F365
sS'x'
F286
sg18
I00
s(dp42
S'y'
F125
sS'x'
F472
sg18
I00
s(dp43
g16
S'curve'
p44
sS'x'
F855
sg18
I01
sS'y'
F125
s(dp45
S'y'
F125
sS'x'
F968
sg18
I00
s(dp46
S'y'
F143
sS'x'
F1088
sg18
I00
s(dp47
g16
S'curve'
p48
sS'x'
F1184
sg18
I00
sS'y'
F182
s(dp49
g16
S'line'
p50
sS'x'
F1184
sg18
I00
sS'y'
F608
s(dp51
g16
S'line'
p52
sS'x'
F811
sg18
I00
sS'y'
F608
s(dp53
g16
S'line'
p54
sS'x'
F811
sg18
I00
sS'y'
F757
s(dp55
g16
S'line'
p56
sS'x'
F1356
sg18
I00
sS'y'
F757
s(dp57
g16
S'line'
p58
sS'x'
F1356
sg18
I00
sS'y'
F81
s(dp59
S'y'
F6
sS'x'
F1195
sg18
I00
s(dp60
S'y'
F-23
sS'x'
F1012
sg18
I00
stp61
stp62
sS'components'
p63
(tsS'anchors'
p64
(tsss."
LayerCount: 2
Fore
SplineSet
741 -21 m 0
 335 -21 99 214 99 587 c 0
 99 625 102 665 107 706 c 0
 165 1178 488 1481 933 1481 c 0
 941 1481 952 1481 965 1481 c 0
 1045 1481 1212 1472 1383 1334 c 1
 1328 1257 l 1
 1155 1382 1008 1395 923 1395 c 0
 546 1395 268 1125 217 706 c 0
 212 668 210 632 210 597 c 0
 210 271 409 65 753 65 c 0
 889 65 1062 85 1176 135 c 1
 1239 645 l 1
 830 645 l 1
 840 731 l 1
 1345 731 l 1
 1265 80 l 1
 1113 10 915 -21 741 -21 c 0
EndSplineSet
EndChar

StartChar: H
Encoding: 72 72 60
Width: 1558
VWidth: 0
Flags: HW
PickledData: "(dp1
S'org.robofab.postScriptHintData'
p2
(dp3
sS'com.typemytype.robofont.layerData'
p4
(dp5
S'b'
(dp6
S'name'
p7
S'H'
sS'lib'
p8
(dp9
sS'unicodes'
p10
(tsS'width'
p11
F1576.45
sS'contours'
p12
(tsS'components'
p13
(tsS'anchors'
p14
(tsss."
LayerCount: 2
Fore
SplineSet
135 0 m 1
 313 1456 l 1
 425 1456 l 1
 343 786 l 1
 1237 786 l 1
 1319 1456 l 1
 1423 1456 l 1
 1245 0 l 1
 1137 0 l 1
 1223 700 l 1
 329 700 l 1
 243 0 l 1
 135 0 l 1
EndSplineSet
EndChar

StartChar: Hbar
Encoding: 294 294 61
Width: 1594
VWidth: 0
Flags: HW
PickledData: "(dp1
S'org.robofab.postScriptHintData'
p2
(dp3
sS'com.typemytype.robofont.layerData'
p4
(dp5
S'b'
(dp6
S'name'
p7
S'Hbar'
p8
sS'lib'
p9
(dp10
sS'unicodes'
p11
(tsS'width'
p12
F1532.55
sS'contours'
p13
(tsS'components'
p14
(tsS'anchors'
p15
(tsss."
LayerCount: 2
Fore
SplineSet
198 1223 m 1
 203 1280 l 1
 1520 1280 l 1
 1513 1223 l 1
 198 1223 l 1
EndSplineSet
Refer: 60 72 N 1 0 0 1 0 0 2
EndChar

StartChar: I
Encoding: 73 73 63
Width: 592
VWidth: 0
Flags: HW
PickledData: "(dp1
S'org.robofab.postScriptHintData'
p2
(dp3
s."
LayerCount: 2
Fore
SplineSet
153 0 m 1
 331 1456 l 1
 439 1456 l 1
 261 0 l 1
 153 0 l 1
EndSplineSet
EndChar

StartChar: J
Encoding: 74 74 77
Width: 667
VWidth: 0
Flags: HW
PickledData: "(dp1
S'org.robofab.postScriptHintData'
p2
(dp3
sS'com.typemytype.robofont.layerData'
p4
(dp5
S'b'
(dp6
S'name'
p7
S'J'
sS'lib'
p8
(dp9
sS'unicodes'
p10
(tsS'width'
p11
F731.54999999999995
sS'contours'
p12
(tsS'components'
p13
(tsS'anchors'
p14
(tsss."
LayerCount: 2
Fore
SplineSet
-16 -312 m 0
 -45 -312 -75 -311 -108 -310 c 1
 -96 -223 l 1
 -61 -225 -29 -226 -1 -226 c 0
 187 -226 244 -171 281 132 c 2
 444 1456 l 1
 552 1456 l 1
 389 132 l 2
 342 -250 220 -312 -16 -312 c 0
EndSplineSet
EndChar

StartChar: K
Encoding: 75 75 79
Width: 1232
VWidth: 0
Flags: HW
PickledData: "(dp1
S'org.robofab.postScriptHintData'
p2
(dp3
sS'com.typemytype.robofont.layerData'
p4
(dp5
S'b'
(dp6
S'name'
p7
S'K'
sS'lib'
p8
(dp9
sS'unicodes'
p10
(tsS'width'
p11
F1289.95
sS'contours'
p12
(tsS'components'
p13
(tsS'anchors'
p14
(tsss."
LayerCount: 2
Fore
SplineSet
135 0 m 1
 313 1456 l 1
 421 1456 l 1
 338 774 l 1
 1135 1456 l 1
 1267 1456 l 1
 453 758 l 1
 1134 0 l 1
 1008 0 l 1
 332 745 l 1
 241 0 l 1
 135 0 l 1
EndSplineSet
EndChar

StartChar: L
Encoding: 76 76 82
Width: 1045
VWidth: 0
Flags: HW
PickledData: "(dp1
S'org.robofab.postScriptHintData'
p2
(dp3
s."
AnchorPoint: "caron.alt" 338 1026 basechar 0
LayerCount: 2
Fore
SplineSet
135 0 m 1
 313 1456 l 1
 421 1456 l 1
 253 86 l 1
 934 86 l 1
 924 0 l 1
 135 0 l 1
EndSplineSet
EndChar

StartChar: Lslash
Encoding: 321 321 88
Width: 1086
VWidth: 0
Flags: HW
PickledData: "(dp1
S'org.robofab.postScriptHintData'
p2
(dp3
s."
LayerCount: 2
Fore
SplineSet
41 537 m 1
 50 612 l 1
 644 947 l 1
 635 873 l 1
 41 537 l 1
EndSplineSet
Refer: 82 76 N 1 0 0 1 0 0 2
EndChar

StartChar: M
Encoding: 77 77 89
Width: 1849
VWidth: 0
Flags: HW
PickledData: "(dp1
S'org.robofab.postScriptHintData'
p2
(dp3
sS'com.typemytype.robofont.layerData'
p4
(dp5
S'b'
(dp6
S'name'
p7
S'M'
sS'lib'
p8
(dp9
sS'unicodes'
p10
(tsS'width'
p11
F1905.0999999999999
sS'contours'
p12
(tsS'components'
p13
(tsS'anchors'
p14
(tsss."
LayerCount: 2
Fore
SplineSet
135 0 m 1
 313 1456 l 1
 451 1456 l 1
 790 359 l 1
 852 141 l 1
 1094 585 1348 1017 1596 1456 c 1
 1714 1456 l 1
 1536 0 l 1
 1432 0 l 1
 1589 1279 l 1
 1517 1134 l 1
 865 0 l 1
 802 0 l 1
 446 1134 l 1
 401 1320 l 1
 239 0 l 1
 135 0 l 1
EndSplineSet
EndChar

StartChar: N
Encoding: 78 78 91
Width: 1571
VWidth: 0
Flags: HW
PickledData: "(dp1
S'org.robofab.postScriptHintData'
p2
(dp3
sS'com.typemytype.robofont.layerData'
p4
(dp5
S'b'
(dp6
S'name'
p7
S'N'
sS'lib'
p8
(dp9
sS'unicodes'
p10
(tsS'width'
p11
F1578.1500000000001
sS'contours'
p12
(tsS'components'
p13
(tsS'anchors'
p14
(tsss."
LayerCount: 2
Fore
SplineSet
135 0 m 1
 313 1456 l 1
 419 1456 l 1
 1066 335 l 1
 1169 142 l 1
 1330 1456 l 1
 1436 1456 l 1
 1258 0 l 1
 1153 0 l 1
 489 1137 l 1
 401 1303 l 1
 241 0 l 1
 135 0 l 1
EndSplineSet
EndChar

StartChar: O
Encoding: 79 79 98
Width: 1572
VWidth: 0
Flags: HW
PickledData: "(dp1
S'org.robofab.postScriptHintData'
p2
(dp3
sS'com.typemytype.robofont.guides'
p4
((dp5
S'y'
I727
sS'x'
I231
sS'magnetic'
p6
I5
sS'angle'
p7
I0
sS'isGlobal'
p8
I00
s(dp9
S'y'
I1254
sS'x'
I804
sg6
I5
sg7
F90
sg8
I00
stp10
sS'com.typemytype.robofont.layerData'
p11
(dp12
S'b'
(dp13
S'name'
p14
S'O'
sS'lib'
p15
(dp16
sS'unicodes'
p17
(tsS'width'
p18
F1630.8
sS'contours'
p19
(tsS'components'
p20
(tsS'anchors'
p21
(tsss."
LayerCount: 2
Fore
SplineSet
696 -21 m 0
 324 -21 101 216 101 594 c 0
 101 635 104 678 109 723 c 0
 166 1184 465 1481 880 1481 c 0
 1247 1481 1470 1241 1470 858 c 0
 1470 815 1467 770 1461 723 c 0
 1406 270 1105 -21 696 -21 c 0
706 65 m 0
 1081 65 1359 380 1359 849 c 0
 1359 1185 1176 1395 870 1395 c 0
 524 1395 269 1132 219 723 c 0
 214 682 211 641 211 603 c 0
 211 272 398 65 706 65 c 0
EndSplineSet
EndChar

StartChar: OE
Encoding: 338 338 99
Width: 2038
VWidth: 0
Flags: HW
PickledData: "(dp1
S'org.robofab.postScriptHintData'
p2
(dp3
sS'com.typemytype.robofont.layerData'
p4
(dp5
S'b'
(dp6
S'name'
p7
S'OE'
p8
sS'lib'
p9
(dp10
sS'unicodes'
p11
(tsS'width'
p12
F2049.1500000000001
sS'contours'
p13
(tsS'components'
p14
(tsS'anchors'
p15
(tsss."
LayerCount: 2
Fore
SplineSet
744 66 m 0
 899 66 1038 129 1133 238 c 1
 1255 1239 l 1
 1194 1320 1077 1395 908 1395 c 0
 459 1395 254 1006 219 726 c 0
 214 686 212 645 212 605 c 0
 212 328 337 66 744 66 c 0
1120 135 m 1
 1033 44 887 -20 721 -20 c 0
 282 -20 101 254 101 597 c 0
 101 639 104 682 109 726 c 0
 161 1143 452 1481 918 1481 c 0
 1012 1481 1167 1454 1268 1344 c 1
 1282 1456 l 1
 2060 1456 l 1
 2048 1357 l 1
 1380 1357 l 1
 1311 796 l 1
 1940 796 l 1
 1928 698 l 1
 1297 698 l 1
 1223 99 l 1
 1924 99 l 1
 1912 0 l 1
 1103 0 l 1
 1120 135 l 1
EndSplineSet
EndChar

StartChar: Omega
Encoding: 937 937 111
Width: 1603
VWidth: 0
Flags: HW
PickledData: "(dp1
S'org.robofab.postScriptHintData'
p2
(dp3
s."
LayerCount: 2
Fore
SplineSet
898 1331 m 0
 535 1331 249 1051 249 632 c 0
 249 391 364 211 542 86 c 1
 533 0 l 1
 57 0 l 1
 58 90 l 1
 449 90 l 1
 266 212 137 393 137 649 c 0
 137 681 139 713 143 747 c 0
 194 1159 522 1423 917 1423 c 0
 1290 1423 1506 1180 1506 848 c 0
 1506 465 1256 239 1030 90 c 1
 1429 90 l 1
 1408 0 l 1
 928 0 l 1
 936 86 l 1
 1168 228 1350 433 1386 725 c 0
 1390 757 1392 790 1392 821 c 0
 1392 1102 1234 1331 898 1331 c 0
EndSplineSet
EndChar

StartChar: Oslash
Encoding: 216 216 113
Width: 1572
VWidth: 0
Flags: HW
PickledData: "(dp1
S'org.robofab.postScriptHintData'
p2
(dp3
sS'com.typemytype.robofont.layerData'
p4
(dp5
S'b'
(dp6
S'name'
p7
S'Oslash'
p8
sS'lib'
p9
(dp10
sS'unicodes'
p11
(tsS'width'
p12
F1663
sS'contours'
p13
(tsS'components'
p14
(tsS'anchors'
p15
(tsss."
LayerCount: 2
Fore
SplineSet
252 -155 m 1
 193 -121 l 1
 1353 1605 l 1
 1409 1572 l 1
 252 -155 l 1
EndSplineSet
Refer: 98 79 N 1 0 0 1 0 0 2
EndChar

StartChar: P
Encoding: 80 80 116
Width: 1219
VWidth: 0
Flags: HW
PickledData: "(dp1
S'org.robofab.postScriptHintData'
p2
(dp3
sS'com.typemytype.robofont.layerData'
p4
(dp5
S'b'
(dp6
S'name'
p7
S'P'
sS'lib'
p8
(dp9
sS'unicodes'
p10
(tsS'width'
p11
F1252.6500000000001
sS'contours'
p12
((dp13
S'points'
p14
((dp15
S'segmentType'
p16
S'line'
p17
sS'x'
F360
sS'smooth'
p18
I00
sS'y'
F828
s(dp19
g16
S'line'
p20
sS'x'
F580
sg18
I01
sS'y'
F828
s(dp21
S'y'
F828
sS'x'
F775
sg18
I00
s(dp22
S'y'
F881
sS'x'
F973
sg18
I00
s(dp23
g16
S'curve'
p24
sS'x'
F973
sg18
I01
sS'y'
F1077
s(dp25
S'y'
F1272
sS'x'
F973
sg18
I00
s(dp26
S'y'
F1308
sS'x'
F807
sg18
I00
s(dp27
g16
S'curve'
p28
sS'x'
F592
sg18
I01
sS'y'
F1308
s(dp29
g16
S'line'
p30
sS'x'
F360
sg18
I00
sS'y'
F1308
stp31
s(dp32
g14
((dp33
g16
S'line'
p34
sS'x'
F360
sg18
I00
sS'y'
F148
s(dp35
g16
S'line'
p36
sS'x'
F667
sg18
I01
sS'y'
F148
s(dp37
S'y'
F148
sS'x'
F906
sg18
I00
s(dp38
S'y'
F230
sS'x'
F1041
sg18
I00
s(dp39
g16
S'curve'
p40
sS'x'
F1041
sg18
I01
sS'y'
F406
s(dp41
S'y'
F617
sS'x'
F1041
sg18
I00
s(dp42
S'y'
F680
sS'x'
F889
sg18
I00
s(dp43
g16
S'curve'
p44
sS'x'
F610
sg18
I01
sS'y'
F680
s(dp45
g16
S'line'
p46
sS'x'
F360
sg18
I00
sS'y'
F680
stp47
s(dp48
g14
((dp49
g16
S'line'
p50
sS'x'
F188
sg18
I00
sS'y'
F0
s(dp51
g16
S'line'
p52
sS'x'
F188
sg18
I00
sS'y'
F1456
s(dp53
g16
S'line'
p54
sS'x'
F502
sg18
I01
sS'y'
F1456
s(dp55
S'y'
F1456
sS'x'
F765
sg18
I00
s(dp56
S'y'
F1443
sS'x'
F1154
sg18
I00
s(dp57
g16
S'curve'
p58
sS'x'
F1154
sg18
I01
sS'y'
F1105
s(dp59
S'y'
F944
sS'x'
F1154
sg18
I00
s(dp60
S'y'
F814
sS'x'
F1045
sg18
I00
s(dp61
g16
S'curve'
p62
sS'x'
F889
sg18
I00
sS'y'
F769
s(dp63
S'y'
F734
sS'x'
F1086
sg18
I00
s(dp64
S'y'
F605
sS'x'
F1223
sg18
I00
s(dp65
g16
S'curve'
p66
sS'x'
F1223
sg18
I01
sS'y'
F403
s(dp67
S'y'
F189
sS'x'
F1223
sg18
I00
s(dp68
S'y'
F0
sS'x'
F1059
sg18
I00
s(dp69
g16
S'curve'
p70
sS'x'
F739
sg18
I01
sS'y'
F0
stp71
stp72
sS'components'
p73
(tsS'anchors'
p74
(tsss."
LayerCount: 2
Fore
SplineSet
339 787 m 1
 662 787 l 2
 954 787 1062 875 1087 1079 c 0
 1090 1100 1091 1120 1091 1138 c 0
 1091 1299 992 1371 774 1371 c 0
 761 1371 748 1371 734 1370 c 2
 411 1370 l 1
 339 787 l 1
135 0 m 1
 313 1456 l 1
 744 1456 l 2
 1055 1456 1195 1364 1195 1152 c 0
 1195 1129 1193 1105 1190 1079 c 0
 1158 814 996 701 652 701 c 2
 329 701 l 1
 243 0 l 1
 135 0 l 1
EndSplineSet
EndChar

StartChar: Q
Encoding: 81 81 118
Width: 1572
VWidth: 0
Flags: HW
PickledData: "(dp1
S'org.robofab.postScriptHintData'
p2
(dp3
sS'com.typemytype.robofont.layerData'
p4
(dp5
S'b'
(dp6
S'name'
p7
S'Q'
sS'lib'
p8
(dp9
sS'unicodes'
p10
(tsS'width'
p11
F1628.2
sS'contours'
p12
(tsS'components'
p13
(tsS'anchors'
p14
(tsss."
LayerCount: 2
Fore
SplineSet
706 65 m 0
 1081 65 1359 380 1359 849 c 0
 1359 1185 1176 1395 870 1395 c 0
 524 1395 269 1132 219 723 c 0
 214 682 211 641 211 603 c 0
 211 272 398 65 706 65 c 0
696 -21 m 0
 324 -21 101 216 101 594 c 0
 101 635 104 678 109 723 c 0
 166 1184 465 1481 880 1481 c 0
 1247 1481 1470 1241 1470 858 c 0
 1470 815 1467 770 1461 723 c 0
 1416 349 1202 85 898 5 c 1
 975 -176 1124 -346 1124 -346 c 1
 1055 -405 l 1
 1055 -405 884 -205 812 -13 c 1
 774 -18 736 -21 696 -21 c 0
EndSplineSet
EndChar

StartChar: R
Encoding: 82 82 119
Width: 1373
VWidth: 0
Flags: HW
PickledData: "(dp1
S'org.robofab.postScriptHintData'
p2
(dp3
sS'com.typemytype.robofont.layerData'
p4
(dp5
S'b'
(dp6
S'name'
p7
S'R'
sS'lib'
p8
(dp9
sS'unicodes'
p10
(tsS'width'
p11
F1341
sS'contours'
p12
((dp13
S'points'
p14
((dp15
S'segmentType'
p16
S'line'
p17
sS'x'
F360
sS'smooth'
p18
I00
sS'y'
F799
s(dp19
g16
S'line'
p20
sS'x'
F615
sg18
I01
sS'y'
F799
s(dp21
S'y'
F799
sS'x'
F795
sg18
I00
s(dp22
S'y'
F854
sS'x'
F932
sg18
I00
s(dp23
g16
S'curve'
p24
sS'x'
F932
sg18
I01
sS'y'
F1058
s(dp25
S'y'
F1259
sS'x'
F932
sg18
I00
s(dp26
S'y'
F1308
sS'x'
F833
sg18
I00
s(dp27
g16
S'curve'
p28
sS'x'
F626
sg18
I01
sS'y'
F1308
s(dp29
g16
S'line'
p30
sS'x'
F360
sg18
I00
sS'y'
F1308
stp31
s(dp32
g14
((dp33
g16
S'line'
p34
sS'x'
F188
sg18
I00
sS'y'
F0
s(dp35
g16
S'line'
p36
sS'x'
F188
sg18
I00
sS'y'
F1456
s(dp37
g16
S'line'
p38
sS'x'
F533
sg18
I01
sS'y'
F1456
s(dp39
S'y'
F1456
sS'x'
F771
sg18
I00
s(dp40
S'y'
F1452
sS'x'
F1114
sg18
I00
s(dp41
g16
S'curve'
p42
sS'x'
F1114
sg18
I01
sS'y'
F1074
s(dp43
S'y'
F890
sS'x'
F1114
sg18
I00
s(dp44
S'y'
F762
sS'x'
F1035
sg18
I00
s(dp45
g16
S'curve'
p46
sS'x'
F847
sg18
I00
sS'y'
F715
s(dp47
g16
S'line'
p48
sS'x'
F848
sg18
I00
sS'y'
F715
s(dp49
S'y'
F662
sS'x'
F1012
sg18
I00
s(dp50
S'y'
F510
sS'x'
F1039
sg18
I00
s(dp51
g16
S'curve'
p52
sS'x'
F1159
sg18
I01
sS'y'
F214
s(dp53
g16
S'line'
p54
sS'x'
F1246
sg18
I00
sS'y'
F0
s(dp55
g16
S'line'
p56
sS'x'
F1061
sg18
I00
sS'y'
F0
s(dp57
g16
S'line'
p58
sS'x'
F896
sg18
I01
sS'y'
F419
s(dp59
S'y'
F600
sS'x'
F825
sg18
I00
s(dp60
S'y'
F652
sS'x'
F797
sg18
I00
s(dp61
g16
S'curve'
p62
sS'x'
F619
sg18
I01
sS'y'
F652
s(dp63
g16
S'line'
p64
sS'x'
F360
sg18
I00
sS'y'
F652
s(dp65
g16
S'line'
p66
sS'x'
F360
sg18
I00
sS'y'
F0
stp67
stp68
sS'components'
p69
(tsS'anchors'
p70
(tsss."
LayerCount: 2
Fore
SplineSet
339 758 m 1
 693 758 l 2
 935 758 1055 868 1081 1077 c 0
 1084 1098 1085 1117 1085 1136 c 0
 1085 1298 988 1371 777 1371 c 0
 764 1371 751 1371 738 1370 c 2
 414 1370 l 1
 339 758 l 1
1189 1150 m 0
 1189 910 1063 733 841 714 c 1
 1004 686 1020 627 1065 431 c 2
 1163 0 l 1
 1062 0 l 1
 968 408 l 2
 919 619 894 672 711 672 c 2
 325 672 l 1
 243 0 l 1
 135 0 l 1
 313 1456 l 1
 748 1456 l 2
 1052 1456 1189 1363 1189 1150 c 0
EndSplineSet
EndChar

StartChar: S
Encoding: 83 83 125
Width: 1130
VWidth: 0
Flags: HW
PickledData: "(dp1
S'org.robofab.postScriptHintData'
p2
(dp3
sS'com.typemytype.robofont.layerData'
p4
(dp5
S'b'
(dp6
S'name'
p7
S'S'
sS'lib'
p8
(dp9
sS'unicodes'
p10
(tsS'width'
p11
F1211
sS'contours'
p12
((dp13
S'points'
p14
((dp15
S'segmentType'
p16
S'curve'
p17
sS'x'
F596
sS'smooth'
p18
I01
sS'y'
F-23
s(dp19
S'y'
F-23
sS'x'
F321
sg18
I00
s(dp20
S'y'
F120
sS'x'
F158
sg18
I00
s(dp21
g16
S'curve'
p22
sS'x'
F140
sg18
I00
sS'y'
F141
s(dp23
g16
S'line'
p24
sS'x'
F219
sg18
I00
sS'y'
F271
s(dp25
S'y'
F243
sS'x'
F256
sg18
I00
s(dp26
S'y'
F125
sS'x'
F393
sg18
I00
s(dp27
g16
S'curve'
p28
sS'x'
F595
sg18
I01
sS'y'
F125
s(dp29
S'y'
F125
sS'x'
F797
sg18
I00
s(dp30
S'y'
F204
sS'x'
F898
sg18
I00
s(dp31
g16
S'curve'
p32
sS'x'
F898
sg18
I01
sS'y'
F360
s(dp33
S'y'
F536
sS'x'
F898
sg18
I00
s(dp34
S'y'
F601
sS'x'
F709
sg18
I00
s(dp35
g16
S'curve'
p36
sS'x'
F521
sg18
I01
sS'y'
F681
s(dp37
S'y'
F761
sS'x'
F333
sg18
I00
s(dp38
S'y'
F857
sS'x'
F145
sg18
I00
s(dp39
g16
S'curve'
p40
sS'x'
F145
sg18
I01
sS'y'
F1095
s(dp41
S'y'
F1350
sS'x'
F145
sg18
I00
s(dp42
S'y'
F1483
sS'x'
F357
sg18
I00
s(dp43
g16
S'curve'
p44
sS'x'
F620
sg18
I01
sS'y'
F1483
s(dp45
S'y'
F1483
sS'x'
F891
sg18
I00
s(dp46
S'y'
F1362
sS'x'
F1009
sg18
I00
s(dp47
g16
S'curve'
p48
sS'x'
F1034
sg18
I00
sS'y'
F1335
s(dp49
g16
S'line'
p50
sS'x'
F951
sg18
I00
sS'y'
F1217
s(dp51
S'y'
F1242
sS'x'
F921
sg18
I00
s(dp52
S'y'
F1334
sS'x'
F819
sg18
I00
s(dp53
g16
S'curve'
p54
sS'x'
F640
sg18
I01
sS'y'
F1334
s(dp55
S'y'
F1334
sS'x'
F478
sg18
I00
s(dp56
S'y'
F1270
sS'x'
F328
sg18
I00
s(dp57
g16
S'curve'
p58
sS'x'
F328
sg18
I01
sS'y'
F1105
s(dp59
S'y'
F934
sS'x'
F328
sg18
I00
s(dp60
S'y'
F868
sS'x'
F515
sg18
I00
s(dp61
g16
S'curve'
p62
sS'x'
F703
sg18
I01
sS'y'
F785
s(dp63
S'y'
F702
sS'x'
F891
sg18
I00
s(dp64
S'y'
F602
sS'x'
F1078
sg18
I00
s(dp65
g16
S'curve'
p66
sS'x'
F1078
sg18
I01
sS'y'
F364
s(dp67
S'y'
F78
sS'x'
F1078
sg18
I00
s(dp68
S'y'
F-23
sS'x'
F868
sg18
I00
stp69
stp70
sS'components'
p71
(tsS'anchors'
p72
(tsss."
LayerCount: 2
Fore
SplineSet
1004 465 m 0
 1004 166 810 -21 494 -21 c 0
 213 -21 102 114 70 142 c 1
 130 216 l 1
 172 175 273 65 504 65 c 0
 747 65 901 212 901 444 c 0
 901 576 828 636 617 693 c 2
 473 732 l 2
 278 785 171 865 171 1046 c 0
 171 1325 367 1481 671 1481 c 0
 940 1481 1026 1370 1048 1351 c 1
 992 1277 l 1
 965 1309 873 1395 661 1395 c 0
 419 1395 278 1272 278 1046 c 0
 278 922 338 868 508 822 c 2
 652 784 l 2
 923 712 1004 622 1004 465 c 0
EndSplineSet
EndChar

StartChar: T
Encoding: 84 84 132
Width: 1097
VWidth: 0
Flags: HW
PickledData: "(dp1
S'org.robofab.postScriptHintData'
p2
(dp3
s."
LayerCount: 2
Fore
SplineSet
405 0 m 1
 573 1370 l 1
 87 1370 l 1
 97 1456 l 1
 1177 1456 l 1
 1167 1370 l 1
 681 1370 l 1
 513 0 l 1
 405 0 l 1
EndSplineSet
EndChar

StartChar: Thorn
Encoding: 222 222 137
Width: 1255
VWidth: 0
Flags: HW
PickledData: "(dp1
S'org.robofab.postScriptHintData'
p2
(dp3
s."
LayerCount: 2
Fore
SplineSet
598 460 m 2
 868 460 1077 570 1077 835 c 0
 1077 1052 893 1110 627 1110 c 2
 372 1110 l 1
 292 460 l 1
 598 460 l 2
124 0 m 1
 302 1456 l 1
 413 1456 l 1
 383 1211 l 1
 623 1211 l 2
 937 1211 1195 1142 1195 852 c 0
 1195 830 1194 807 1191 783 c 0
 1154 486 916 358 598 358 c 2
 280 358 l 1
 236 0 l 1
 124 0 l 1
EndSplineSet
EndChar

StartChar: U
Encoding: 85 85 138
Width: 1480
VWidth: 0
Flags: HW
PickledData: "(dp1
S'org.robofab.postScriptHintData'
p2
(dp3
sS'com.typemytype.robofont.layerData'
p4
(dp5
S'b'
(dp6
S'name'
p7
S'U'
sS'lib'
p8
(dp9
sS'unicodes'
p10
(tsS'width'
p11
F1496.9000000000001
sS'contours'
p12
(tsS'components'
p13
(tsS'anchors'
p14
(tsss."
LayerCount: 2
Fore
SplineSet
641 -21 m 0
 314 -21 144 128 144 412 c 0
 144 444 147 478 151 514 c 2
 267 1456 l 1
 375 1456 l 1
 258 506 l 2
 254 476 253 448 253 421 c 0
 253 187 389 65 652 65 c 1
 945 65 1119 217 1154 506 c 2
 1271 1456 l 1
 1379 1456 l 1
 1263 514 l 1
 1217 164 1002 -21 641 -21 c 0
EndSplineSet
EndChar

StartChar: V
Encoding: 86 86 152
Width: 1381
VWidth: 0
Flags: HW
PickledData: "(dp1
S'org.robofab.postScriptHintData'
p2
(dp3
sS'com.typemytype.robofont.layerData'
p4
(dp5
S'b'
(dp6
S'name'
p7
S'V'
sS'lib'
p8
(dp9
sS'unicodes'
p10
(tsS'width'
p11
F1320.1500000000001
sS'contours'
p12
(tsS'components'
p13
(tsS'anchors'
p14
(tsss."
LayerCount: 2
Fore
SplineSet
539 0 m 1
 183 1456 l 1
 294 1456 l 1
 401 1001 510 547 615 90 c 1
 825 552 1047 1001 1264 1456 c 1
 1376 1456 l 1
 669 0 l 1
 539 0 l 1
EndSplineSet
EndChar

StartChar: W
Encoding: 87 87 153
Width: 2037
VWidth: 0
Flags: HW
PickledData: "(dp1
S'org.robofab.postScriptHintData'
p2
(dp3
sS'com.typemytype.robofont.layerData'
p4
(dp5
S'b'
(dp6
S'name'
p7
S'W'
sS'lib'
p8
(dp9
sS'unicodes'
p10
(tsS'width'
p11
F1988.8499999999999
sS'contours'
p12
(tsS'components'
p13
(tsS'anchors'
p14
(tsss."
LayerCount: 2
Fore
SplineSet
425 0 m 1
 227 1456 l 1
 341 1456 l 1
 500 214 l 1
 504 103 l 1
 545 214 l 1
 1061 1456 l 1
 1170 1456 l 1
 1382 214 l 1
 1395 117 l 1
 1559 560 1716 1010 1878 1456 c 1
 1988 1456 l 1
 1448 0 l 1
 1319 0 l 1
 1102 1320 l 1
 553 0 l 1
 425 0 l 1
EndSplineSet
EndChar

StartChar: X
Encoding: 88 88 158
Width: 1317
VWidth: 0
Flags: HW
PickledData: "(dp1
S'org.robofab.postScriptHintData'
p2
(dp3
sS'com.typemytype.robofont.layerData'
p4
(dp5
S'b'
(dp6
S'name'
p7
S'X'
sS'lib'
p8
(dp9
sS'unicodes'
p10
(tsS'width'
p11
F1257.7
sS'contours'
p12
(tsS'components'
p13
(tsS'anchors'
p14
(tsss."
LayerCount: 2
Fore
SplineSet
31 0 m 1
 611 740 l 1
 221 1456 l 1
 340 1456 l 1
 679 814 l 1
 1155 1456 l 1
 1269 1456 l 1
 731 744 l 1
 1108 0 l 1
 998 0 l 1
 666 664 l 1
 144 0 l 1
 31 0 l 1
EndSplineSet
EndChar

StartChar: Y
Encoding: 89 89 159
Width: 1235
VWidth: 0
Flags: HW
PickledData: "(dp1
S'org.robofab.postScriptHintData'
p2
(dp3
sS'com.typemytype.robofont.layerData'
p4
(dp5
S'b'
(dp6
S'name'
p7
S'Y'
sS'lib'
p8
(dp9
sS'unicodes'
p10
(tsS'width'
p11
F1225.45
sS'contours'
p12
(tsS'components'
p13
(tsS'anchors'
p14
(tsss."
LayerCount: 2
Fore
SplineSet
471 0 m 1
 543 591 l 1
 169 1456 l 1
 278 1456 l 1
 610 683 l 1
 1139 1456 l 1
 1244 1456 l 1
 652 594 l 1
 579 0 l 1
 471 0 l 1
EndSplineSet
EndChar

StartChar: Z
Encoding: 90 90 166
Width: 1182
VWidth: 0
Flags: HW
PickledData: "(dp1
S'org.robofab.postScriptHintData'
p2
(dp3
sS'com.typemytype.robofont.layerData'
p4
(dp5
S'b'
(dp6
S'name'
p7
S'Z'
sS'lib'
p8
(dp9
sS'unicodes'
p10
(tsS'width'
p11
F1179.45
sS'contours'
p12
(tsS'components'
p13
(tsS'anchors'
p14
(tsss."
LayerCount: 2
Fore
SplineSet
45 0 m 1
 52 61 l 1
 1019 1370 l 1
 249 1370 l 1
 259 1456 l 1
 1159 1456 l 1
 1152 1399 l 1
 182 86 l 1
 987 86 l 1
 977 0 l 1
 45 0 l 1
EndSplineSet
EndChar

StartChar: a
Encoding: 97 97 170
Width: 1253
VWidth: 0
Flags: HW
PickledData: "(dp1
S'org.robofab.postScriptHintData'
p2
(dp3
sS'com.typemytype.robofont.layerData'
p4
(dp5
S'b'
(dp6
S'name'
p7
S'a'
sS'lib'
p8
(dp9
sS'unicodes'
p10
(tsS'width'
p11
I1268
sS'contours'
p12
((dp13
S'points'
p14
((dp15
S'segmentType'
p16
S'curve'
p17
sS'x'
F595
sS'smooth'
p18
I01
sS'y'
F-22
s(dp19
S'y'
F-22
sS'x'
F262
sg18
I00
s(dp20
S'y'
F221
sS'x'
F100
sg18
I00
s(dp21
g16
S'curve'
p22
sS'x'
F100
sg18
I01
sS'y'
F518
s(dp23
S'y'
F824
sS'x'
F100
sg18
I00
s(dp24
S'y'
F1052
sS'x'
F287
sg18
I00
s(dp25
g16
S'curve'
p26
sS'x'
F603
sg18
I01
sS'y'
F1052
s(dp27
S'y'
F1052
sS'x'
F816
sg18
I00
s(dp28
S'y'
F903
sS'x'
F905
sg18
I00
s(dp29
g16
S'curve'
p30
sS'x'
F928
sg18
I00
sS'y'
F847
s(dp31
g16
S'line'
p32
sS'x'
F928
sg18
I00
sS'y'
F1026
s(dp33
g16
S'line'
p34
sS'x'
F1092
sg18
I00
sS'y'
F1026
s(dp35
g16
S'line'
p36
sS'x'
F1092
sg18
I00
sS'y'
F0
s(dp37
g16
S'line'
p38
sS'x'
F928
sg18
I00
sS'y'
F0
s(dp39
g16
S'line'
p40
sS'x'
F928
sg18
I00
sS'y'
F185
s(dp41
S'y'
F82
sS'x'
F881
sg18
I00
s(dp42
S'y'
F-22
sS'x'
F769
sg18
I00
stp43
s(dp44
g14
((dp45
g16
S'curve'
p46
sS'x'
F608
sg18
I01
sS'y'
F918
s(dp47
S'y'
F918
sS'x'
F359
sg18
I00
s(dp48
S'y'
F725
sS'x'
F270
sg18
I00
s(dp49
g16
S'curve'
p50
sS'x'
F270
sg18
I01
sS'y'
F516
s(dp51
S'y'
F308
sS'x'
F270
sg18
I00
s(dp52
S'y'
F112
sS'x'
F364
sg18
I00
s(dp53
g16
S'curve'
p54
sS'x'
F609
sg18
I01
sS'y'
F112
s(dp55
S'y'
F112
sS'x'
F813
sg18
I00
s(dp56
S'y'
F277
sS'x'
F934
sg18
I00
s(dp57
g16
S'curve'
p58
sS'x'
F934
sg18
I01
sS'y'
F526
s(dp59
S'y'
F734
sS'x'
F934
sg18
I00
s(dp60
S'y'
F918
sS'x'
F826
sg18
I00
stp61
stp62
sS'components'
p63
(tsS'anchors'
p64
(tsss."
LayerCount: 2
Fore
SplineSet
637 970 m 7
 380 970 191 755 191 436 c 0
 191 205 316 61 525 61 c 0
 758 61 913 242 948 524 c 0
 952 554 953 582 953 609 c 0
 953 831 819 970 637 970 c 7
91 425 m 0
 91 804 326 1052 647 1052 c 0
 823 1052 944 957 985 825 c 1
 1010 1026 l 1
 1108 1026 l 1
 982 0 l 1
 884 0 l 1
 910 215 l 1
 832 77 695 -21 511 -21 c 0
 248 -21 91 150 91 425 c 0
EndSplineSet
EndChar

StartChar: acute
Encoding: 180 180 175
Width: 607
VWidth: 0
Flags: HW
PickledData: "(dp1
S'org.robofab.postScriptHintData'
p2
(dp3
s."
LayerCount: 2
Fore
SplineSet
102 1174 m 1
 332 1456 l 1
 464 1456 l 1
 157 1174 l 1
 102 1174 l 1
EndSplineSet
EndChar

StartChar: ae
Encoding: 230 230 179
Width: 1811
VWidth: 0
Flags: HW
PickledData: "(dp1
S'org.robofab.postScriptHintData'
p2
(dp3
sS'com.typemytype.robofont.layerData'
p4
(dp5
S'b'
(dp6
S'name'
p7
S'ae'
p8
sS'lib'
p9
(dp10
sS'unicodes'
p11
(tsS'width'
p12
F1790.05
sS'contours'
p13
(tsS'components'
p14
((dp15
S'transformation'
p16
(I1
I0
I0
I1
I642
I0
tp17
sS'baseGlyph'
p18
S'e'
stp19
sS'anchors'
p20
(tsss."
LayerCount: 2
Fore
SplineSet
971 578 m 1
 1648 578 l 1
 1650 608 l 2
 1651 621 1652 634 1652 648 c 0
 1652 796 1579 970 1363 970 c 0
 1148 970 993 760 971 578 c 1
415 61 m 1
 673 61 818 250 848 507 c 1
 626 507 l 2
 305 507 191 471 167 280 c 0
 166 269 165 258 165 248 c 0
 165 113 279 61 415 61 c 1
1735 638 m 0
 1735 598 1731 551 1726 509 c 1
 962 509 l 1
 958 474 l 2
 955 449 953 424 953 399 c 0
 953 222 1036 61 1257 61 c 0
 1459 61 1600 177 1600 177 c 2
 1628 108 l 1
 1628 108 1477 -21 1247 -21 c 0
 1042 -21 907 105 874 279 c 1
 819 137 667 -20 405 -20 c 0
 201 -20 68 76 68 237 c 0
 68 249 68 261 70 274 c 0
 103 538 299 578 651 578 c 2
 853 578 l 1
 856 604 858 630 858 654 c 0
 858 838 765 970 586 970 c 0
 397 970 277 911 223 885 c 1
 199 964 l 1
 236 981 369 1052 596 1052 c 0
 795 1052 924 941 938 767 c 1
 1020 933 1185 1052 1373 1052 c 0
 1590 1052 1735 911 1735 638 c 0
EndSplineSet
EndChar

StartChar: ampersand
Encoding: 38 38 185
Width: 1470
VWidth: 0
Flags: HW
PickledData: "(dp1
S'org.robofab.postScriptHintData'
p2
(dp3
sS'com.typemytype.robofont.layerData'
p4
(dp5
S'b'
(dp6
S'name'
p7
S'ampersand'
p8
sS'lib'
p9
(dp10
sS'unicodes'
p11
(tsS'width'
p12
F1539.95
sS'contours'
p13
(tsS'components'
p14
(tsS'anchors'
p15
(tsss."
LayerCount: 2
Fore
SplineSet
711 1400 m 0
 576 1400 467 1318 467 1160 c 0
 467 1055 511 955 588 870 c 1
 723 942 887 1066 904 1204 c 0
 905 1214 906 1223 906 1232 c 0
 906 1350 806 1400 711 1400 c 0
542 75 m 0
 734 75 849 147 967 264 c 1
 558 770 l 1
 383.493121062 681.707829109 216 582.416015625 216 351 c 0
 216 187 340 75 542 75 c 0
380 1159 m 0
 380 1373 536 1484 718 1484 c 0
 860 1484 998 1410 998 1251 c 0
 998 1239 998 1227 996 1214 c 0
 976 1048 792 899 626 814 c 5
 1023 324 l 1
 1127 445 1226 685 1246 850 c 1
 1338 849 l 1
 1299 649 1211 409 1080 255 c 1
 1105 225 1237 108 1364 65 c 1
 1283 1 l 1
 1178 35 1042 163 1010 198 c 0
 1010 198 1009 198 1010 197 c 1
 887 66 745 -18 538 -18 c 0
 285 -18 109 111 109 337 c 0
 109 614 315 721 513 832 c 1
 441 924 380 1029 380 1159 c 0
EndSplineSet
EndChar

StartChar: approxequal
Encoding: 8776 8776 187
Width: 1351
VWidth: 0
Flags: HW
PickledData: "(dp1
S'org.robofab.postScriptHintData'
p2
(dp3
s."
LayerCount: 2
Fore
SplineSet
199 285 m 1
 153 294 l 1
 202 436 308 520 453 520 c 0
 542 520 616 479 687 435 c 1
 758 385 829 345 907 345 c 0
 1014 345 1081 407 1134 512 c 1
 1179 500 l 1
 1137 365 1037 275 891 275 c 0
 813 275 749 305 639 372 c 0
 567 420 511 448 437 448 c 0
 315 448 244 382 199 285 c 1
244 673 m 1
 199 688 l 1
 249 827 357 911 498 911 c 0
 579 911 649 876 733 824 c 0
 824 765 884 739 953 739 c 0
 1060 739 1130 796 1179 906 c 1
 1224 890 l 1
 1183 757 1084 665 936 665 c 0
 860 665 787 703 683 766 c 0
 613 810 552 839 484 839 c 0
 358 839 285 777 244 673 c 1
EndSplineSet
EndChar

StartChar: asciicircum
Encoding: 94 94 190
Width: 1721
VWidth: 0
Flags: HW
PickledData: "(dp1
S'org.robofab.postScriptHintData'
p2
(dp3
sS'com.typemytype.robofont.layerData'
p4
(dp5
S'b'
(dp6
S'name'
p7
S'asciicircum'
p8
sS'lib'
p9
(dp10
sS'unicodes'
p11
(tsS'width'
p12
F1623.3499999999999
sS'contours'
p13
(tsS'components'
p14
(tsS'anchors'
p15
(tsss."
LayerCount: 2
Fore
SplineSet
336 604 m 1
 879 1456 l 1
 936 1456 l 1
 1281 604 l 1
 1198 604 l 1
 896 1362 l 1
 417 604 l 1
 336 604 l 1
EndSplineSet
EndChar

StartChar: asciitilde
Encoding: 126 126 191
Width: 917
VWidth: 0
Flags: HW
PickledData: "(dp1
S'org.robofab.postScriptHintData'
p2
(dp3
s."
LayerCount: 2
Fore
SplineSet
13 420 m 1
 -39 447 l 1
 5 574 69 633 226 633 c 0
 292 633 363 615 437 591 c 1
 587 533 620 519 685 519 c 0
 795 519 866 606 900 697 c 1
 957 677 l 1
 905 533 814 432 670 432 c 0
 613 432 538 461 459 487 c 1
 318 545 295 546 222 546 c 0
 220 546 218 546 215 546 c 0
 89 546 44 513 13 420 c 1
EndSplineSet
EndChar

StartChar: asterisk
Encoding: 42 42 192
Width: 1190
VWidth: 0
Flags: HW
PickledData: "(dp1
S'org.robofab.postScriptHintData'
p2
(dp3
sS'com.typemytype.robofont.guides'
p4
((dp5
S'y'
I1149
sS'x'
I567
sS'magnetic'
p6
I5
sS'angle'
p7
I0
sS'isGlobal'
p8
I00
stp9
sS'com.typemytype.robofont.layerData'
p10
(dp11
S'b'
(dp12
S'name'
p13
S'asterisk'
p14
sS'lib'
p15
(dp16
sS'unicodes'
p17
(tsS'width'
p18
F1107.9000000000001
sS'contours'
p19
(tsS'components'
p20
(tsS'anchors'
p21
(tsss."
LayerCount: 2
Fore
SplineSet
735 799 m 1
 616 1083 l 1
 439 814 l 1
 365 852 l 1
 559 1099 l 1
 307 1165 l 1
 333 1260 l 1
 587 1146 l 1
 596 1460 l 1
 680 1460 l 1
 649 1146 l 1
 883 1260 l 1
 921 1165 l 1
 672 1099 l 1
 823 834 l 1
 735 799 l 1
EndSplineSet
EndChar

StartChar: at
Encoding: 64 64 193
Width: 1707
VWidth: 0
Flags: HW
PickledData: "(dp1
S'org.robofab.postScriptHintData'
p2
(dp3
sS'com.typemytype.robofont.layerData'
p4
(dp5
S'b'
(dp6
S'name'
p7
S'at'
p8
sS'lib'
p9
(dp10
sS'unicodes'
p11
(tsS'width'
p12
F1771.2
sS'contours'
p13
(tsS'components'
p14
(tsS'anchors'
p15
(tsss."
LayerCount: 2
Fore
SplineSet
1129 878 m 0
 1129 1011 1063 1081 943 1081 c 0
 738 1081 584 887 550 614 c 0
 548 595 547 577 547 560 c 0
 547 427 640 345 727 345 c 3
 914 345 1067 519 1120 789 c 0
 1126 821 1129 851 1129 878 c 0
954 1149 m 0
 1095 1149 1180 1071 1180 943 c 0
 1180 936 1179 930 1179 923 c 1
 1248 1108 l 1
 1321 1108 l 1
 1117 556 l 2
 1090 482 1073 439 1073 397 c 0
 1073 355 1105 330 1158 330 c 0
 1342 330 1489 522 1524 806 c 0
 1528 837 1530 866 1530 895 c 0
 1530 1203 1318 1405 973 1405 c 0
 554 1405 248 1103 196 681 c 0
 191 643 189 606 189 571 c 0
 189 214 425 0 813 0 c 0
 1046 0 1262 83 1364 202 c 1
 1416 166 l 1
 1318 22 1080 -66 805 -66 c 0
 367 -66 100 166 100 563 c 0
 100 601 102 640 107 681 c 0
 165 1152 508 1471 981 1471 c 0
 1374 1471 1604 1257 1604 911 c 0
 1604 877 1601 842 1597 806 c 0
 1555 469 1350 276 1146 276 c 0
 1073 276 1018 315 1018 393 c 0
 1018 416 1023 441 1033 470 c 1
 972 356 851 280 715 280 c 0
 559 280 466 383 466 548 c 0
 466 567 467 588 470 609 c 0
 509 926 698 1149 954 1149 c 0
EndSplineSet
EndChar

StartChar: b
Encoding: 98 98 195
Width: 1259
VWidth: 0
Flags: HW
PickledData: "(dp1
S'org.robofab.postScriptHintData'
p2
(dp3
sS'com.typemytype.robofont.layerData'
p4
(dp5
S'b'
(dp6
S'name'
p7
S'b'
sS'lib'
p8
(dp9
sS'unicodes'
p10
(tsS'width'
p11
F1270.0999999999999
sS'contours'
p12
(tsS'components'
p13
(tsS'anchors'
p14
(tsss."
LayerCount: 2
Fore
SplineSet
723 970 m 0
 458 970 261 758 261 437 c 0
 261 206 392 61 612 61 c 0
 868 61 1040 287 1040 613 c 0
 1040 833 929 970 723 970 c 0
1138 617 m 0
 1138 235 906 -21 602 -21 c 0
 414 -21 268 81 231 239 c 1
 196 0 l 1
 97 0 l 1
 97 2 124 162 137 268 c 2
 290 1516 l 1
 388 1516 l 1
 300 799 l 1
 382 953 552 1052 733 1052 c 0
 986 1052 1138 885 1138 617 c 0
EndSplineSet
EndChar

StartChar: backslash
Encoding: 92 92 196
Width: 791
VWidth: 0
Flags: HW
PickledData: "(dp1
S'org.robofab.postScriptHintData'
p2
(dp3
s."
LayerCount: 2
Fore
SplineSet
489 66 m 1
 223 1456 l 1
 319 1456 l 1
 585 66 l 1
 489 66 l 1
EndSplineSet
EndChar

StartChar: bar
Encoding: 124 124 197
Width: 1685
VWidth: 0
Flags: HW
PickledData: "(dp1
S'org.robofab.postScriptHintData'
p2
(dp3
s."
LayerCount: 2
Fore
SplineSet
666 -517 m 1
 922 1572 l 1
 1019 1572 l 1
 763 -517 l 1
 666 -517 l 1
EndSplineSet
EndChar

StartChar: braceleft
Encoding: 123 123 199
Width: 908
VWidth: 0
Flags: HW
PickledData: "(dp1
S'org.robofab.postScriptHintData'
p2
(dp3
s."
LayerCount: 2
Fore
SplineSet
536 1159 m 2
 501 870 l 2
 479 696 411 592 284 555 c 1
 383 525 429 448 429 323 c 0
 429 298 427 270 423 241 c 2
 388 -48 l 2
 385 -69 383 -88 383 -105 c 0
 383 -173 420 -213 626 -213 c 0
 634 -213 642 -213 650 -213 c 1
 640 -290 l 1
 338 -290 286 -213 286 -116 c 0
 286 -94 289 -71 292 -48 c 2
 327 241 l 2
 331 272 333 300 333 326 c 0
 333 447 282 512 99 535 c 1
 105 576 l 1
 333 604 383 693 405 870 c 2
 440 1159 l 2
 456 1286 478 1401 848 1401 c 1
 838 1324 l 1
 830 1324 822 1324 814 1324 c 0
 557 1324 549 1261 536 1159 c 2
EndSplineSet
EndChar

StartChar: braceright
Encoding: 125 125 200
Width: 846
VWidth: 0
Flags: HW
PickledData: "(dp1
S'org.robofab.postScriptHintData'
p2
(dp3
s."
LayerCount: 2
Fore
SplineSet
1 -290 m 1
 11 -213 l 1
 19 -213 27 -213 35 -213 c 0
 292 -213 300 -150 313 -48 c 2
 348 241 l 2
 370 415 438 519 565 555 c 1
 466 586 420 663 420 788 c 0
 420 813 422 841 426 870 c 2
 461 1159 l 2
 464 1180 466 1199 466 1216 c 0
 466 1284 429 1324 223 1324 c 0
 215 1324 207 1324 199 1324 c 1
 209 1401 l 1
 511 1401 563 1324 563 1227 c 0
 563 1205 560 1182 557 1159 c 2
 522 870 l 2
 518 839 516 811 516 785 c 0
 516 664 567 599 750 576 c 1
 744 535 l 1
 516 507 466 418 444 241 c 2
 409 -48 l 2
 393 -175 371 -290 1 -290 c 1
EndSplineSet
EndChar

StartChar: bracketleft
Encoding: 91 91 201
Width: 715
VWidth: 0
Flags: HW
PickledData: "(dp1
S'org.robofab.postScriptHintData'
p2
(dp3
s."
LayerCount: 2
Fore
SplineSet
105 -322 m 1
 319 1423 l 1
 715 1423 l 1
 706 1349 l 1
 407 1349 l 1
 211 -248 l 1
 511 -248 l 1
 502 -322 l 1
 105 -322 l 1
EndSplineSet
EndChar

StartChar: bracketright
Encoding: 93 93 202
Width: 715
VWidth: 0
Flags: HW
PickledData: "(dp1
S'org.robofab.postScriptHintData'
p2
(dp3
s."
LayerCount: 2
Fore
SplineSet
67 -322 m 1
 76 -248 l 1
 380 -248 l 1
 576 1349 l 1
 270 1349 l 1
 279 1423 l 1
 681 1423 l 1
 467 -322 l 1
 67 -322 l 1
EndSplineSet
EndChar

StartChar: breve
Encoding: 728 728 203
Width: 503
VWidth: 0
Flags: HW
PickledData: "(dp1
S'org.robofab.postScriptHintData'
p2
(dp3
sS'com.typemytype.robofont.layerData'
p4
(dp5
S'b'
(dp6
S'name'
p7
S'breve'
p8
sS'lib'
p9
(dp10
sS'unicodes'
p11
(tsS'width'
p12
F621.60000000000002
sS'contours'
p13
(tsS'components'
p14
(tsS'anchors'
p15
(tsss."
LayerCount: 2
Fore
SplineSet
240 1162 m 0
 100 1162 47 1227 47 1358 c 0
 47 1364 47 1370 47 1376 c 1
 122 1376 l 1
 121 1368 121 1361 121 1354 c 0
 121 1279 156 1238 249 1238 c 0
 352 1238 385 1297 409 1376 c 1
 482 1376 l 1
 455 1239 372 1162 240 1162 c 0
EndSplineSet
EndChar

StartChar: brokenbar
Encoding: 166 166 204
Width: 500
VWidth: 0
Flags: HW
PickledData: "(dp1
S'org.robofab.postScriptHintData'
p2
(dp3
s."
LayerCount: 2
Fore
SplineSet
237 756 m 1
 337 1572 l 1
 433 1572 l 1
 333 756 l 1
 237 756 l 1
80 -517 m 1
 190 377 l 1
 285 377 l 1
 175 -517 l 1
 80 -517 l 1
EndSplineSet
EndChar

StartChar: bullet
Encoding: 8226 8226 205
Width: 991
VWidth: 0
Flags: HW
PickledData: "(dp1
S'org.robofab.postScriptHintData'
p2
(dp3
sS'com.typemytype.robofont.layerData'
p4
(dp5
S'b'
(dp6
S'name'
p7
S'bullet'
p8
sS'lib'
p9
(dp10
sS'unicodes'
p11
(tsS'width'
p12
F989.64999999999998
sS'contours'
p13
(tsS'components'
p14
(tsS'anchors'
p15
(tsss."
LayerCount: 2
Fore
SplineSet
806 739 m 0
 806 545 641 404 456 404 c 0
 296 404 183 519 183 666 c 0
 183 859 348 1010 530 1010 c 0
 689 1010 806 888 806 739 c 0
EndSplineSet
EndChar

StartChar: c
Encoding: 99 99 207
Width: 1022
VWidth: 0
Flags: HW
PickledData: "(dp1
S'org.robofab.postScriptHintData'
p2
(dp3
sS'com.typemytype.robofont.layerData'
p4
(dp5
S'b'
(dp6
S'name'
p7
S'c'
sS'lib'
p8
(dp9
sS'unicodes'
p10
(tsS'width'
p11
F1035.55
sS'contours'
p12
((dp13
S'points'
p14
((dp15
S'segmentType'
p16
S'curve'
p17
sS'x'
F605
sS'smooth'
p18
I01
sS'y'
F-22
s(dp19
S'y'
F-22
sS'x'
F302
sg18
I00
s(dp20
S'y'
F180
sS'x'
F98
sg18
I00
s(dp21
g16
S'curve'
p22
sS'x'
F98
sg18
I01
sS'y'
F503
s(dp23
S'y'
F840
sS'x'
F98
sg18
I00
s(dp24
S'y'
F1052
sS'x'
F301
sg18
I00
s(dp25
g16
S'curve'
p26
sS'x'
F624
sg18
I01
sS'y'
F1052
s(dp27
S'y'
F1052
sS'x'
F750
sg18
I00
s(dp28
S'y'
F1001
sS'x'
F871
sg18
I00
s(dp29
g16
S'curve'
p30
sS'x'
F938
sg18
I00
sS'y'
F922
s(dp31
g16
S'line'
p32
sS'x'
F890
sg18
I00
sS'y'
F805
s(dp33
S'y'
F874
sS'x'
F825
sg18
I00
s(dp34
S'y'
F918
sS'x'
F721
sg18
I00
s(dp35
g16
S'curve'
p36
sS'x'
F619
sg18
I01
sS'y'
F918
s(dp37
S'y'
F918
sS'x'
F406
sg18
I00
s(dp38
S'y'
F756
sS'x'
F268
sg18
I00
s(dp39
g16
S'curve'
p40
sS'x'
F268
sg18
I01
sS'y'
F505
s(dp41
S'y'
F260
sS'x'
F268
sg18
I00
s(dp42
S'y'
F112
sS'x'
F407
sg18
I00
s(dp43
g16
S'curve'
p44
sS'x'
F611
sg18
I01
sS'y'
F112
s(dp45
S'y'
F112
sS'x'
F716
sg18
I00
s(dp46
S'y'
F145
sS'x'
F827
sg18
I00
s(dp47
g16
S'curve'
p48
sS'x'
F901
sg18
I00
sS'y'
F202
s(dp49
g16
S'line'
p50
sS'x'
F953
sg18
I00
sS'y'
F87
s(dp51
S'y'
F19
sS'x'
F873
sg18
I00
s(dp52
S'y'
F-22
sS'x'
F747
sg18
I00
stp53
stp54
sS'components'
p55
(tsS'anchors'
p56
(tsss."
LayerCount: 2
Fore
SplineSet
546 -21 m 0
 261 -21 89 148 89 417 c 0
 89 444 90 473 94 502 c 0
 135 837 368 1052 688 1052 c 0
 807 1052 924 1013 987 952 c 1
 945 880 l 1
 887 937 793 970 678 970 c 0
 419 970 229 787 194 502 c 0
 191 476 189 452 189 428 c 0
 189 203 327 61 556 61 c 0
 686 61 796 102 887 167 c 1
 913 100 l 1
 829 26 686 -21 546 -21 c 0
EndSplineSet
EndChar

StartChar: caron
Encoding: 711 711 209
Width: 699
VWidth: 0
Flags: HW
PickledData: "(dp1
S'org.robofab.postScriptHintData'
p2
(dp3
s."
LayerCount: 2
Fore
SplineSet
271 1215 m 1
 93 1483 l 1
 171 1483 l 1
 330 1262 l 1
 551 1483 l 1
 638 1483 l 1
 396 1215 l 1
 271 1215 l 1
EndSplineSet
EndChar

StartChar: caron.alt
Encoding: 65537 -1 210
Width: 600
VWidth: 0
Flags: HW
PickledData: "(dp1
S'org.robofab.postScriptHintData'
p2
(dp3
s."
AnchorPoint: "caron.alt" 46 1026 mark 0
LayerCount: 2
Fore
SplineSet
300 1082 m 1
 457 1515 l 1
 574 1515 l 1
 370 1082 l 1
 300 1082 l 1
EndSplineSet
EndChar

StartChar: cedilla
Encoding: 184 184 215
Width: 529
VWidth: 0
Flags: HW
PickledData: "(dp1
S'org.robofab.postScriptHintData'
p2
(dp3
sS'com.typemytype.robofont.layerData'
p4
(dp5
S'b'
(dp6
S'name'
p7
S'cedilla'
p8
sS'lib'
p9
(dp10
sS'unicodes'
p11
(tsS'width'
p12
I529
sS'contours'
p13
(tsS'components'
p14
(tsS'anchors'
p15
(tsss."
LayerCount: 2
Fore
SplineSet
431 -245 m 0
 431 -364 316 -389 233 -389 c 0
 151 -389 79 -356 67 -350 c 1
 86 -292 l 1
 111 -305 180 -321 234 -321 c 0
 314 -321 341 -297 341 -248 c 0
 341 -200 266 -189 173 -189 c 2
 167 -189 l 1
 225 5 l 1
 284 5 l 1
 243 -139 l 1
 319 -142 431 -152 431 -245 c 0
EndSplineSet
EndChar

StartChar: cent
Encoding: 162 162 216
Width: 969
VWidth: 0
Flags: HW
PickledData: "(dp1
S'org.robofab.postScriptHintData'
p2
(dp3
sS'com.typemytype.robofont.layerData'
p4
(dp5
S'b'
(dp6
S'name'
p7
S'cent'
p8
sS'lib'
p9
(dp10
sS'unicodes'
p11
(tsS'width'
p12
F1033.2
sS'contours'
p13
(tsS'components'
p14
(tsS'anchors'
p15
(tsss."
LayerCount: 2
Fore
SplineSet
567 -21 m 1
 548 -178 l 1
 473 -178 l 1
 493 -19 l 1
 240 1 89 165 89 417 c 0
 89 444 90 473 94 502 c 0
 132 814 337 1022 624 1049 c 1
 649 1254 l 1
 724 1254 l 1
 699 1052 l 1
 814 1050 926 1011 987 952 c 1
 945 880 l 1
 889 935 799 968 689 970 c 1
 577 61 l 1
 698 65 801 106 887 167 c 1
 913 100 l 1
 833 30 700 -17 567 -21 c 1
503 64 m 1
 614 966 l 1
 388 938 226 763 194 502 c 0
 191 476 189 452 189 428 c 0
 189 221 306 85 503 64 c 1
EndSplineSet
EndChar

StartChar: circumflex
Encoding: 710 710 217
Width: 699
VWidth: 0
Flags: HW
PickledData: "(dp1
S'org.robofab.postScriptHintData'
p2
(dp3
sS'com.typemytype.robofont.layerData'
p4
(dp5
S'b'
(dp6
S'name'
p7
S'circumflex'
p8
sS'lib'
p9
(dp10
sS'unicodes'
p11
(tsS'width'
p12
I699
sS'contours'
p13
(tsS'components'
p14
(tsS'anchors'
p15
(tsss."
LayerCount: 2
Fore
SplineSet
99 1215 m 1
 339 1487 l 1
 396 1487 l 1
 563 1215 l 1
 507 1215 l 1
 350 1400 l 1
 149 1215 l 1
 99 1215 l 1
EndSplineSet
EndChar

StartChar: colon
Encoding: 58 58 218
Width: 476
VWidth: 0
Flags: HW
PickledData: "(dp1
S'org.robofab.postScriptHintData'
p2
(dp3
sS'com.typemytype.robofont.layerData'
p4
(dp5
S'b'
(dp6
S'name'
p7
S'colon'
p8
sS'lib'
p9
(dp10
sS'unicodes'
p11
(tsS'width'
p12
F544.60000000000002
sS'contours'
p13
(tsS'components'
p14
(tsS'anchors'
p15
(tsss."
LayerCount: 2
Fore
SplineSet
203 857 m 1
 223 1024 l 1
 377 1024 l 1
 357 857 l 1
 203 857 l 1
99 7 m 1
 119 175 l 1
 273 175 l 1
 253 7 l 1
 99 7 l 1
EndSplineSet
EndChar

StartChar: comma
Encoding: 44 44 219
Width: 410
VWidth: 0
Flags: HW
PickledData: "(dp1
S'org.robofab.postScriptHintData'
p2
(dp3
sS'com.typemytype.robofont.layerData'
p4
(dp5
S'b'
(dp6
S'name'
p7
S'comma'
p8
sS'lib'
p9
(dp10
sS'unicodes'
p11
(tsS'width'
p12
F491.10000000000002
sS'contours'
p13
(tsS'components'
p14
(tsS'anchors'
p15
(tsss."
LayerCount: 2
Fore
SplineSet
72 -256 m 1
 227 164 l 1
 345 164 l 1
 142 -256 l 1
 72 -256 l 1
EndSplineSet
EndChar

StartChar: copyright
Encoding: 169 169 220
Width: 1748
VWidth: 0
Flags: HW
PickledData: "(dp1
S'org.robofab.postScriptHintData'
p2
(dp3
sS'com.typemytype.robofont.layerData'
p4
(dp5
S'b'
(dp6
S'name'
p7
S'copyright'
p8
sS'lib'
p9
(dp10
sS'unicodes'
p11
(tsS'width'
p12
I1733
sS'contours'
p13
(tsS'components'
p14
(tsS'anchors'
p15
(tsss."
LayerCount: 2
Fore
SplineSet
779 -38 m 0
 392 -38 104 255 104 631 c 0
 104 662 106 692 110 724 c 0
 161 1143 548 1487 967 1487 c 0
 1356 1487 1644 1192 1644 816 c 0
 1644 786 1642 755 1638 724 c 0
 1586 304 1199 -38 779 -38 c 0
793 46 m 0
 1159 46 1496 354 1540 719 c 0
 1543 747 1545 774 1545 801 c 0
 1545 1131 1296 1393 958 1393 c 0
 590 1393 253 1086 208 719 c 0
 205 692 203 665 203 639 c 0
 203 310 452 46 793 46 c 0
466 631 m 0
 466 985 708 1185 966 1185 c 0
 1050 1185 1140 1155 1191 1100 c 1
 1156 1038 l 1
 1106 1084 1020 1108 949 1108 c 0
 814 1108 599 1031 560 716 c 0
 557 691 555 666 555 643 c 0
 555 456 645 342 834 342 c 3
 910 342 1018 354 1104 414 c 1
 1126 351 l 1
 1071 306 968 266 840 266 c 0
 617 266 466 386 466 631 c 0
EndSplineSet
EndChar

StartChar: currency
Encoding: 164 164 221
Width: 1218
VWidth: 0
Flags: HW
PickledData: "(dp1
S'org.robofab.postScriptHintData'
p2
(dp3
s."
LayerCount: 2
Fore
SplineSet
646 1335 m 1
 463 1335 303 1190 303 988 c 0
 303 834 409 714 569 714 c 0
 752 714 913 871 913 1073 c 0
 913 1225 805 1335 646 1335 c 1
1004 1076 m 0
 1004 953 955 860 882 783 c 1
 1045 598 l 1
 988 547 l 1
 825 733 l 1
 750 677 658 643 562 643 c 0
 466 643 382 677 321 734 c 1
 111 547 l 1
 66 598 l 1
 276 785 l 1
 237 840 215 907 215 981 c 0
 215 1107 268 1204 344 1280 c 1
 173 1475 l 1
 230 1526 l 1
 403 1330 l 1
 475 1382 564 1413 656 1413 c 0
 748 1413 828 1382 889 1331 c 1
 1108 1526 l 1
 1153 1475 l 1
 936 1282 l 1
 979 1225 1004 1155 1004 1076 c 0
EndSplineSet
EndChar

StartChar: d
Encoding: 100 100 222
Width: 1256
VWidth: 0
Flags: HW
PickledData: "(dp1
S'org.robofab.postScriptHintData'
p2
(dp3
sS'com.typemytype.robofont.layerData'
p4
(dp5
S'b'
(dp6
S'name'
p7
S'd'
sS'lib'
p8
(dp9
sS'unicodes'
p10
(tsS'width'
p11
F1265.05
sS'contours'
p12
(tsS'components'
p13
(tsS'anchors'
p14
(tsss."
AnchorPoint: "caron.alt" 945 1026 basechar 0
LayerCount: 2
Fore
SplineSet
587 970 m 0
 330 970 160 748 160 425 c 0
 160 201 270 61 476 61 c 0
 739 61 939 277 939 601 c 0
 939 828 807 970 587 970 c 0
62 421 m 0
 62 800 291 1052 597 1052 c 0
 778 1052 924 953 968 799 c 1
 1056 1516 l 1
 1154 1516 l 1
 1001 268 l 2
 988 162 975 2 975 0 c 1
 876 0 l 1
 901 239 l 1
 824 81 654 -21 466 -21 c 0
 213 -21 62 149 62 421 c 0
EndSplineSet
EndChar

StartChar: dagger
Encoding: 8224 8224 223
Width: 1022
VWidth: 0
Flags: HW
PickledData: "(dp1
S'org.robofab.postScriptHintData'
p2
(dp3
s."
LayerCount: 2
Fore
SplineSet
363 0 m 1
 484 989 l 1
 149 989 l 1
 159 1068 l 1
 494 1068 l 1
 543 1473 l 1
 651 1473 l 1
 602 1068 l 1
 937 1068 l 1
 927 989 l 1
 592 989 l 1
 471 0 l 1
 363 0 l 1
EndSplineSet
EndChar

StartChar: daggerdbl
Encoding: 8225 8225 224
Width: 971
VWidth: 0
Flags: HW
PickledData: "(dp1
S'org.robofab.postScriptHintData'
p2
(dp3
sS'com.typemytype.robofont.layerData'
p4
(dp5
S'b'
(dp6
S'name'
p7
S'daggerdbl'
p8
sS'lib'
p9
(dp10
sS'unicodes'
p11
(tsS'width'
p12
F1092.6500000000001
sS'contours'
p13
(tsS'components'
p14
(tsS'anchors'
p15
(tsss."
LayerCount: 2
Fore
SplineSet
130 1068 m 1
 465 1068 l 1
 514 1473 l 1
 622 1473 l 1
 573 1068 l 1
 908 1068 l 1
 898 989 l 1
 563 989 l 1
 501 484 l 1
 836 484 l 1
 826 405 l 1
 491 405 l 1
 442 0 l 1
 334 0 l 1
 383 405 l 1
 48 405 l 1
 58 484 l 1
 393 484 l 1
 455 989 l 1
 120 989 l 1
 130 1068 l 1
EndSplineSet
EndChar

StartChar: degree
Encoding: 176 176 228
Width: 812
VWidth: 0
Flags: HW
PickledData: "(dp1
S'org.robofab.postScriptHintData'
p2
(dp3
sS'com.typemytype.robofont.layerData'
p4
(dp5
S'b'
(dp6
S'name'
p7
S'degree'
p8
sS'lib'
p9
(dp10
sS'unicodes'
p11
(tsS'width'
p12
F856.60000000000002
sS'contours'
p13
(tsS'components'
p14
(tsS'anchors'
p15
(tsss."
LayerCount: 2
Fore
SplineSet
699 1182 m 0
 699 1003 551 859 371 859 c 0
 212 859 113 971 113 1109 c 0
 113 1289 258 1428 441 1428 c 0
 601 1428 699 1320 699 1182 c 0
431 1345 m 0
 293 1345 207 1240 207 1117 c 0
 207 1025 259 945 382 945 c 0
 525 945 603 1054 603 1177 c 0
 603 1268 548 1345 431 1345 c 0
EndSplineSet
EndChar

StartChar: dieresis
Encoding: 168 168 229
Width: 743
VWidth: 0
Flags: HW
PickledData: "(dp1
S'org.robofab.postScriptHintData'
p2
(dp3
s."
LayerCount: 2
Fore
SplineSet
485 1210 m 1
 499 1318 l 1
 598 1318 l 1
 584 1210 l 1
 485 1210 l 1
149 1210 m 1
 163 1318 l 1
 261 1318 l 1
 247 1210 l 1
 149 1210 l 1
EndSplineSet
EndChar

StartChar: divide
Encoding: 247 247 230
Width: 1006
VWidth: 0
Flags: HW
PickledData: "(dp1
S'org.robofab.postScriptHintData'
p2
(dp3
s."
LayerCount: 2
Fore
SplineSet
503 896 m 1
 523 1063 l 1
 678 1063 l 1
 658 896 l 1
 503 896 l 1
122 511 m 1
 134 602 l 1
 939 602 l 1
 927 511 l 1
 122 511 l 1
396 49 m 1
 416 215 l 1
 571 215 l 1
 550 49 l 1
 396 49 l 1
EndSplineSet
EndChar

StartChar: dollar
Encoding: 36 36 232
Width: 1143
VWidth: 0
Flags: HW
PickledData: "(dp1
S'org.robofab.postScriptHintData'
p2
(dp3
sS'com.typemytype.robofont.layerData'
p4
(dp5
S'b'
(dp6
S'name'
p7
S'dollar'
p8
sS'lib'
p9
(dp10
sS'unicodes'
p11
(tsS'width'
p12
F1200.0999999999999
sS'contours'
p13
(tsS'components'
p14
(tsS'anchors'
p15
(tsss."
LayerCount: 2
Fore
SplineSet
630 689 m 1
 554 67 l 1
 768 86 901 228 901 444 c 0
 901 574 831 633 630 689 c 1
642 787 m 1
 652 784 l 2
 923 712 1004 622 1004 465 c 0
 1004 182 830 0 543 -19 c 1
 522 -193 l 1
 447 -193 l 1
 468 -21 l 1
 206 -13 101 115 70 142 c 1
 130 216 l 1
 170 177 266 73 479 65 c 1
 557 709 l 1
 473 732 l 2
 278 785 171 865 171 1046 c 0
 171 1319 359 1475 652 1481 c 1
 669 1622 l 1
 744 1622 l 1
 727 1479 l 1
 953 1465 1028 1369 1048 1351 c 1
 992 1277 l 1
 967 1306 889 1380 716 1393 c 1
 642 787 l 1
569 806 m 1
 641 1395 l 1
 411 1388 278 1266 278 1046 c 0
 278 922 338 868 508 822 c 2
 569 806 l 1
EndSplineSet
EndChar

StartChar: dotaccent
Encoding: 729 729 233
Width: 524
VWidth: 0
Flags: HW
PickledData: "(dp1
S'org.robofab.postScriptHintData'
p2
(dp3
sS'com.typemytype.robofont.layerData'
p4
(dp5
S'b'
(dp6
S'name'
p7
S'dotaccent'
p8
sS'lib'
p9
(dp10
sS'unicodes'
p11
(tsS'width'
p12
F524
sS'contours'
p13
(tsS'components'
p14
(tsS'anchors'
p15
(tsss."
LayerCount: 2
Fore
SplineSet
193 1238 m 1
 209 1364 l 1
 331 1364 l 1
 315 1238 l 1
 193 1238 l 1
EndSplineSet
EndChar

StartChar: dotlessi
Encoding: 305 305 234
Width: 473
VWidth: 0
Flags: HW
PickledData: "(dp1
S'org.robofab.postScriptHintData'
p2
(dp3
s."
LayerCount: 2
Fore
SplineSet
124 0 m 1
 248 1026 l 1
 349 1026 l 1
 225 0 l 1
 124 0 l 1
EndSplineSet
EndChar

StartChar: dotlessj
Encoding: 567 567 235
Width: 503
VWidth: 0
Flags: HW
PickledData: "(dp1
S'org.robofab.postScriptHintData'
p2
(dp3
s."
LayerCount: 2
Fore
SplineSet
-167 -438 m 1
 -156 -362 l 1
 -134 -365 -113 -366 -94 -366 c 0
 88 -366 145 -239 175 10 c 2
 299 1026 l 1
 397 1026 l 1
 270 0 l 2
 242 -230 170 -444 -90 -444 c 0
 -114 -444 -140 -442 -167 -438 c 1
EndSplineSet
EndChar

StartChar: e
Encoding: 101 101 238
Width: 1133
VWidth: 0
Flags: HW
PickledData: "(dp1
S'org.robofab.postScriptHintData'
p2
(dp3
sS'com.typemytype.robofont.guides'
p4
(tsS'com.typemytype.robofont.layerData'
p5
(dp6
S'b'
(dp7
S'name'
p8
S'e'
sS'lib'
p9
(dp10
sS'unicodes'
p11
(tsS'width'
p12
F1169.75
sS'contours'
p13
(tsS'components'
p14
(tsS'anchors'
p15
(tsss."
LayerCount: 2
Fore
SplineSet
210 578 m 1
 971 578 l 1
 972 592 972 605 972 618 c 0
 972 834 849 970 648 970 c 0
 430 970 258 817 210 578 c 1
550 -21 m 0
 263 -21 90 150 90 423 c 0
 90 450 91 479 95 508 c 0
 136 839 356 1052 658 1052 c 0
 907 1052 1056 896 1056 648 c 0
 1056 621 1054 594 1051 565 c 2
 1044 507 l 1
 195 507 l 1
 191 479 189 452 189 426 c 0
 189 201 328 61 560 61 c 0
 689 61 821 106 920 177 c 1
 948 108 l 1
 843 29 688 -21 550 -21 c 0
EndSplineSet
EndChar

StartChar: eight
Encoding: 56 56 247
Width: 1178
VWidth: 0
Flags: HW
PickledData: "(dp1
S'org.robofab.postScriptHintData'
p2
(dp3
sS'com.typemytype.robofont.layerData'
p4
(dp5
S'b'
(dp6
S'name'
p7
S'eight'
p8
sS'lib'
p9
(dp10
sS'unicodes'
p11
(tsS'width'
p12
F1235.45
sS'contours'
p13
(tsS'components'
p14
(tsS'anchors'
p15
(tsss."
LayerCount: 2
Fore
SplineSet
672 1400 m 0
 495 1400 311 1287 311 1081 c 0
 311 934 413 854 600 822 c 1
 817 855 943 949 963 1116 c 0
 965 1129 965 1142 965 1155 c 0
 965 1316 833 1400 672 1400 c 0
580 697 m 1
 358 654 188 553 188 331 c 0
 188 161 322 71 507 71 c 0
 725 71 901 197 901 421 c 0
 901 587 775 660 580 697 c 1
1008 432 m 0
 1008 136 760 -23 494 -23 c 0
 284 -23 81 95 81 314 c 0
 81 329 82 345 84 361 c 0
 108 562 242 707 479 762 c 1
 302 804 211 916 211 1073 c 0
 211 1337 441 1483 683 1483 c 0
 881 1483 1066 1370 1066 1174 c 0
 1066 1160 1065 1146 1063 1132 c 0
 1041 949 914 817 707 765 c 1
 916 712 1008 600 1008 432 c 0
EndSplineSet
EndChar

StartChar: ellipsis
Encoding: 8230 8230 249
Width: 1620
VWidth: 0
Flags: HW
PickledData: "(dp1
S'org.robofab.postScriptHintData'
p2
(dp3
s."
LayerCount: 2
Fore
SplineSet
1291 -11 m 1
 1311 156 l 1
 1466 156 l 1
 1446 -11 l 1
 1291 -11 l 1
737 -11 m 1
 757 156 l 1
 910 156 l 1
 889 -11 l 1
 737 -11 l 1
182 -11 m 1
 202 156 l 1
 356 156 l 1
 335 -11 l 1
 182 -11 l 1
EndSplineSet
EndChar

StartChar: emdash
Encoding: 8212 8212 251
Width: 2171
VWidth: 0
Flags: HW
PickledData: "(dp1
S'org.robofab.postScriptHintData'
p2
(dp3
s."
LayerCount: 2
Fore
SplineSet
-47 515 m 1
 -37 604 l 1
 2188 604 l 1
 2178 515 l 1
 -47 515 l 1
EndSplineSet
EndChar

StartChar: endash
Encoding: 8211 8211 252
Width: 1067
VWidth: 0
Flags: HW
PickledData: "(dp1
S'org.robofab.postScriptHintData'
p2
(dp3
s."
LayerCount: 2
Fore
SplineSet
-18 515 m 1
 -8 604 l 1
 1070 604 l 1
 1060 515 l 1
 -18 515 l 1
EndSplineSet
EndChar

StartChar: eng
Encoding: 331 331 253
Width: 1295
VWidth: 0
Flags: HW
PickledData: "(dp1
S'org.robofab.postScriptHintData'
p2
(dp3
s."
LayerCount: 2
Fore
SplineSet
610 -390 m 0
 621 -306 l 0
 931 -306 946 -111 980 164 c 2
 1019 481 l 2
 1028 551 1034 617 1034 677 c 0
 1034 846 981 963 773 963 c 0
 493 963 353 724 347 678 c 2
 263 0 l 1
 161 0 l 1
 270 880 l 2
 274 918 291 1026 291 1026 c 1
 385 1026 l 1
 377 888 l 1
 487 997 605 1050 797 1050 c 0
 1074 1050 1139 881 1139 688 c 0
 1139 635 1134 579 1127 525 c 2
 1082 156 l 2
 1042 -169 997 -390 610 -390 c 0
EndSplineSet
EndChar

StartChar: equal
Encoding: 61 61 255
Width: 1040
VWidth: 0
Flags: HW
PickledData: "(dp1
S'org.robofab.postScriptHintData'
p2
(dp3
sS'com.typemytype.robofont.layerData'
p4
(dp5
S'b'
(dp6
S'name'
p7
S'equal'
p8
sS'lib'
p9
(dp10
sS'unicodes'
p11
(tsS'width'
p12
I1229
sS'contours'
p13
(tsS'components'
p14
(tsS'anchors'
p15
(tsss."
LayerCount: 2
Fore
SplineSet
127 705 m 1
 139 798 l 1
 959 798 l 1
 947 705 l 1
 127 705 l 1
83 333 m 1
 95 425 l 1
 913 425 l 1
 901 333 l 1
 83 333 l 1
EndSplineSet
EndChar

StartChar: estimated
Encoding: 8494 8494 256
Width: 1184
VWidth: 0
Flags: HW
PickledData: "(dp1
S'org.robofab.postScriptHintData'
p2
(dp3
s."
LayerCount: 2
Fore
SplineSet
283 713 m 1
 925 713 l 1
 930 756 933 795 933 831 c 0
 933 1063 824 1141 668 1141 c 0
 508 1141 325 1036 283 713 c 1
1037 819 m 0
 1037 769 1036 700 1019 655 c 1
 276 655 l 1
 270 611 268 571 268 534 c 0
 268 260 417 176 593 176 c 0
 695 176 850 218 985 299 c 1
 1006 247 l 1
 859 158 702 114 560 114 c 0
 305 114 138 259 138 547 c 0
 138 580 140 615 145 652 c 0
 194 1050 445 1199 678 1199 c 0
 886 1199 1037 1101 1037 819 c 0
EndSplineSet
EndChar

StartChar: eth
Encoding: 240 240 257
Width: 1231
VWidth: 0
Flags: HW
PickledData: "(dp1
S'org.robofab.postScriptHintData'
p2
(dp3
sS'com.typemytype.robofont.layerData'
p4
(dp5
S'b'
(dp6
S'name'
p7
S'eth'
p8
sS'lib'
p9
(dp10
sS'unicodes'
p11
(tsS'width'
p12
F1222.55
sS'contours'
p13
(tsS'components'
p14
(tsS'anchors'
p15
(tsss."
LayerCount: 2
Fore
SplineSet
533 60 m 0
 776 60 927 227 959 485 c 0
 961 498 961 511 961 524 c 0
 961 694 822 809 608 809 c 0
 368 809 212 661 184 431 c 0
 181 411 180 391 180 372 c 0
 180 180 308 60 533 60 c 0
523 -22 m 0
 242 -22 80 126 80 362 c 0
 80 384 81 407 84 431 c 0
 119 711 317 891 618 891 c 0
 837 891 957 778 1003 676 c 1
 1005 703 1006 729 1006 755 c 0
 1006 976 934 1150 752 1287 c 1
 576 1163 l 1
 534 1230 l 1
 682 1334 l 1
 598 1386 496 1431 373 1472 c 1
 425 1549 l 1
 554 1509 668 1458 766 1393 c 1
 947 1520 l 1
 991 1455 l 1
 833 1344 l 1
 992 1213 1089 1029 1089 761 c 0
 1089 711 1086 659 1079 603 c 0
 1031 211 839 -22 523 -22 c 0
EndSplineSet
EndChar

StartChar: exclam
Encoding: 33 33 259
Width: 442
VWidth: 0
Flags: HW
PickledData: "(dp1
S'org.robofab.postScriptHintData'
p2
(dp3
sS'com.typemytype.robofont.layerData'
p4
(dp5
S'b'
(dp6
S'name'
p7
S'exclam'
p8
sS'lib'
p9
(dp10
sS'unicodes'
p11
(tsS'width'
p12
F590
sS'contours'
p13
(tsS'components'
p14
(tsS'anchors'
p15
(tsss."
LayerCount: 2
Fore
SplineSet
151 363 m 1
 253 1456 l 1
 373 1456 l 1
 207 363 l 1
 151 363 l 1
54 0 m 1
 73 160 l 1
 230 160 l 1
 211 0 l 1
 54 0 l 1
EndSplineSet
EndChar

StartChar: exclamdown
Encoding: 161 161 260
Width: 391
VWidth: 0
Flags: HW
PickledData: "(dp1
S'org.robofab.postScriptHintData'
p2
(dp3
sS'com.typemytype.robofont.layerData'
p4
(dp5
S'b'
(dp6
S'name'
p7
S'exclamdown'
p8
sS'lib'
p9
(dp10
sS'unicodes'
p11
(tsS'width'
p12
F614.5
sS'contours'
p13
(tsS'components'
p14
(tsS'anchors'
p15
(tsss."
LayerCount: 2
Fore
SplineSet
207.004882812 741 m 1
 263.004882812 741 l 1
 156.489257812 -352 l 1
 36.4892578125 -352 l 1
 207.004882812 741 l 1
200.510742188 1104 m 1
 357.510742188 1104 l 1
 336.618164062 944 l 1
 179.618164062 944 l 1
 200.510742188 1104 l 1
EndSplineSet
EndChar

StartChar: f
Encoding: 102 102 261
Width: 604
VWidth: 0
Flags: HW
PickledData: "(dp1
S'org.robofab.postScriptHintData'
p2
(dp3
sS'com.typemytype.robofont.layerData'
p4
(dp5
S'b'
(dp6
S'name'
p7
S'f'
sS'lib'
p8
(dp9
sS'unicodes'
p10
(tsS'width'
p11
F733.10000000000002
sS'contours'
p12
(tsS'components'
p13
(tsS'anchors'
p14
(tsss."
LayerCount: 2
Fore
SplineSet
150 0 m 1
 268 961 l 1
 94 961 l 1
 102 1026 l 1
 276 1026 l 1
 295 1184 l 1
 323 1406 387 1499 673 1499 c 2
 708 1499 l 1
 698 1416 l 1
 430 1416 415 1362 396 1209 c 2
 374 1026 l 1
 637 1026 l 1
 629 961 l 1
 366 961 l 1
 248 0 l 1
 150 0 l 1
EndSplineSet
EndChar

StartChar: f_f
Encoding: 64256 64256 262
Width: 1205
VWidth: 0
Flags: HW
PickledData: "(dp1
S'org.robofab.postScriptHintData'
p2
(dp3
s."
LayerCount: 2
Fore
SplineSet
966 961 m 1
 848 0 l 1
 750 0 l 1
 868 961 l 1
 364 961 l 1
 246 0 l 1
 148 0 l 1
 266 961 l 1
 92 961 l 1
 100 1026 l 1
 274 1026 l 1
 292 1172 l 2
 319 1394 385 1499 671 1499 c 2
 712 1499 l 1
 709 1416 l 1
 438 1416 411 1342 394 1209 c 1
 372 1026 l 1
 876 1026 l 1
 894 1172 l 2
 921 1394 987 1499 1273 1499 c 2
 1314 1499 l 1
 1311 1416 l 1
 1040 1416 1013 1342 996 1209 c 1
 974 1026 l 1
 1237 1026 l 1
 1229 961 l 1
 966 961 l 1
EndSplineSet
EndChar

StartChar: f_f_i
Encoding: 64259 64259 263
Width: 1696
VWidth: 0
Flags: HW
PickledData: "(dp1
S'org.robofab.postScriptHintData'
p2
(dp3
s."
LayerCount: 2
Fore
SplineSet
1567 1346 m 1
 1469 1346 l 1
 1483 1456 l 1
 1581 1456 l 1
 1567 1346 l 1
1402 0 m 1
 1304 0 l 1
 1422 961 l 1
 966 961 l 1
 848 0 l 1
 750 0 l 1
 868 961 l 1
 364 961 l 1
 246 0 l 1
 148 0 l 1
 266 961 l 1
 92 961 l 1
 100 1026 l 1
 274 1026 l 1
 292 1172 l 2
 319 1394 385 1499 671 1499 c 2
 712 1499 l 1
 709 1416 l 1
 438 1416 411 1342 394 1209 c 1
 372 1026 l 1
 876 1026 l 1
 894 1172 l 2
 921 1394 987 1499 1273 1499 c 2
 1314 1499 l 1
 1311 1416 l 1
 1040 1416 1013 1342 996 1209 c 1
 974 1026 l 1
 1528 1026 l 1
 1402 0 l 1
EndSplineSet
EndChar

StartChar: f_f_l
Encoding: 64260 64260 264
Width: 1714
VWidth: 0
Flags: HW
PickledData: "(dp1
S'org.robofab.postScriptHintData'
p2
(dp3
s."
LayerCount: 2
Fore
SplineSet
148 0 m 1
 266 961 l 1
 92 961 l 1
 100 1026 l 1
 274 1026 l 1
 292 1172 l 2
 319 1394 385 1499 671 1499 c 2
 712 1499 l 1
 709 1416 l 1
 438 1416 411 1342 394 1209 c 1
 372 1026 l 1
 635 1026 l 1
 627 961 l 1
 364 961 l 1
 246 0 l 1
 148 0 l 1
EndSplineSet
Refer: 269 64258 N 1 0 0 1 505 0 2
EndChar

StartChar: fi
Encoding: 64257 64257 266
Width: 1174
VWidth: 0
Flags: HW
PickledData: "(dp1
S'org.robofab.postScriptHintData'
p2
(dp3
sS'com.typemytype.robofont.layerData'
p4
(dp5
S'b'
(dp6
S'name'
p7
S'fi'
p8
sS'lib'
p9
(dp10
sS'unicodes'
p11
(tsS'width'
p12
F1237.6500000000001
sS'contours'
p13
((dp14
S'points'
p15
((dp16
S'segmentType'
p17
S'line'
p18
sS'x'
F249
sS'smooth'
p19
I00
sS'y'
F0
s(dp20
g17
S'line'
p21
sS'x'
F249
sg19
I00
sS'y'
F919
s(dp22
g17
S'line'
p23
sS'x'
F68
sg19
I00
sS'y'
F919
s(dp24
g17
S'line'
p25
sS'x'
F68
sg19
I00
sS'y'
F1026
s(dp26
g17
S'line'
p27
sS'x'
F249
sg19
I00
sS'y'
F1026
s(dp28
g17
S'line'
p29
sS'x'
F249
sg19
I01
sS'y'
F1127
s(dp30
S'y'
F1378
sS'x'
F249
sg19
I00
s(dp31
S'y'
F1492
sS'x'
F295
sg19
I00
s(dp32
g17
S'curve'
p33
sS'x'
F630
sg19
I01
sS'y'
F1492
s(dp34
g17
S'line'
p35
sS'x'
F676
sg19
I00
sS'y'
F1492
s(dp36
g17
S'line'
p37
sS'x'
F676
sg19
I00
sS'y'
F1364
s(dp38
S'y'
F1364
sS'x'
F431
sg19
I00
s(dp39
S'y'
F1311
sS'x'
F413
sg19
I00
s(dp40
g17
S'curve'
p41
sS'x'
F413
sg19
I01
sS'y'
F1150
s(dp42
g17
S'line'
p43
sS'x'
F413
sg19
I00
sS'y'
F1026
s(dp44
g17
S'line'
p45
sS'x'
F662
sg19
I00
sS'y'
F1026
s(dp46
g17
S'line'
p47
sS'x'
F662
sg19
I00
sS'y'
F919
s(dp48
g17
S'line'
p49
sS'x'
F413
sg19
I00
sS'y'
F919
s(dp50
g17
S'line'
p51
sS'x'
F413
sg19
I00
sS'y'
F0
stp52
s(dp53
g15
((dp54
g17
S'line'
p55
sS'x'
F869
sg19
I00
sS'y'
F0
s(dp56
g17
S'line'
p57
sS'x'
F869
sg19
I00
sS'y'
F1026
s(dp58
g17
S'line'
p59
sS'x'
F1033
sg19
I00
sS'y'
F1026
s(dp60
g17
S'line'
p61
sS'x'
F1033
sg19
I00
sS'y'
F0
stp62
s(dp63
g15
((dp64
g17
S'line'
p65
sS'x'
F869
sg19
I00
sS'y'
F1307
s(dp66
g17
S'line'
p67
sS'x'
F869
sg19
I00
sS'y'
F1462
s(dp68
g17
S'line'
p69
sS'x'
F1033
sg19
I00
sS'y'
F1462
s(dp70
g17
S'line'
p71
sS'x'
F1033
sg19
I00
sS'y'
F1307
stp72
stp73
sS'components'
p74
(tsS'anchors'
p75
(tsss."
LayerCount: 2
Fore
SplineSet
150 0 m 1
 267 954 l 1
 92 954 l 1
 101 1026 l 1
 276 1026 l 1
 293 1164 l 2
 321 1391 388 1497 682 1497 c 2
 724 1497 l 1
 719 1407 l 1
 452 1407 426 1336 409 1198 c 2
 388 1026 l 1
 939 1026 l 1
 930 954 l 1
 379 954 l 1
 262 0 l 1
 150 0 l 1
EndSplineSet
Refer: 295 105 N 1 0 0 1 662 0 2
EndChar

StartChar: five
Encoding: 53 53 267
Width: 1177
VWidth: 0
Flags: HW
PickledData: "(dp1
S'org.robofab.postScriptHintData'
p2
(dp3
s."
LayerCount: 2
Fore
SplineSet
1027 515 m 0
 1027 158 742 -22 466 -22 c 0
 328 -22 188 21 77 109 c 1
 123 187 l 1
 234 104 363 60 486 60 c 0
 694 60 881 184 913 449 c 0
 915 469 917 489 917 507 c 0
 917 692 796 807 598 807 c 0
 468 807 341 748 273 656 c 1
 193 673 l 1
 309 1456 l 1
 1042 1456 l 1
 1031 1367 l 1
 395 1367 l 1
 294 771 l 1
 367 845 491 893 609 893 c 0
 869 893 1027 747 1027 515 c 0
EndSplineSet
EndChar

StartChar: fl
Encoding: 64258 64258 269
Width: 1229
VWidth: 0
Flags: HW
PickledData: "(dp1
S'org.robofab.postScriptHintData'
p2
(dp3
sS'com.typemytype.robofont.layerData'
p4
(dp5
S'b'
(dp6
S'name'
p7
S'fl'
p8
sS'lib'
p9
(dp10
sS'unicodes'
p11
(tsS'width'
p12
F1252.7
sS'contours'
p13
(tsS'components'
p14
((dp15
S'transformation'
p16
(I1
I0
I0
I1
I20
I0
tp17
sS'baseGlyph'
p18
S'f'
s(dp19
g16
(I1
I0
I0
I1
I714
I0
tp20
sg18
S'l'
stp21
sS'anchors'
p22
(tsss."
LayerCount: 2
Fore
SplineSet
186 0 m 1
 304 961 l 1
 95 961 l 1
 103 1026 l 1
 312 1026 l 1
 328 1155 l 2
 356 1388 466 1468 875 1468 c 2
 1117 1468 l 1
 937 0 l 1
 824 0 l 1
 997 1390 l 1
 836 1390 l 2
 528 1390 461 1332 440 1161 c 2
 424 1026 l 1
 684 1026 l 1
 676 961 l 1
 416 961 l 1
 298 0 l 1
 186 0 l 1
EndSplineSet
EndChar

StartChar: florin
Encoding: 402 402 270
Width: 1016
VWidth: 0
Flags: HW
PickledData: "(dp1
S'org.robofab.postScriptHintData'
p2
(dp3
sS'com.typemytype.robofont.layerData'
p4
(dp5
S'b'
(dp6
S'name'
p7
S'florin'
p8
sS'lib'
p9
(dp10
sS'unicodes'
p11
(tsS'width'
p12
F1073.0999999999999
sS'contours'
p13
(tsS'components'
p14
(tsS'anchors'
p15
(tsss."
LayerCount: 2
Fore
SplineSet
88 -277 m 0
 41 -277 23 -271 -10 -263 c 1
 10 -172 l 1
 10 -172 52 -185 74 -185 c 0
 208 -185 265 -92 284 -34 c 1
 607 1034 l 1
 434 1034 l 1
 447 1113 l 1
 629 1113 l 1
 639 1151 l 1
 691 1360 784 1492 987 1492 c 0
 1018 1492 1102 1473 1102 1473 c 1
 1076 1382 l 1
 1076 1382 1030 1401 979 1401 c 0
 813 1401 784 1316 761 1237 c 1
 717 1113 l 1
 961 1113 l 1
 935 1034 l 1
 702 1034 l 1
 434 137 l 2
 372 -73 358 -277 88 -277 c 0
EndSplineSet
EndChar

StartChar: four
Encoding: 52 52 272
Width: 1177
VWidth: 0
Flags: HW
PickledData: "(dp1
S'org.robofab.postScriptHintData'
p2
(dp3
sS'com.typemytype.robofont.layerData'
p4
(dp5
S'b'
(dp6
S'name'
p7
S'four'
p8
sS'lib'
p9
(dp10
sS'unicodes'
p11
(tsS'width'
p12
F1234.0999999999999
sS'contours'
p13
(tsS'components'
p14
(tsS'anchors'
p15
(tsss."
LayerCount: 2
Fore
SplineSet
191 485 m 1
 735 485 l 1
 846 1387 l 1
 629 1085 410 785 191 485 c 1
678 0 m 1
 726 391 l 1
 60 391 l 1
 70 475 l 1
 789 1456 l 1
 970 1456 l 1
 851 485 l 1
 1053 485 l 1
 1042 391 l 1
 836 391 l 1
 788 0 l 1
 678 0 l 1
EndSplineSet
EndChar

StartChar: foursuperior
Encoding: 8308 8308 273
Width: 897
VWidth: 0
Flags: HW
PickledData: "(dp1
S'org.robofab.postScriptHintData'
p2
(dp3
s."
LayerCount: 2
Fore
SplineSet
206 926 m 1
 513 926 l 1
 567 1367 l 1
 206 926 l 1
484 670 m 1
 506 854 l 1
 111 854 l 1
 120 923 l 1
 559 1456 l 1
 658 1456 l 1
 593 926 l 1
 676 926 l 1
 666 854 l 1
 580 854 l 1
 558 670 l 1
 484 670 l 1
EndSplineSet
EndChar

StartChar: fraction
Encoding: 8260 8260 274
Width: 994
VWidth: 0
Flags: HW
PickledData: "(dp1
S'org.robofab.postScriptHintData'
p2
(dp3
sS'com.typemytype.robofont.layerData'
p4
(dp5
S'b'
(dp6
S'name'
p7
S'fraction'
p8
sS'lib'
p9
(dp10
sS'unicodes'
p11
(tsS'width'
p12
F1077.8
sS'contours'
p13
(tsS'components'
p14
(tsS'anchors'
p15
(tsss."
LayerCount: 2
Fore
SplineSet
-89 0 m 1
 1009 1456 l 1
 1083 1456 l 1
 -12 0 l 1
 -89 0 l 1
EndSplineSet
EndChar

StartChar: g
Encoding: 103 103 275
Width: 1268
VWidth: 0
Flags: HW
PickledData: "(dp1
S'org.robofab.postScriptHintData'
p2
(dp3
sS'com.typemytype.robofont.layerData'
p4
(dp5
S'b'
(dp6
S'name'
p7
S'g'
sS'lib'
p8
(dp9
sS'unicodes'
p10
(tsS'width'
p11
I1254
sS'contours'
p12
((dp13
S'points'
p14
((dp15
S'segmentType'
p16
S'curve'
p17
sS'x'
F580
sS'smooth'
p18
I01
sS'y'
F134
s(dp19
S'y'
F134
sS'x'
F799
sg18
I00
s(dp20
S'y'
F295
sS'x'
F920
sg18
I00
s(dp21
g16
S'curve'
p22
sS'x'
F920
sg18
I01
sS'y'
F550
s(dp23
S'y'
F775
sS'x'
F920
sg18
I00
s(dp24
S'y'
F918
sS'x'
F796
sg18
I00
s(dp25
g16
S'curve'
p26
sS'x'
F600
sg18
I01
sS'y'
F918
s(dp27
S'y'
F918
sS'x'
F399
sg18
I00
s(dp28
S'y'
F762
sS'x'
F268
sg18
I00
s(dp29
g16
S'curve'
p30
sS'x'
F268
sg18
I01
sS'y'
F515
s(dp31
S'y'
F282
sS'x'
F268
sg18
I00
s(dp32
S'y'
F134
sS'x'
F389
sg18
I00
stp33
s(dp34
g14
((dp35
g16
S'curve'
p36
sS'x'
F534
sg18
I01
sS'y'
F-420
s(dp37
S'y'
F-420
sS'x'
F408
sg18
I00
s(dp38
S'y'
F-381
sS'x'
F289
sg18
I00
s(dp39
g16
S'curve'
p40
sS'x'
F189
sg18
I00
sS'y'
F-331
s(dp41
g16
S'line'
p42
sS'x'
F216
sg18
I00
sS'y'
F-187
s(dp43
S'y'
F-238
sS'x'
F300
sg18
I00
s(dp44
S'y'
F-282
sS'x'
F416
sg18
I00
s(dp45
g16
S'curve'
p46
sS'x'
F528
sg18
I01
sS'y'
F-282
s(dp47
S'y'
F-282
sS'x'
F790
sg18
I00
s(dp48
S'y'
F-183
sS'x'
F920
sg18
I00
s(dp49
g16
S'curve'
p50
sS'x'
F920
sg18
I01
sS'y'
F49
s(dp51
g16
S'line'
p52
sS'x'
F920
sg18
I00
sS'y'
F273
s(dp53
g16
S'line'
p54
sS'x'
F948
sg18
I00
sS'y'
F253
s(dp55
S'y'
F139
sS'x'
F905
sg18
I00
s(dp56
S'y'
F0
sS'x'
F802
sg18
I00
s(dp57
g16
S'curve'
p58
sS'x'
F579
sg18
I01
sS'y'
F0
s(dp59
S'y'
F0
sS'x'
F298
sg18
I00
s(dp60
S'y'
F201
sS'x'
F98
sg18
I00
s(dp61
g16
S'curve'
p62
sS'x'
F98
sg18
I01
sS'y'
F511
s(dp63
S'y'
F843
sS'x'
F98
sg18
I00
s(dp64
S'y'
F1052
sS'x'
F284
sg18
I00
s(dp65
g16
S'curve'
p66
sS'x'
F579
sg18
I01
sS'y'
F1052
s(dp67
S'y'
F1052
sS'x'
F820
sg18
I00
s(dp68
S'y'
F900
sS'x'
F903
sg18
I00
s(dp69
g16
S'curve'
p70
sS'x'
F958
sg18
I00
sS'y'
F798
s(dp71
g16
S'line'
p72
sS'x'
F919
sg18
I00
sS'y'
F787
s(dp73
g16
S'line'
p74
sS'x'
F926
sg18
I00
sS'y'
F1026
s(dp75
g16
S'line'
p76
sS'x'
F1090
sg18
I00
sS'y'
F1026
s(dp77
S'y'
F1026
sS'x'
F1090
sg18
I00
s(dp78
S'y'
F857
sS'x'
F1084
sg18
I00
s(dp79
g16
S'curve'
p80
sS'x'
F1084
sg18
I01
sS'y'
F773
s(dp81
g16
S'line'
p82
sS'x'
F1084
sg18
I01
sS'y'
F143
s(dp83
S'y'
F-255
sS'x'
F1084
sg18
I00
s(dp84
S'y'
F-420
sS'x'
F903
sg18
I00
stp85
stp86
sS'components'
p87
(tsS'anchors'
p88
(tsss."
LayerCount: 2
Fore
SplineSet
662 970 m 0
 407 970 216 751 216 427 c 0
 216 204 336 66 535 66 c 0
 801 66 997 277 997 599 c 0
 997 828 872 970 662 970 c 0
116 418 m 0
 116 800 354 1052 672 1052 c 0
 852 1052 985 953 1029 817 c 1
 1065 1026 l 1
 1160 1026 l 1
 1129 837 l 1
 1041 114 l 1
 992 -278 750 -443 464 -443 c 0
 352 -443 233 -424 123 -377 c 1
 146 -291 l 1
 255 -337 374 -359 475 -359 c 0
 713 -359 900 -230 943 114 c 2
 958 236 l 1
 875 72 708 -16 525 -16 c 0
 269 -16 116 151 116 418 c 0
EndSplineSet
EndChar

StartChar: germandbls
Encoding: 223 223 282
Width: 1240
VWidth: 0
Flags: HW
PickledData: "(dp1
S'org.robofab.postScriptHintData'
p2
(dp3
sS'com.typemytype.robofont.layerData'
p4
(dp5
S'b'
(dp6
S'name'
p7
S'germandbls'
p8
sS'lib'
p9
(dp10
sS'unicodes'
p11
(tsS'width'
p12
F1250.95145088
sS'contours'
p13
(tsS'components'
p14
(tsS'anchors'
p15
(tsss."
LayerCount: 2
Fore
SplineSet
1102 390 m 0
 1102 130 912 -28 649 -28 c 0
 562 -28 446 -3 353 37 c 1
 372 120 l 1
 469 80 582 54 659 54 c 0
 866 54 1002 182 1002 390 c 0
 1002 586 866 700 543 805 c 1
 554 889 l 1
 895 962 932 1059 950 1208 c 0
 951 1219 952 1229 952 1239 c 0
 952 1367 849 1448 680 1448 c 0
 483 1448 363 1315 332 1062 c 2
 202 0 l 1
 104 0 l 1
 237 1062 l 2
 276 1371 434 1534 693 1534 c 0
 912 1534 1045 1425 1045 1252 c 0
 1045 1238 1044 1223 1042 1208 c 0
 1016 999 910 916 674 857 c 2
 634 847 l 1
 670 837 l 1
 883 779 1102 649 1102 390 c 0
EndSplineSet
EndChar

StartChar: grave
Encoding: 96 96 283
Width: 581
VWidth: 0
Flags: HW
PickledData: "(dp1
S'org.robofab.postScriptHintData'
p2
(dp3
s."
LayerCount: 2
Fore
SplineSet
428 1174 m 1
 144 1456 l 1
 279 1456 l 1
 482 1174 l 1
 428 1174 l 1
EndSplineSet
EndChar

StartChar: greater
Encoding: 62 62 284
Width: 1042
VWidth: 0
Flags: HW
PickledData: "(dp1
S'org.robofab.postScriptHintData'
p2
(dp3
sS'com.typemytype.robofont.layerData'
p4
(dp5
S'b'
(dp6
S'name'
p7
S'greater'
p8
sS'lib'
p9
(dp10
sS'unicodes'
p11
(tsS'width'
p12
F1268.05
sS'contours'
p13
(tsS'components'
p14
(tsS'anchors'
p15
(tsss."
LayerCount: 2
Fore
SplineSet
158 105 m 1
 170 204 l 1
 885 542 l 1
 263 913 l 1
 275 1012 l 1
 998 573 l 1
 990 508 l 1
 158 105 l 1
EndSplineSet
EndChar

StartChar: greaterequal
Encoding: 8805 8805 285
Width: 1349
VWidth: 0
Flags: HW
PickledData: "(dp1
S'org.robofab.postScriptHintData'
p2
(dp3
sS'com.typemytype.robofont.layerData'
p4
(dp5
S'b'
(dp6
S'name'
p7
S'greaterequal'
p8
sS'lib'
p9
(dp10
sS'unicodes'
p11
(tsS'width'
p12
F1350.3499999999999
sS'contours'
p13
(tsS'components'
p14
(tsS'anchors'
p15
(tsss."
LayerCount: 2
Fore
SplineSet
245 0 m 1
 254 77 l 1
 1103 77 l 1
 1094 0 l 1
 245 0 l 1
279 153 m 1
 291 256 l 1
 1010 580 l 1
 383 962 l 1
 395 1063 l 1
 1118 606 l 1
 1109 535 l 1
 279 153 l 1
EndSplineSet
EndChar

StartChar: guillemotleft
Encoding: 171 171 286
Width: 1040
VWidth: 0
Flags: HW
PickledData: "(dp1
S'org.robofab.postScriptHintData'
p2
(dp3
sS'com.typemytype.robofont.layerData'
p4
(dp5
S'b'
(dp6
S'name'
p7
S'guillemotright'
p8
sS'lib'
p9
(dp10
sS'unicodes'
p11
(tsS'width'
p12
F1122.45
sS'contours'
p13
(tsS'components'
p14
(tsS'anchors'
p15
(tsss."
LayerCount: 2
Fore
SplineSet
744 186 m 1
 526 546 l 1
 838 914 l 1
 952 914 l 1
 646 547 l 1
 854 186 l 1
 744 186 l 1
329 186 m 1
 111 546 l 1
 424 914 l 1
 537 914 l 1
 232 547 l 1
 439 186 l 1
 329 186 l 1
EndSplineSet
EndChar

StartChar: guillemotright
Encoding: 187 187 287
Width: 1040
VWidth: 0
Flags: HW
PickledData: "(dp1
S'org.robofab.postScriptHintData'
p2
(dp3
sS'com.typemytype.robofont.layerData'
p4
(dp5
S'b'
(dp6
S'name'
p7
S'guillemotright'
p8
sS'lib'
p9
(dp10
sS'unicodes'
p11
(tsS'width'
p12
F1122.45
sS'contours'
p13
(tsS'components'
p14
(tsS'anchors'
p15
(tsss."
LayerCount: 2
Fore
SplineSet
483 180 m 1
 789 546 l 1
 581 908 l 1
 691 908 l 1
 909 547 l 1
 597 180 l 1
 483 180 l 1
68 180 m 1
 374 546 l 1
 166 908 l 1
 276 908 l 1
 494 547 l 1
 182 180 l 1
 68 180 l 1
EndSplineSet
EndChar

StartChar: guilsinglleft
Encoding: 8249 8249 288
Width: 634
VWidth: 0
Flags: HW
PickledData: "(dp1
S'org.robofab.postScriptHintData'
p2
(dp3
sS'com.typemytype.robofont.layerData'
p4
(dp5
S'b'
(dp6
S'name'
p7
S'guilsinglleft'
p8
sS'lib'
p9
(dp10
sS'unicodes'
p11
(tsS'width'
p12
F688.39999999999998
sS'contours'
p13
(tsS'components'
p14
(tsS'anchors'
p15
(tsss."
LayerCount: 2
Fore
SplineSet
356 180 m 1
 138 541 l 1
 450 908 l 1
 564 908 l 1
 258 542 l 1
 466 180 l 1
 356 180 l 1
EndSplineSet
EndChar

StartChar: guilsinglright
Encoding: 8250 8250 289
Width: 634
VWidth: 0
Flags: HW
PickledData: "(dp1
S'org.robofab.postScriptHintData'
p2
(dp3
sS'com.typemytype.robofont.layerData'
p4
(dp5
S'b'
(dp6
S'name'
p7
S'guilsinglleft'
p8
sS'lib'
p9
(dp10
sS'unicodes'
p11
(tsS'width'
p12
F688.39999999999998
sS'contours'
p13
(tsS'components'
p14
(tsS'anchors'
p15
(tsss."
LayerCount: 2
Fore
SplineSet
70 181 m 1
 376 547 l 1
 168 909 l 1
 278 909 l 1
 496 548 l 1
 184 181 l 1
 70 181 l 1
EndSplineSet
EndChar

StartChar: h
Encoding: 104 104 290
Width: 1255
VWidth: 0
Flags: HW
PickledData: "(dp1
S'org.robofab.postScriptHintData'
p2
(dp3
sS'com.typemytype.robofont.layerData'
p4
(dp5
S'b'
(dp6
S'name'
p7
S'h'
sS'lib'
p8
(dp9
sS'unicodes'
p10
(tsS'width'
p11
F1237.95
sS'contours'
p12
((dp13
S'points'
p14
((dp15
S'segmentType'
p16
S'line'
p17
sS'x'
F178
sS'smooth'
p18
I00
sS'y'
F0
s(dp19
g16
S'line'
p20
sS'x'
F178
sg18
I01
sS'y'
F779
s(dp21
S'y'
F902
sS'x'
F178
sg18
I00
s(dp22
S'y'
F1026
sS'x'
F172
sg18
I00
s(dp23
g16
S'curve'
p24
sS'x'
F172
sg18
I00
sS'y'
F1026
s(dp25
g16
S'line'
p26
sS'x'
F339
sg18
I00
sS'y'
F1026
s(dp27
g16
S'line'
p28
sS'x'
F343
sg18
I00
sS'y'
F864
s(dp29
S'y'
F976
sS'x'
F423
sg18
I00
s(dp30
S'y'
F1051
sS'x'
F548
sg18
I00
s(dp31
g16
S'curve'
p32
sS'x'
F700
sg18
I01
sS'y'
F1051
s(dp33
S'y'
F1051
sS'x'
F999
sg18
I00
s(dp34
S'y'
F844
sS'x'
F1082
sg18
I00
s(dp35
g16
S'curve'
p36
sS'x'
F1082
sg18
I01
sS'y'
F550
s(dp37
g16
S'line'
p38
sS'x'
F1082
sg18
I00
sS'y'
F0
s(dp39
g16
S'line'
p40
sS'x'
F917
sg18
I00
sS'y'
F0
s(dp41
g16
S'line'
p42
sS'x'
F917
sg18
I01
sS'y'
F531
s(dp43
S'y'
F764
sS'x'
F917
sg18
I00
s(dp44
S'y'
F917
sS'x'
F886
sg18
I00
s(dp45
g16
S'curve'
p46
sS'x'
F670
sg18
I01
sS'y'
F917
s(dp47
S'y'
F917
sS'x'
F471
sg18
I00
s(dp48
S'y'
F742
sS'x'
F344
sg18
I00
s(dp49
g16
S'curve'
p50
sS'x'
F343
sg18
I00
sS'y'
F652
s(dp51
g16
S'line'
p52
sS'x'
F343
sg18
I00
sS'y'
F0
stp53
stp54
sS'components'
p55
(tsS'anchors'
p56
(tsss."
LayerCount: 2
Fore
SplineSet
103 0 m 1
 289 1516 l 1
 387 1516 l 1
 302 827 l 1
 390 955 538 1052 736 1052 c 0
 880 1052 1060 996 1060 752 c 0
 1060 730 1059 707 1056 682 c 2
 972 0 l 1
 874 0 l 1
 955 659 l 2
 959 689 961 717 961 743 c 0
 961 891 896 970 726 970 c 0
 510 970 300 803 278 628 c 2
 201 0 l 1
 103 0 l 1
EndSplineSet
EndChar

StartChar: hungarumlaut
Encoding: 733 733 293
Width: 969
VWidth: 0
Flags: HW
PickledData: "(dp1
S'org.robofab.postScriptHintData'
p2
(dp3
s."
LayerCount: 2
Fore
SplineSet
400 1174 m 1
 624 1456 l 1
 738 1456 l 1
 470 1174 l 1
 400 1174 l 1
137 1174 m 1
 366 1456 l 1
 465 1456 l 1
 209 1174 l 1
 137 1174 l 1
EndSplineSet
EndChar

StartChar: hyphen
Encoding: 45 45 294
Width: 597
VWidth: 0
Flags: HW
PickledData: "(dp1
S'org.robofab.postScriptHintData'
p2
(dp3
sS'com.typemytype.robofont.layerData'
p4
(dp5
S'b'
(dp6
S'name'
p7
S'hyphen'
p8
sS'lib'
p9
(dp10
sS'unicodes'
p11
(tsS'width'
p12
F683.5
sS'contours'
p13
(tsS'components'
p14
(tsS'anchors'
p15
(tsss."
LayerCount: 2
Fore
SplineSet
63 527 m 1
 71 600 l 1
 530 600 l 1
 522 527 l 1
 63 527 l 1
EndSplineSet
EndChar

StartChar: i
Encoding: 105 105 295
Width: 526
VWidth: 0
Flags: HW
PickledData: "(dp1
S'org.robofab.postScriptHintData'
p2
(dp3
sS'com.typemytype.robofont.layerData'
p4
(dp5
S'b'
(dp6
S'name'
p7
S'i'
sS'lib'
p8
(dp9
sS'unicodes'
p10
(tsS'width'
p11
F521.10000000000002
sS'contours'
p12
(tsS'components'
p13
(tsS'anchors'
p14
(tsss."
LayerCount: 2
Fore
SplineSet
317 1346 m 1
 330 1456 l 1
 428 1456 l 1
 415 1346 l 1
 317 1346 l 1
152 0 m 1
 278 1026 l 5
 376 1026 l 5
 250 0 l 1
 152 0 l 1
EndSplineSet
EndChar

StartChar: increment
Encoding: 8710 8710 307
Width: 1319
VWidth: 0
Flags: HW
PickledData: "(dp1
S'org.robofab.postScriptHintData'
p2
(dp3
sS'com.typemytype.robofont.layerData'
p4
(dp5
S'b'
(dp6
S'name'
p7
S'uni2206'
p8
sS'lib'
p9
(dp10
sS'unicodes'
p11
(tsS'width'
p12
F1312.25
sS'contours'
p13
(tsS'components'
p14
(tsS'anchors'
p15
(tsss."
LayerCount: 2
Fore
SplineSet
58 77 m 1
 1075 77 l 1
 716 1295 l 1
 58 77 l 1
-48 0 m 1
 -42 48 l 1
 723 1451 l 1
 754 1451 l 1
 1174 48 l 1
 1168 0 l 1
 -48 0 l 1
EndSplineSet
EndChar

StartChar: infinity
Encoding: 8734 8734 308
Width: 1711
VWidth: 0
Flags: HW
PickledData: "(dp1
S'org.robofab.postScriptHintData'
p2
(dp3
s."
LayerCount: 2
Fore
SplineSet
1220 334 m 0
 1373 334 1468 454 1488 611 c 0
 1489 620 1490 628 1490 637 c 0
 1490 747 1401 836 1276 836 c 0
 1139 836 1009 713 908 585 c 1
 1010 420 1093 334 1220 334 c 0
468 836 m 0
 318 836 194 710 194 557 c 0
 194 439 282 334 417 334 c 1
 550 334 671 444 784 581 c 1
 706 724 611 836 468 836 c 0
1605 635 m 0
 1605 397 1403 239 1203 239 c 0
 1057 239 949 327 838 490 c 1
 708 348 571 239 413 239 c 0
 217 239 96 381 96 555 c 0
 96 769 292 923 492 923 c 0
 653 923 766 819 862 673 c 1
 991 815 1124 923 1289 923 c 0
 1487 923 1605 805 1605 635 c 0
EndSplineSet
EndChar

StartChar: integral
Encoding: 8747 8747 309
Width: 655
VWidth: 0
Flags: HW
PickledData: "(dp1
S'org.robofab.postScriptHintData'
p2
(dp3
sS'com.typemytype.robofont.layerData'
p4
(dp5
S'b'
(dp6
S'name'
p7
S'integral'
p8
sS'lib'
p9
(dp10
sS'unicodes'
p11
(tsS'width'
p12
F754
sS'contours'
p13
(tsS'components'
p14
(tsS'anchors'
p15
(tsss."
LayerCount: 2
Fore
SplineSet
-9 -282 m 0
 -77 -282 -115 -265 -115 -265 c 1
 -105 -177 l 1
 -105 -177 -70 -191 -25 -191 c 0
 149 -191 192 -103 213 62 c 2
 356 1230 l 2
 382 1443 447 1600 672 1600 c 0
 752 1600 761 1582 761 1582 c 1
 751 1500 l 1
 751 1500 735 1510 680 1510 c 0
 508 1510 479 1421 458 1256 c 2
 315 89 l 2
 289 -124 214 -282 -9 -282 c 0
EndSplineSet
EndChar

StartChar: j
Encoding: 106 106 312
Width: 503
VWidth: 0
Flags: HW
PickledData: "(dp1
S'org.robofab.postScriptHintData'
p2
(dp3
sS'com.typemytype.robofont.layerData'
p4
(dp5
S'b'
(dp6
S'name'
p7
S'j'
sS'lib'
p8
(dp9
sS'unicodes'
p10
(tsS'width'
p11
F536.89999999999998
sS'contours'
p12
((dp13
S'points'
p14
((dp15
S'segmentType'
p16
S'curve'
p17
sS'x'
F65
sS'smooth'
p18
I01
sS'y'
F-410
s(dp19
S'y'
F-410
sS'x'
F-24
sg18
I00
s(dp20
S'y'
F-390
sS'x'
F-117
sg18
I00
s(dp21
g16
S'curve'
p22
sS'x'
F-117
sg18
I00
sS'y'
F-390
s(dp23
g16
S'line'
p24
sS'x'
F-102
sg18
I00
sS'y'
F-267
s(dp25
S'y'
F-267
sS'x'
F-102
sg18
I00
s(dp26
S'y'
F-280
sS'x'
F-44
sg18
I00
s(dp27
g16
S'curve'
p28
sS'x'
F19
sg18
I01
sS'y'
F-280
s(dp29
S'y'
F-280
sS'x'
F153
sg18
I00
s(dp30
S'y'
F-208
sS'x'
F177
sg18
I00
s(dp31
g16
S'curve'
p32
sS'x'
F177
sg18
I01
sS'y'
F-2
s(dp33
g16
S'line'
p34
sS'x'
F177
sg18
I00
sS'y'
F1026
s(dp35
g16
S'line'
p36
sS'x'
F341
sg18
I00
sS'y'
F1026
s(dp37
g16
S'line'
p38
sS'x'
F341
sg18
I01
sS'y'
F-6
s(dp39
S'y'
F-274
sS'x'
F341
sg18
I00
s(dp40
S'y'
F-410
sS'x'
F246
sg18
I00
stp41
s(dp42
g14
((dp43
g16
S'line'
p44
sS'x'
F177
sg18
I00
sS'y'
F1307
s(dp45
g16
S'line'
p46
sS'x'
F177
sg18
I00
sS'y'
F1462
s(dp47
g16
S'line'
p48
sS'x'
F341
sg18
I00
sS'y'
F1462
s(dp49
g16
S'line'
p50
sS'x'
F341
sg18
I00
sS'y'
F1307
stp51
stp52
sS'components'
p53
(tsS'anchors'
p54
(tsss."
LayerCount: 2
Fore
SplineSet
315 1346 m 1
 329 1456 l 1
 427 1456 l 1
 413 1346 l 1
 315 1346 l 1
EndSplineSet
Refer: 235 567 N 1 0 0 1 0 0 2
EndChar

StartChar: k
Encoding: 107 107 315
Width: 1045
VWidth: 0
Flags: HW
PickledData: "(dp1
S'org.robofab.postScriptHintData'
p2
(dp3
sS'com.typemytype.robofont.layerData'
p4
(dp5
S'b'
(dp6
S'name'
p7
S'k'
sS'lib'
p8
(dp9
sS'unicodes'
p10
(tsS'width'
p11
F1078.6500000000001
sS'contours'
p12
(tsS'components'
p13
(tsS'anchors'
p14
(tsss."
LayerCount: 2
Fore
SplineSet
103 0 m 1
 289 1516 l 1
 387 1516 l 1
 268 549 l 1
 875 1026 l 1
 1004 1026 l 1
 387 543 l 1
 920 0 l 1
 792 0 l 1
 267 535 l 1
 201 0 l 1
 103 0 l 1
EndSplineSet
EndChar

StartChar: kgreenlandic
Encoding: 312 312 318
Width: 1082
VWidth: 0
Flags: HW
PickledData: "(dp1
S'org.robofab.postScriptHintData'
p2
(dp3
s."
LayerCount: 2
Fore
SplineSet
140 0 m 1
 266 1026 l 1
 369 1026 l 1
 308 525 l 1
 919 1026 l 1
 1059 1026 l 1
 432 514 l 1
 974 0 l 1
 838 0 l 1
 306 513 l 1
 243 0 l 1
 140 0 l 1
EndSplineSet
EndChar

StartChar: l
Encoding: 108 108 319
Width: 509
VWidth: 0
Flags: HW
PickledData: "(dp1
S'org.robofab.postScriptHintData'
p2
(dp3
sS'com.typemytype.robofont.layerData'
p4
(dp5
S'b'
(dp6
S'name'
p7
S'l'
sS'lib'
p8
(dp9
sS'unicodes'
p10
(tsS'width'
p11
F521.79999999999995
sS'contours'
p12
(tsS'components'
p13
(tsS'anchors'
p14
(tsss."
AnchorPoint: "caron.alt" 213 1026 basechar 0
LayerCount: 2
Fore
SplineSet
112 0 m 1
 298 1516 l 1
 396 1516 l 1
 210 0 l 1
 112 0 l 1
EndSplineSet
EndChar

StartChar: less
Encoding: 60 60 324
Width: 1044
VWidth: 0
Flags: HW
PickledData: "(dp1
S'org.robofab.postScriptHintData'
p2
(dp3
sS'com.typemytype.robofont.layerData'
p4
(dp5
S'b'
(dp6
S'name'
p7
S'less'
p8
sS'lib'
p9
(dp10
sS'unicodes'
p11
(tsS'width'
p12
F1267.3499999999999
sS'contours'
p13
(tsS'components'
p14
(tsS'anchors'
p15
(tsss."
LayerCount: 2
Fore
SplineSet
768 108 m 1
 46 565 l 1
 55 636 l 1
 886 1018 l 1
 873 916 l 1
 153 591 l 1
 781 209 l 1
 768 108 l 1
EndSplineSet
EndChar

StartChar: lessequal
Encoding: 8804 8804 325
Width: 1349
VWidth: 0
Flags: HW
PickledData: "(dp1
S'org.robofab.postScriptHintData'
p2
(dp3
sS'com.typemytype.robofont.layerData'
p4
(dp5
S'b'
(dp6
S'name'
p7
S'lessequal'
p8
sS'lib'
p9
(dp10
sS'unicodes'
p11
(tsS'width'
p12
F1350.3499999999999
sS'contours'
p13
(tsS'components'
p14
(tsS'anchors'
p15
(tsss."
LayerCount: 2
Fore
SplineSet
192 0 m 1
 201 77 l 1
 1050 77 l 1
 1041 0 l 1
 192 0 l 1
1035 153 m 1
 313 610 l 1
 321 681 l 1
 1152 1063 l 1
 1140 961 l 1
 420 636 l 1
 1047 254 l 1
 1035 153 l 1
EndSplineSet
EndChar

StartChar: logicalnot
Encoding: 172 172 327
Width: 1473
VWidth: 0
Flags: HW
PickledData: "(dp1
S'org.robofab.postScriptHintData'
p2
(dp3
sS'com.typemytype.robofont.layerData'
p4
(dp5
S'b'
(dp6
S'name'
p7
S'logicalnot'
p8
sS'lib'
p9
(dp10
sS'unicodes'
p11
(tsS'width'
p12
F1463.2
sS'contours'
p13
(tsS'components'
p14
(tsS'anchors'
p15
(tsss."
LayerCount: 2
Fore
SplineSet
1157 250 m 1
 1212 694 l 1
 265 694 l 1
 276 786 l 1
 1310 786 l 1
 1244 250 l 1
 1157 250 l 1
EndSplineSet
EndChar

StartChar: lozenge
Encoding: 9674 9674 329
Width: 1248
VWidth: 0
Flags: HW
PickledData: "(dp1
S'org.robofab.postScriptHintData'
p2
(dp3
s."
LayerCount: 2
Fore
SplineSet
544 8 m 1
 1057 720 l 1
 734 1444 l 1
 220 724 l 1
 544 8 l 1
506 -49 m 1
 143 720 l 1
 706 1493 l 1
 770 1493 l 1
 1136 721 l 1
 570 -49 l 1
 506 -49 l 1
EndSplineSet
EndChar

StartChar: lslash
Encoding: 322 322 330
Width: 503
VWidth: 0
Flags: HW
PickledData: "(dp1
S'org.robofab.postScriptHintData'
p2
(dp3
s."
LayerCount: 2
Fore
SplineSet
113 0 m 1
 194 663 l 1
 -29 563 l 1
 -19 642 l 1
 205 742 l 1
 300 1516 l 1
 401 1516 l 1
 311 781 l 1
 547 885 l 1
 537 810 l 1
 301 706 l 1
 214 0 l 1
 113 0 l 1
EndSplineSet
EndChar

StartChar: m
Encoding: 109 109 331
Width: 1946
VWidth: 0
Flags: HW
PickledData: "(dp1
S'org.robofab.postScriptHintData'
p2
(dp3
sS'com.typemytype.robofont.guides'
p4
(tsS'com.typemytype.robofont.layerData'
p5
(dp6
S'b'
(dp7
S'name'
p8
S'm'
sS'lib'
p9
(dp10
sS'unicodes'
p11
(tsS'width'
p12
F1873.95
sS'contours'
p13
(tsS'components'
p14
(tsS'anchors'
p15
(tsss."
LayerCount: 2
Fore
SplineSet
139 0 m 1
 247 880 l 2
 252 918 259 1026 259 1026 c 1
 348 1026 l 1
 333 820 l 1
 422 972 565 1052 746 1052 c 0
 924 1052 1025 962 1043 789 c 1
 1138 970 1305 1052 1473 1052 c 0
 1672 1052 1774 938 1774 722 c 0
 1774 691 1772 658 1768 622 c 2
 1691 0 l 1
 1593 0 l 1
 1670 622 l 2
 1674 654 1676 685 1676 713 c 0
 1676 882 1604 970 1463 970 c 0
 1252 970 1109 849 1041 622 c 1
 964 0 l 1
 866 0 l 1
 943 622 l 2
 947 654 949 685 949 713 c 0
 949 882 877 970 736 970 c 0
 540 970 396 869 321 678 c 1
 237 0 l 1
 139 0 l 1
EndSplineSet
EndChar

StartChar: macron
Encoding: 175 175 332
Width: 674
VWidth: 0
Flags: HW
PickledData: "(dp1
S'org.robofab.postScriptHintData'
p2
(dp3
sS'com.typemytype.robofont.layerData'
p4
(dp5
S'b'
(dp6
S'name'
p7
S'macron'
p8
sS'lib'
p9
(dp10
sS'unicodes'
p11
(tsS'width'
p12
F723
sS'contours'
p13
(tsS'components'
p14
(tsS'anchors'
p15
(tsss."
LayerCount: 2
Fore
SplineSet
67 1235 m 1
 77 1310 l 1
 607 1310 l 1
 597 1235 l 1
 67 1235 l 1
EndSplineSet
EndChar

StartChar: minus
Encoding: 8722 8722 335
Width: 1008
VWidth: 0
Flags: HW
PickledData: "(dp1
S'org.robofab.postScriptHintData'
p2
(dp3
s."
LayerCount: 2
Fore
SplineSet
132 645 m 1
 144 737 l 1
 876 737 l 1
 864 645 l 1
 132 645 l 1
EndSplineSet
EndChar

StartChar: mu
Encoding: 956 956 336
Width: 1285
VWidth: 0
Flags: HW
PickledData: "(dp1
S'org.robofab.postScriptHintData'
p2
(dp3
s."
LayerCount: 2
Fore
SplineSet
213 -332 m 1
 115 -328 l 1
 281 1026 l 1
 379 1026 l 1
 303 408 l 2
 299 378 298 351 298 325 c 0
 298 149 381 56 548 56 c 0
 803 56 961 260 973 355 c 2
 1055 1026 l 1
 1153 1026 l 1
 1055 225 l 2
 1041 113 1036 53 1032 0 c 1
 943 0 l 1
 958 191 l 1
 855 55 715 -26 538 -26 c 0
 411 -26 319 11 264 84 c 1
 213 -332 l 1
EndSplineSet
EndChar

StartChar: multiply
Encoding: 215 215 337
Width: 1177
VWidth: 0
Flags: HW
PickledData: "(dp1
S'org.robofab.postScriptHintData'
p2
(dp3
s."
LayerCount: 2
Fore
SplineSet
224 180 m 1
 173 242 l 1
 528 559 l 1
 251 876 l 1
 318 938 l 1
 597 621 l 1
 951 938 l 1
 1005 873 l 1
 648 559 l 1
 927 245 l 1
 857 180 l 1
 581 495 l 1
 224 180 l 1
EndSplineSet
EndChar

StartChar: n
Encoding: 110 110 338
Width: 1257
VWidth: 0
Flags: HW
PickledData: "(dp1
S'org.robofab.postScriptHintData'
p2
(dp3
sS'com.typemytype.robofont.layerData'
p4
(dp5
S'b'
(dp6
S'name'
p7
S'n'
sS'lib'
p8
(dp9
sS'unicodes'
p10
(tsS'width'
p11
F1240.05
sS'contours'
p12
(tsS'components'
p13
(tsS'anchors'
p14
(tsss."
LayerCount: 2
Fore
SplineSet
137 0 m 1
 245 880 l 2
 250 918 257 1026 257 1026 c 1
 346 1026 l 1
 331 820 l 1
 420 972 583 1052 764 1052 c 0
 981 1052 1085 938 1085 721 c 0
 1085 690 1083 657 1079 622 c 2
 1002 0 l 1
 904 0 l 1
 981 622 l 2
 985 654 987 683 987 711 c 0
 987 881 912 970 754 970 c 0
 558 970 394 869 319 678 c 1
 235 0 l 1
 137 0 l 1
EndSplineSet
EndChar

StartChar: nine
Encoding: 57 57 343
Width: 1182
VWidth: 0
Flags: HW
PickledData: "(dp1
S'org.robofab.postScriptHintData'
p2
(dp3
sS'com.typemytype.robofont.layerData'
p4
(dp5
S'b'
(dp6
S'name'
p7
S'nine'
p8
sS'lib'
p9
(dp10
sS'unicodes'
p11
(tsS'width'
p12
F1235.4000000000001
sS'contours'
p13
((dp14
S'points'
p15
((dp16
S'segmentType'
p17
S'curve'
p18
sS'x'
F314
sS'smooth'
p19
I01
sS'y'
F1010
s(dp20
S'y'
F827
sS'x'
F314
sg19
I00
s(dp21
S'y'
F687
sS'x'
F393
sg19
I00
s(dp22
g17
S'curve'
p23
sS'x'
F604
sg19
I01
sS'y'
F687
s(dp24
S'y'
F687
sS'x'
F784
sg19
I00
s(dp25
S'y'
F803
sS'x'
F908
sg19
I00
s(dp26
g17
S'curve'
p27
sS'x'
F908
sg19
I01
sS'y'
F991
s(dp28
S'y'
F1166
sS'x'
F908
sg19
I00
s(dp29
S'y'
F1334
sS'x'
F815
sg19
I00
s(dp30
g17
S'curve'
p31
sS'x'
F605
sg19
I01
sS'y'
F1334
s(dp32
S'y'
F1334
sS'x'
F419
sg19
I00
s(dp33
S'y'
F1196
sS'x'
F314
sg19
I00
stp34
s(dp35
g15
((dp36
g17
S'curve'
p37
sS'x'
F555
sg19
I01
sS'y'
F-24
s(dp38
S'y'
F-24
sS'x'
F434
sg19
I00
s(dp39
S'y'
F13
sS'x'
F304
sg19
I00
s(dp40
g17
S'curve'
p41
sS'x'
F175
sg19
I00
sS'y'
F79
s(dp42
g17
S'line'
p43
sS'x'
F232
sg19
I00
sS'y'
F211
s(dp44
S'y'
F152
sS'x'
F346
sg19
I00
s(dp45
S'y'
F124
sS'x'
F450
sg19
I00
s(dp46
g17
S'curve'
p47
sS'x'
F542
sg19
I01
sS'y'
F124
s(dp48
S'y'
F124
sS'x'
F773
sg19
I00
s(dp49
S'y'
F308
sS'x'
F920
sg19
I00
s(dp50
g17
S'curve'
p51
sS'x'
F920
sg19
I01
sS'y'
F657
s(dp52
g17
S'line'
p53
sS'x'
F920
sg19
I00
sS'y'
F722
s(dp54
S'y'
F600
sS'x'
F856
sg19
I00
s(dp55
S'y'
F544
sS'x'
F742
sg19
I00
s(dp56
g17
S'curve'
p57
sS'x'
F577
sg19
I01
sS'y'
F544
s(dp58
S'y'
F544
sS'x'
F298
sg19
I00
s(dp59
S'y'
F735
sS'x'
F138
sg19
I00
s(dp60
g17
S'curve'
p61
sS'x'
F138
sg19
I01
sS'y'
F1004
s(dp62
S'y'
F1275
sS'x'
F138
sg19
I00
s(dp63
S'y'
F1483
sS'x'
F311
sg19
I00
s(dp64
g17
S'curve'
p65
sS'x'
F613
sg19
I01
sS'y'
F1483
s(dp66
S'y'
F1483
sS'x'
F939
sg19
I00
s(dp67
S'y'
F1231
sS'x'
F1095
sg19
I00
s(dp68
g17
S'curve'
p69
sS'x'
F1095
sg19
I01
sS'y'
F774
s(dp70
S'y'
F203
sS'x'
F1095
sg19
I00
s(dp71
S'y'
F-24
sS'x'
F855
sg19
I00
stp72
stp73
sS'components'
p74
(tsS'anchors'
p75
(tsss."
LayerCount: 2
Fore
SplineSet
660 1397 m 0
 417 1397 263 1198 263 935 c 0
 263 764 345 634 547 634 c 0
 800 634 957 812 969 908 c 0
 974 945 976 982 976 1019 c 0
 976 1218 901 1397 660 1397 c 0
439 -23 m 0
 299 -23 197 33 144 77 c 1
 196 153 l 1
 242 111 334 63 449 63 c 0
 817 63 922 479 953 683 c 0
 958 710 960 733 963 751 c 1
 916 674 755 548 537 548 c 0
 315 548 153 695 153 936 c 0
 153 959 155 983 158 1008 c 0
 191 1277 390 1483 670 1483 c 0
 965 1483 1087 1275 1087 959 c 0
 1087 900 1083 838 1075 772 c 0
 1022 337 816 -23 439 -23 c 0
EndSplineSet
EndChar

StartChar: notequal
Encoding: 8800 8800 345
Width: 1326
VWidth: 0
Flags: HW
PickledData: "(dp1
S'org.robofab.postScriptHintData'
p2
(dp3
sS'com.typemytype.robofont.layerData'
p4
(dp5
S'b'
(dp6
S'name'
p7
S'notequal'
p8
sS'lib'
p9
(dp10
sS'unicodes'
p11
(tsS'width'
p12
F1362.5
sS'contours'
p13
(tsS'components'
p14
(tsS'anchors'
p15
(tsss."
LayerCount: 2
Fore
SplineSet
361 53 m 1
 295 62 l 1
 471 342 l 1
 140 342 l 1
 149 415 l 1
 514 415 l 1
 742 767 l 1
 192 767 l 1
 201 840 l 1
 782 840 l 1
 961 1124 l 1
 1027 1114 l 1
 857 840 l 1
 1187 840 l 1
 1178 767 l 1
 813 767 l 1
 586 415 l 1
 1135 415 l 1
 1126 342 l 1
 544 342 l 1
 361 53 l 1
EndSplineSet
EndChar

StartChar: numbersign
Encoding: 35 35 347
Width: 1397
VWidth: 0
Flags: HW
PickledData: "(dp1
S'org.robofab.postScriptHintData'
p2
(dp3
s."
LayerCount: 2
Fore
SplineSet
464 603 m 1
 829 603 l 1
 934 938 l 1
 571 938 l 1
 464 603 l 1
234 109 m 1
 369 545 l 1
 106 545 l 1
 118 603 l 1
 388 603 l 1
 491 938 l 1
 235 938 l 1
 250 997 l 1
 507 997 l 1
 631 1390 l 1
 711 1390 l 1
 591 997 l 1
 952 997 l 1
 1076 1390 l 1
 1149 1390 l 1
 1025 997 l 1
 1285 997 l 1
 1266 938 l 1
 1009 938 l 1
 904 603 l 1
 1160 603 l 1
 1141 545 l 1
 889 545 l 1
 751 109 l 1
 678 109 l 1
 811 545 l 1
 448 545 l 1
 307 109 l 1
 234 109 l 1
EndSplineSet
EndChar

StartChar: o
Encoding: 111 111 348
Width: 1230
VWidth: 0
Flags: HW
PickledData: "(dp1
S'org.robofab.postScriptHintData'
p2
(dp3
sS'com.typemytype.robofont.layerData'
p4
(dp5
S'b'
(dp6
S'name'
p7
S'o'
sS'lib'
p8
(dp9
sS'unicodes'
p10
(tsS'width'
p11
F1259.2
sS'contours'
p12
(tsS'components'
p13
(tsS'anchors'
p14
(tsss."
LayerCount: 2
Fore
SplineSet
1139 601 m 0
 1139 221 888 -21 549 -21 c 0
 262 -21 90 151 90 424 c 0
 90 452 91 480 95 510 c 0
 136 840 365 1052 681 1052 c 0
 967 1052 1139 878 1139 601 c 0
559 61 m 0
 847 61 1039 272 1039 596 c 0
 1039 827 908 970 671 970 c 0
 406 970 230 790 195 510 c 0
 192 482 190 456 190 430 c 0
 190 203 321 61 559 61 c 0
EndSplineSet
EndChar

StartChar: oe
Encoding: 339 339 355
Width: 1946
VWidth: 0
Flags: HW
PickledData: "(dp1
S'org.robofab.postScriptHintData'
p2
(dp3
sS'com.typemytype.robofont.layerData'
p4
(dp5
S'b'
(dp6
S'name'
p7
S'oe'
p8
sS'lib'
p9
(dp10
sS'unicodes'
p11
(tsS'width'
p12
F1979.8
sS'contours'
p13
(tsS'components'
p14
((dp15
S'transformation'
p16
(I1
I0
I0
I1
I-6
I0
tp17
sS'baseGlyph'
p18
S'o'
s(dp19
g16
(I1
I0
I0
I1
I811
I0
tp20
sg18
S'e'
stp21
sS'anchors'
p22
(tsss."
LayerCount: 2
Fore
SplineSet
1796 578 m 1
 1799 608 1801 628 1801 652 c 0
 1801 846 1686 970 1496 970 c 0
 1277 970 1102 817 1077 578 c 1
 1796 578 l 1
542 61 m 0
 796 61 983 279 983 601 c 0
 983 828 862 970 659 970 c 0
 411 970 228 787 193 503 c 0
 190 476 188 451 188 426 c 0
 188 201 321 61 542 61 c 0
532 -21 m 0
 249 -21 79 150 79 421 c 0
 79 449 80 477 84 507 c 0
 125 839 354 1052 669 1052 c 0
 865 1052 1008 944 1048 764 c 1
 1116 944 1300 1052 1506 1052 c 0
 1741 1052 1881 896 1881 647 c 0
 1881 618 1879 588 1875 557 c 2
 1869 507 l 1
 1068 507 l 1
 1064 478 l 2
 1061 453 1059 430 1059 407 c 0
 1059 195 1187 62 1400 62 c 0
 1504 62 1640 107 1745 177 c 1
 1773 108 l 1
 1660 29 1506 -21 1381 -21 c 0
 1188 -21 1030 87 985 254 c 1
 903 87 729 -21 532 -21 c 0
EndSplineSet
EndChar

StartChar: ogonek
Encoding: 731 731 356
Width: 508
VWidth: 0
Flags: HW
PickledData: "(dp1
S'org.robofab.postScriptHintData'
p2
(dp3
s."
LayerCount: 2
Fore
SplineSet
302 -448 m 0
 182 -448 94 -364 94 -258 c 0
 94 -250 94 -243 95 -235 c 0
 105 -157 163 -69 288 5 c 1
 370 4 l 1
 250 -77 204 -170 197 -227 c 0
 196 -233 196 -240 196 -246 c 0
 196 -310 238 -355 315 -355 c 0
 338 -355 364 -351 393 -342 c 1
 382 -437 l 1
 351 -446 327 -448 302 -448 c 0
EndSplineSet
EndChar

StartChar: one
Encoding: 49 49 361
Width: 1177
VWidth: 0
Flags: HW
PickledData: "(dp1
S'org.robofab.postScriptHintData'
p2
(dp3
sS'com.typemytype.robofont.layerData'
p4
(dp5
S'b'
(dp6
S'name'
p7
S'one'
p8
sS'lib'
p9
(dp10
sS'unicodes'
p11
(tsS'width'
p12
F1234.0999999999999
sS'contours'
p13
(tsS'components'
p14
(tsS'anchors'
p15
(tsss."
LayerCount: 2
Fore
SplineSet
179 0 m 1
 189 87 l 1
 482 87 l 1
 634 1320 l 1
 522 1256 409 1218 311 1176 c 1
 323 1272 l 1
 426 1309 613 1397 709 1456 c 1
 758 1456 l 1
 590 87 l 1
 860 87 l 1
 850 0 l 1
 179 0 l 1
EndSplineSet
EndChar

StartChar: onehalf
Encoding: 189 189 362
Width: 1563
VWidth: 0
Flags: HW
PickledData: "(dp1
S'org.robofab.postScriptHintData'
p2
(dp3
s."
LayerCount: 2
Fore
SplineSet
114 649 m 1
 122 710 l 1
 276 710 l 1
 357 1372 l 1
 199 1296 l 1
 210 1370 l 1
 373 1456 l 1
 441 1456 l 1
 350 710 l 1
 490 710 l 1
 482 649 l 1
 114 649 l 1
178 0 m 1
 1286 1456 l 1
 1354 1456 l 1
 261 0 l 1
 178 0 l 1
828 0 m 1
 836 70 l 1
 1167 375 l 2
 1300 498 1328 547 1336 617 c 0
 1337 625 1338 632 1338 640 c 0
 1338 702 1302 761 1188 761 c 0
 1100 761 1017 721 996 591 c 1
 922 595 l 1
 942 740 1048 825 1196 825 c 0
 1345 825 1414 743 1414 646 c 0
 1414 637 1413 629 1412 620 c 0
 1399 515 1362 459 1210 321 c 2
 933 69 l 1
 1349 69 l 1
 1341 0 l 1
 828 0 l 1
EndSplineSet
EndChar

StartChar: onequarter
Encoding: 188 188 363
Width: 1654
VWidth: 0
Flags: HW
PickledData: "(dp1
S'org.robofab.postScriptHintData'
p2
(dp3
s."
LayerCount: 2
Fore
SplineSet
915 256 m 1
 1222 256 l 1
 1276 697 l 1
 915 256 l 1
232 0 m 1
 1340 1456 l 1
 1408 1456 l 1
 315 0 l 1
 232 0 l 1
1193 0 m 1
 1215 184 l 1
 820 184 l 1
 829 253 l 1
 1268 786 l 1
 1367 786 l 1
 1302 256 l 1
 1385 256 l 1
 1375 184 l 1
 1289 184 l 1
 1267 0 l 1
 1193 0 l 1
120 649 m 1
 128 710 l 1
 282 710 l 1
 363 1372 l 1
 205 1296 l 1
 216 1370 l 1
 379 1456 l 1
 447 1456 l 1
 356 710 l 1
 496 710 l 1
 488 649 l 1
 120 649 l 1
EndSplineSet
EndChar

StartChar: onesuperior
Encoding: 185 185 364
Width: 896
VWidth: 0
Flags: HW
PickledData: "(dp1
S'org.robofab.postScriptHintData'
p2
(dp3
s."
LayerCount: 2
Fore
SplineSet
188 649 m 1
 196 710 l 1
 350 710 l 1
 431 1372 l 1
 273 1296 l 1
 284 1370 l 1
 448 1456 l 1
 516 1456 l 1
 424 710 l 1
 564 710 l 1
 556 649 l 1
 188 649 l 1
EndSplineSet
EndChar

StartChar: ordfeminine
Encoding: 170 170 366
Width: 691
VWidth: 0
Flags: HW
PickledData: "(dp1
S'org.robofab.postScriptHintData'
p2
(dp3
sS'com.typemytype.robofont.layerData'
p4
(dp5
S'b'
(dp6
S'name'
p7
S'ordfeminine'
p8
sS'lib'
p9
(dp10
sS'unicodes'
p11
(tsS'width'
p12
F797.10000000000002
sS'contours'
p13
(tsS'components'
p14
(tsS'anchors'
p15
(tsss."
LayerCount: 2
Fore
SplineSet
458 1137 m 0
 270 1137 150 1130 150 988 c 0
 150 915 199 880 297 880 c 0
 476 880 526 1007 538 1105 c 2
 542 1137 l 1
 512 1137 485 1137 458 1137 c 0
547 1200 m 1
 551 1229 554 1264 554 1288 c 0
 554 1368 524 1405 413 1405 c 0
 275 1405 160 1351 160 1351 c 1
 149 1413 l 1
 149 1413 274 1478 416 1478 c 0
 543 1478 640 1421 640 1300 c 0
 640 1295 639 1290 639 1284 c 0
 633 1246 594 958 589 920 c 0
 588 920 585 909 580 809 c 1
 488 809 l 1
 504 900 l 1
 442 824 347 802 271 802 c 0
 127 802 51 877 51 977 c 0
 51 985 52 994 53 1003 c 0
 68 1121 176 1200 378 1200 c 2
 547 1200 l 1
EndSplineSet
EndChar

StartChar: ordmasculine
Encoding: 186 186 367
Width: 850
VWidth: 0
Flags: HW
PickledData: "(dp1
S'org.robofab.postScriptHintData'
p2
(dp3
sS'com.typemytype.robofont.layerData'
p4
(dp5
S'b'
(dp6
S'name'
p7
S'ordmasculine'
p8
sS'lib'
p9
(dp10
sS'unicodes'
p11
(tsS'width'
p12
F887.85000000000002
sS'contours'
p13
(tsS'components'
p14
(tsS'anchors'
p15
(tsss."
LayerCount: 2
Fore
SplineSet
772 1210 m 0
 772 981 620 806 383 806 c 0
 178 806 77 931 77 1099 c 0
 77 1329 233 1500 470 1500 c 0
 673 1500 772 1378 772 1210 c 0
455 1408 m 0
 292 1408 186 1288 186 1100 c 0
 186 969 257 892 398 892 c 0
 560 892 670 1011 670 1196 c 0
 670 1329 594 1408 455 1408 c 0
EndSplineSet
EndChar

StartChar: oslash
Encoding: 248 248 368
Width: 1230
VWidth: 0
Flags: HW
PickledData: "(dp1
S'org.robofab.postScriptHintData'
p2
(dp3
sS'com.typemytype.robofont.layerData'
p4
(dp5
S'b'
(dp6
S'name'
p7
S'oslash'
p8
sS'lib'
p9
(dp10
sS'unicodes'
p11
(tsS'width'
p12
F1255
sS'contours'
p13
(tsS'components'
p14
(tsS'anchors'
p15
(tsss."
LayerCount: 2
Fore
SplineSet
235 -228 m 1
 195 -210 l 1
 1007 1249 l 1
 1052 1228 l 1
 235 -228 l 1
EndSplineSet
Refer: 348 111 N 1 0 0 1 0 0 2
EndChar

StartChar: p
Encoding: 112 112 371
Width: 1263
VWidth: 0
Flags: HW
PickledData: "(dp1
S'org.robofab.postScriptHintData'
p2
(dp3
sS'com.typemytype.robofont.layerData'
p4
(dp5
S'b'
(dp6
S'name'
p7
S'p'
sS'lib'
p8
(dp9
sS'unicodes'
p10
(tsS'width'
p11
F1260.25
sS'contours'
p12
(tsS'components'
p13
(tsS'anchors'
p14
(tsss."
LayerCount: 2
Fore
SplineSet
787 965 m 4
 525 965 322 735 322 412 c 4
 322 187 456 56 676 56 c 4
 933 56 1103 278 1103 601 c 4
 1103 825 993 965 787 965 c 4
1201 605 m 4
 1201 226 972 -26 666 -26 c 4
 485 -26 337 58 293 212 c 5
 207 -490 l 5
 109 -490 l 5
 262 758 l 6
 275 864 288 1024 288 1026 c 5
 387 1026 l 5
 361 779 l 5
 438 937 609 1047 797 1047 c 4
 1050 1047 1201 877 1201 605 c 4
EndSplineSet
EndChar

StartChar: paragraph
Encoding: 182 182 372
Width: 1191
VWidth: 0
Flags: HW
PickledData: "(dp1
S'org.robofab.postScriptHintData'
p2
(dp3
sS'com.typemytype.robofont.layerData'
p4
(dp5
S'b'
(dp6
S'name'
p7
S'paragraph'
p8
sS'lib'
p9
(dp10
sS'unicodes'
p11
(tsS'width'
p12
F1211.95
sS'contours'
p13
(tsS'components'
p14
(tsS'anchors'
p15
(tsss."
LayerCount: 2
Fore
SplineSet
425 -180 m 1
 550 843 l 1
 542 842 534 842 526 842 c 0
 384 842 215 930 215 1105 c 0
 215 1116 216 1127 217 1139 c 0
 247 1383 437 1457 713 1457 c 2
 1105 1457 l 1
 1096 1381 l 1
 1005 1381 l 1
 814 -180 l 1
 741 -180 l 1
 932 1381 l 1
 689 1381 l 1
 498 -180 l 1
 425 -180 l 1
EndSplineSet
EndChar

StartChar: parenleft
Encoding: 40 40 373
Width: 564
VWidth: 0
Flags: HW
PickledData: "(dp1
S'org.robofab.postScriptHintData'
p2
(dp3
sS'com.typemytype.robofont.layerData'
p4
(dp5
S'b'
(dp6
S'name'
p7
S'parenleft'
p8
sS'lib'
p9
(dp10
sS'unicodes'
p11
(tsS'width'
p12
F639.35000000000002
sS'contours'
p13
(tsS'components'
p14
(tsS'anchors'
p15
(tsss."
LayerCount: 2
Fore
SplineSet
316 -176 m 1
 218 12 152 235 152 483 c 0
 152 541 155 600 163 660 c 0
 203 990 325 1251 526 1516 c 1
 620 1516 l 1
 425 1253 301 986 262 667 c 0
 255 608 251 549 251 490 c 0
 251 253 309 20 414 -176 c 1
 316 -176 l 1
EndSplineSet
EndChar

StartChar: parenright
Encoding: 41 41 374
Width: 564
VWidth: 0
Flags: HW
PickledData: "(dp1
S'org.robofab.postScriptHintData'
p2
(dp3
sS'com.typemytype.robofont.layerData'
p4
(dp5
S'b'
(dp6
S'name'
p7
S'parenright'
p8
sS'lib'
p9
(dp10
sS'unicodes'
p11
(tsS'width'
p12
F639.35000000000002
sS'contours'
p13
(tsS'components'
p14
(tsS'anchors'
p15
(tsss."
LayerCount: 2
Fore
SplineSet
-57 -196 m 1
 138 66 262 334 301 653 c 0
 308 712 312 771 312 830 c 0
 312 1067 254 1300 149 1496 c 1
 247 1496 l 1
 346 1307 412 1084 412 835 c 0
 412 778 408 720 401 660 c 0
 361 329 238 68 38 -196 c 1
 -57 -196 l 1
EndSplineSet
EndChar

StartChar: partialdiff
Encoding: 8706 8706 375
Width: 1168
VWidth: 0
Flags: HW
PickledData: "(dp1
S'org.robofab.postScriptHintData'
p2
(dp3
sS'com.typemytype.robofont.layerData'
p4
(dp5
S'b'
(dp6
S'name'
p7
S'partialdiff'
p8
sS'lib'
p9
(dp10
sS'unicodes'
p11
(tsS'width'
p12
F1163.95
sS'contours'
p13
(tsS'components'
p14
(tsS'anchors'
p15
(tsss."
LayerCount: 2
Fore
SplineSet
419 63 m 3
 721 63 888 410 941 662 c 1
 917 798 818 914 644 914 c 0
 413 914 204 682 170 412 c 0
 167 389 166 367 166 346 c 0
 166 172 243 63 419 63 c 3
972 767 m 1
 981 841 1000 958 1000 1039 c 0
 1000 1313 880 1470 664 1470 c 0
 604 1470 507 1456 401 1384 c 1
 404 1478 l 1
 484 1523 590 1559 704 1559 c 0
 955 1559 1106 1399 1106 1053 c 0
 1106 997 1102 937 1094 872 c 0
 1039 429 787 -24 404 -24 c 0
 172 -24 60 130 60 337 c 0
 60 362 62 388 65 414 c 0
 105 747 351 1002 624 1002 c 0
 853 1002 934 850 972 767 c 1
EndSplineSet
EndChar

StartChar: percent
Encoding: 37 37 377
Width: 2123
VWidth: 0
Flags: HW
PickledData: "(dp1
S'org.robofab.postScriptHintData'
p2
(dp3
sS'com.typemytype.robofont.layerData'
p4
(dp5
S'b'
(dp6
S'name'
p7
S'percent'
p8
sS'lib'
p9
(dp10
sS'unicodes'
p11
(tsS'width'
p12
F1769.3
sS'contours'
p13
(tsS'components'
p14
(tsS'anchors'
p15
(tsss."
LayerCount: 2
Fore
SplineSet
1542 0 m 0
 1354 0 1257 117 1257 339 c 0
 1257 374 1259 412 1264 453 c 0
 1302 757 1436 918 1654 918 c 0
 1832 918 1925 801 1925 578 c 0
 1925 539 1923 498 1917 453 c 0
 1881 157 1751 0 1542 0 c 0
1551 76 m 0
 1700 76 1795 207 1825 454 c 0
 1830 497 1833 537 1833 573 c 0
 1833 750 1769 842 1645 842 c 0
 1487 842 1388 708 1356 454 c 0
 1351 416 1349 380 1349 347 c 0
 1349 169 1418 76 1551 76 c 0
666 0 m 1
 1383 1456 l 1
 1465 1456 l 1
 746 0 l 1
 666 0 l 1
482 538 m 0
 294 538 197 655 197 877 c 0
 197 912 199 950 204 991 c 0
 242 1295 376 1456 594 1456 c 0
 772 1456 865 1339 865 1116 c 0
 865 1077 863 1036 857 991 c 0
 821 695 691 538 482 538 c 0
491 614 m 0
 640 614 735 745 765 992 c 0
 770 1035 773 1075 773 1111 c 0
 773 1288 709 1380 585 1380 c 0
 427 1380 328 1246 296 992 c 0
 291 954 289 918 289 885 c 0
 289 707 358 614 491 614 c 0
EndSplineSet
EndChar

StartChar: period
Encoding: 46 46 378
Width: 550
VWidth: 0
Flags: HW
PickledData: "(dp1
S'org.robofab.postScriptHintData'
p2
(dp3
s."
LayerCount: 2
Fore
SplineSet
194 0 m 1
 214 167 l 1
 376 167 l 1
 356 0 l 1
 194 0 l 1
EndSplineSet
EndChar

StartChar: periodcentered
Encoding: 183 183 379
Width: 509
VWidth: 0
Flags: HW
PickledData: "(dp1
S'org.robofab.postScriptHintData'
p2
(dp3
sS'com.typemytype.robofont.layerData'
p4
(dp5
S'b'
(dp6
S'name'
p7
S'middot'
p8
sS'lib'
p9
(dp10
sS'unicodes'
p11
(tsS'width'
p12
I509
sS'contours'
p13
(tsS'components'
p14
(tsS'anchors'
p15
(tsss."
LayerCount: 2
Fore
SplineSet
235 533 m 1
 255 693 l 1
 383 693 l 1
 363 533 l 1
 235 533 l 1
EndSplineSet
EndChar

StartChar: perthousand
Encoding: 8240 8240 380
Width: 2988
VWidth: 0
Flags: HW
PickledData: "(dp1
S'org.robofab.postScriptHintData'
p2
(dp3
sS'com.typemytype.robofont.layerData'
p4
(dp5
S'b'
(dp6
S'name'
p7
S'perthousand'
p8
sS'lib'
p9
(dp10
sS'unicodes'
p11
(tsS'width'
p12
F2581.1999999999998
sS'contours'
p13
(tsS'components'
p14
(tsS'anchors'
p15
(tsss."
LayerCount: 2
Fore
SplineSet
2407 0 m 0
 2219 0 2122 117 2122 339 c 0
 2122 374 2124 412 2129 453 c 0
 2167 757 2301 918 2519 918 c 0
 2697 918 2790 801 2790 578 c 0
 2790 539 2788 498 2782 453 c 0
 2746 157 2616 0 2407 0 c 0
2416 76 m 0
 2565 76 2660 207 2690 454 c 0
 2695 497 2698 537 2698 573 c 0
 2698 750 2634 842 2510 842 c 0
 2352 842 2253 708 2221 454 c 0
 2216 416 2214 380 2214 347 c 0
 2214 169 2283 76 2416 76 c 0
EndSplineSet
Refer: 377 37 N 1 0 0 1 0 0 2
EndChar

StartChar: pi
Encoding: 960 960 381
Width: 1288
VWidth: 0
Flags: HW
PickledData: "(dp1
S'org.robofab.postScriptHintData'
p2
(dp3
sS'com.typemytype.robofont.layerData'
p4
(dp5
S'b'
(dp6
S'name'
p7
S'pi'
p8
sS'lib'
p9
(dp10
sS'unicodes'
p11
(tsS'width'
p12
F1288
sS'contours'
p13
(tsS'components'
p14
(tsS'anchors'
p15
(tsss."
LayerCount: 2
Fore
SplineSet
119 0 m 1
 347 259 357 480 437 941 c 1
 382 941 316 936 214 882 c 1
 207 963 l 1
 303 1010 371 1026 451 1026 c 2
 1198 1026 l 1
 1187 941 l 1
 1013 941 l 1
 928 249 l 2
 925 228 924 208 924 190 c 0
 924 116 949 72 1033 72 c 0
 1046 72 1061 73 1077 75 c 1
 1075 -1 l 1
 1046 -5 1015 -9 987 -9 c 0
 898 -9 826 26 826 175 c 0
 826 197 828 221 831 249 c 2
 916 941 l 1
 536 941 l 1
 458 467 422 218 242 0 c 1
 119 0 l 1
EndSplineSet
EndChar

StartChar: plus
Encoding: 43 43 382
Width: 1116
VWidth: 0
Flags: HW
PickledData: "(dp1
S'org.robofab.postScriptHintData'
p2
(dp3
sS'com.typemytype.robofont.layerData'
p4
(dp5
S'b'
(dp6
S'name'
p7
S'plus'
p8
sS'lib'
p9
(dp10
sS'unicodes'
p11
(tsS'width'
p12
F1206.9000000000001
sS'contours'
p13
(tsS'components'
p14
(tsS'anchors'
p15
(tsss."
LayerCount: 2
Fore
SplineSet
454 137 m 1
 509 581 l 1
 118 581 l 1
 129 672 l 1
 519 672 l 1
 569 1081 l 1
 658 1081 l 1
 608 672 l 1
 1003 672 l 1
 992 581 l 1
 600 581 l 1
 545 137 l 1
 454 137 l 1
EndSplineSet
EndChar

StartChar: plusminus
Encoding: 177 177 383
Width: 1180
VWidth: 0
Flags: HW
PickledData: "(dp1
S'org.robofab.postScriptHintData'
p2
(dp3
sS'com.typemytype.robofont.layerData'
p4
(dp5
S'b'
(dp6
S'name'
p7
S'plusminus'
p8
sS'lib'
p9
(dp10
sS'unicodes'
p11
(tsS'width'
p12
F1234.75
sS'contours'
p13
(tsS'components'
p14
(tsS'anchors'
p15
(tsss."
LayerCount: 2
Fore
SplineSet
108 0 m 1
 119 92 l 1
 972 92 l 1
 961 0 l 1
 108 0 l 1
515 209 m 1
 563 597 l 1
 205 597 l 1
 217 691 l 1
 575 691 l 1
 622 1079 l 1
 705 1079 l 1
 658 691 l 1
 995 691 l 1
 983 597 l 1
 646 597 l 1
 598 209 l 1
 515 209 l 1
EndSplineSet
EndChar

StartChar: product
Encoding: 8719 8719 384
Width: 1521
VWidth: 0
Flags: HW
PickledData: "(dp1
S'org.robofab.postScriptHintData'
p2
(dp3
sS'com.typemytype.robofont.layerData'
p4
(dp5
S'b'
(dp6
S'name'
p7
S'product'
p8
sS'lib'
p9
(dp10
sS'unicodes'
p11
(tsS'width'
p12
F1568
sS'contours'
p13
(tsS'components'
p14
(tsS'anchors'
p15
(tsss."
LayerCount: 2
Fore
SplineSet
202 -43 m 1
 375 1370 l 1
 191 1370 l 1
 202 1456 l 1
 1503 1456 l 1
 1492 1370 l 1
 1308 1370 l 1
 1135 -43 l 1
 1035 -43 l 1
 1208 1370 l 1
 475 1370 l 1
 302 -43 l 1
 202 -43 l 1
EndSplineSet
EndChar

StartChar: q
Encoding: 113 113 385
Width: 1255
VWidth: 0
Flags: HW
PickledData: "(dp1
S'org.robofab.postScriptHintData'
p2
(dp3
sS'com.typemytype.robofont.layerData'
p4
(dp5
S'b'
(dp6
S'name'
p7
S'q'
sS'lib'
p8
(dp9
sS'unicodes'
p10
(tsS'width'
p11
F1254.3
sS'contours'
p12
(tsS'components'
p13
(tsS'anchors'
p14
(tsss."
LayerCount: 2
Fore
SplineSet
969 583 m 0
 969 813 833 965 620 965 c 0
 414 965 269 825 213 601 c 0
 196 533 188 468 188 410 c 0
 188 193 302 56 505 56 c 0
 777 56 969 266 969 583 c 0
116 605 m 0
 184 877 378 1047 631 1047 c 0
 819 1047 962 937 1000 779 c 1
 1035 1026 l 1
 1134 1026 l 1
 1134 1024 1107 864 1094 758 c 2
 935 -490 l 1
 837 -490 l 1
 926 212 l 1
 844 58 675 -26 494 -26 c 0
 246 -26 90 140 90 405 c 0
 90 467 98 533 116 605 c 0
EndSplineSet
EndChar

StartChar: question
Encoding: 63 63 386
Width: 1113
VWidth: 0
Flags: HW
PickledData: "(dp1
S'org.robofab.postScriptHintData'
p2
(dp3
sS'com.typemytype.robofont.layerData'
p4
(dp5
S'b'
(dp6
S'name'
p7
S'question'
p8
sS'lib'
p9
(dp10
sS'unicodes'
p11
(tsS'width'
p12
F1055.9000000000001
sS'contours'
p13
(tsS'components'
p14
(tsS'anchors'
p15
(tsss."
LayerCount: 2
Fore
SplineSet
261 -20 m 1
 282 147 l 1
 445 147 l 1
 424 -20 l 1
 261 -20 l 1
342 338 m 1
 360 486 l 1
 389 716 815 860 849 1131 c 0
 851 1144 851 1157 851 1169 c 0
 851 1321 726 1384 566 1384 c 0
 439 1384 334 1332 284 1303 c 1
 297 1408 l 1
 427 1467 536 1473 577 1473 c 0
 595 1473 l 0
 828 1473 956 1381 956 1196 c 0
 956 847 465 690 440 480 c 1
 422 338 l 1
 342 338 l 1
EndSplineSet
EndChar

StartChar: quotedbl
Encoding: 34 34 388
Width: 911
VWidth: 0
Flags: HW
PickledData: "(dp1
S'org.robofab.postScriptHintData'
p2
(dp3
sS'com.typemytype.robofont.layerData'
p4
(dp5
S'b'
(dp6
S'name'
p7
S'quotedbl'
p8
sS'lib'
p9
(dp10
sS'unicodes'
p11
(tsS'width'
p12
F785.64999999999998
sS'contours'
p13
(tsS'components'
p14
(tsS'anchors'
p15
(tsss."
LayerCount: 2
Fore
SplineSet
252 929 m 1
 286 1456 l 1
 396 1456 l 1
 316 929 l 1
 252 929 l 1
553 929 m 1
 587 1456 l 1
 697 1456 l 1
 617 929 l 1
 553 929 l 1
EndSplineSet
EndChar

StartChar: quotedblbase
Encoding: 8222 8222 389
Width: 1024
VWidth: 0
Flags: HW
PickledData: "(dp1
S'org.robofab.postScriptHintData'
p2
(dp3
s."
LayerCount: 2
Fore
SplineSet
282 -369 m 1
 316 158 l 1
 426 158 l 1
 346 -369 l 1
 282 -369 l 1
583 -369 m 1
 617 158 l 1
 727 158 l 1
 647 -369 l 1
 583 -369 l 1
EndSplineSet
EndChar

StartChar: quotedblleft
Encoding: 8220 8220 390
Width: 1024
VWidth: 0
Flags: HW
PickledData: "(dp1
S'org.robofab.postScriptHintData'
p2
(dp3
sS'com.typemytype.robofont.layerData'
p4
(dp5
S'b'
(dp6
S'name'
p7
S'quotedblleft'
p8
sS'lib'
p9
(dp10
sS'unicodes'
p11
(tsS'width'
p12
F1024
sS'contours'
p13
(tsS'components'
p14
(tsS'anchors'
p15
(tsss."
LayerCount: 2
Fore
SplineSet
517 904 m 1
 665 1456 l 1
 732 1456 l 1
 636 904 l 1
 517 904 l 1
178 904 m 1
 326 1456 l 1
 393 1456 l 1
 297 904 l 1
 178 904 l 1
EndSplineSet
EndChar

StartChar: quotedblright
Encoding: 8221 8221 391
Width: 1024
VWidth: 0
Flags: HW
PickledData: "(dp1
S'org.robofab.postScriptHintData'
p2
(dp3
sS'com.typemytype.robofont.layerData'
p4
(dp5
S'b'
(dp6
S'name'
p7
S'quotedblright'
p8
sS'lib'
p9
(dp10
sS'unicodes'
p11
(tsS'width'
p12
F1024
sS'contours'
p13
(tsS'components'
p14
(tsS'anchors'
p15
(tsss."
LayerCount: 2
Fore
SplineSet
517 904 m 1
 613 1456 l 1
 732 1456 l 1
 584 904 l 1
 517 904 l 1
178 904 m 1
 274 1456 l 1
 393 1456 l 1
 245 904 l 1
 178 904 l 1
EndSplineSet
EndChar

StartChar: quoteleft
Encoding: 8216 8216 392
Width: 432
VWidth: 0
Flags: HW
PickledData: "(dp1
S'org.robofab.postScriptHintData'
p2
(dp3
sS'com.typemytype.robofont.layerData'
p4
(dp5
S'b'
(dp6
S'name'
p7
S'quoteleft'
p8
sS'lib'
p9
(dp10
sS'unicodes'
p11
(tsS'width'
p12
F518.5
sS'contours'
p13
(tsS'components'
p14
(tsS'anchors'
p15
(tsss."
LayerCount: 2
Fore
SplineSet
188 904 m 1
 69 904 l 1
 217 1456 l 1
 284 1456 l 1
 188 904 l 1
EndSplineSet
EndChar

StartChar: quoteright
Encoding: 8217 8217 393
Width: 395
VWidth: 0
Flags: HW
PickledData: "(dp1
S'org.robofab.postScriptHintData'
p2
(dp3
sS'com.typemytype.robofont.layerData'
p4
(dp5
S'b'
(dp6
S'name'
p7
S'quoteright'
p8
sS'lib'
p9
(dp10
g4
(dp11
S'b'
(dp12
g7
S'quoteleft'
p13
sg9
(dp14
sS'unicodes'
p15
(tsS'width'
p16
I494
sS'contours'
p17
(tsS'components'
p18
(tsS'anchors'
p19
(tssssg15
(tsg16
F537.25
sg17
((dp20
S'points'
p21
((dp22
S'segmentType'
p23
S'line'
p24
sS'x'
F416
sS'smooth'
p25
I00
sS'y'
F888
s(dp26
g23
S'line'
p27
sS'x'
F300
sg25
I00
sS'y'
F888
s(dp28
g23
S'line'
p29
sS'x'
F150
sg25
I00
sS'y'
F1456
s(dp30
g23
S'line'
p31
sS'x'
F360
sg25
I00
sS'y'
F1456
stp32
stp33
sg18
(tsg19
(tsss."
LayerCount: 2
Fore
SplineSet
109 904 m 1
 205 1456 l 1
 324 1456 l 1
 176 904 l 1
 109 904 l 1
EndSplineSet
EndChar

StartChar: quotesinglbase
Encoding: 8218 8218 394
Width: 445
VWidth: 0
Flags: HW
PickledData: "(dp1
S'org.robofab.postScriptHintData'
p2
(dp3
sS'com.typemytype.robofont.layerData'
p4
(dp5
S'b'
(dp6
S'name'
p7
S'quotesinglbase'
p8
sS'lib'
p9
(dp10
sS'unicodes'
p11
(tsS'width'
p12
F595.70000000000005
sS'contours'
p13
(tsS'components'
p14
(tsS'anchors'
p15
(tsss."
LayerCount: 2
Fore
SplineSet
175 -369 m 1
 209 158 l 1
 319 158 l 1
 239 -369 l 1
 175 -369 l 1
EndSplineSet
EndChar

StartChar: quotesingle
Encoding: 39 39 395
Width: 544
VWidth: 0
Flags: HW
PickledData: "(dp1
S'org.robofab.postScriptHintData'
p2
(dp3
sS'com.typemytype.robofont.layerData'
p4
(dp5
S'b'
(dp6
S'name'
p7
S'quotesingle'
p8
sS'lib'
p9
(dp10
sS'unicodes'
p11
(tsS'width'
p12
F507.85000000000002
sS'contours'
p13
(tsS'components'
p14
(tsS'anchors'
p15
(tsss."
LayerCount: 2
Fore
SplineSet
205 929 m 1
 239 1456 l 1
 349 1456 l 1
 269 929 l 1
 205 929 l 1
EndSplineSet
EndChar

StartChar: r
Encoding: 114 114 396
Width: 769
VWidth: 0
Flags: HW
PickledData: "(dp1
S'org.robofab.postScriptHintData'
p2
(dp3
sS'com.typemytype.robofont.layerData'
p4
(dp5
S'b'
(dp6
S'name'
p7
S'r'
sS'lib'
p8
(dp9
sS'unicodes'
p10
(tsS'width'
p11
F818.89999999999998
sS'contours'
p12
(tsS'components'
p13
(tsS'anchors'
p14
(tsss."
LayerCount: 2
Fore
SplineSet
141 0 m 1
 236 776 l 2
 252 904 258 1026 258 1026 c 1
 358 1026 l 1
 344 835 l 1
 410 994 539 1048 672 1048 c 0
 705 1048 739 1045 772 1039 c 1
 756 949 l 1
 725 955 693 958 663 958 c 0
 487 958 343 849 307 559 c 2
 239 0 l 1
 141 0 l 1
EndSplineSet
EndChar

StartChar: radical
Encoding: 8730 8730 398
Width: 1314
VWidth: 0
Flags: HW
PickledData: "(dp1
S'org.robofab.postScriptHintData'
p2
(dp3
s."
LayerCount: 2
Fore
SplineSet
550 -160 m 5
 303 729 l 1
 118 702 l 1
 124 767 l 1
 345 801 l 1
 593 -116 l 1
 1268 1626 l 1
 1324 1626 l 1
 632 -160 l 5
 550 -160 l 5
EndSplineSet
EndChar

StartChar: registered
Encoding: 174 174 402
Width: 1748
VWidth: 0
Flags: HW
PickledData: "(dp1
S'org.robofab.postScriptHintData'
p2
(dp3
sS'com.typemytype.robofont.layerData'
p4
(dp5
S'b'
(dp6
S'name'
p7
S'registered'
p8
sS'lib'
p9
(dp10
sS'unicodes'
p11
(tsS'width'
p12
F1727.05
sS'contours'
p13
(tsS'components'
p14
(tsS'anchors'
p15
(tsss."
LayerCount: 2
Fore
SplineSet
779 -38 m 0
 392 -38 104 255 104 631 c 0
 104 662 106 692 110 724 c 0
 161 1143 548 1487 967 1487 c 0
 1356 1487 1644 1192 1644 816 c 0
 1644 786 1642 755 1638 724 c 0
 1586 304 1199 -38 779 -38 c 0
793 46 m 0
 1159 46 1496 354 1540 719 c 0
 1543 747 1545 774 1545 801 c 0
 1545 1131 1296 1393 958 1393 c 0
 590 1393 253 1086 208 719 c 0
 205 692 203 665 203 639 c 0
 203 310 452 46 793 46 c 0
826 762 m 2
 1055 762 1152 798 1152 982 c 0
 1152 1100 1074 1121 843 1121 c 2
 718 1121 l 1
 674 762 l 1
 826 762 l 2
518 261 m 1
 634 1207 l 1
 875 1207 l 2
 1154 1207 1263 1129 1263 992 c 0
 1263 980 1263 968 1261 955 c 0
 1244 815 1187 733 981 703 c 1
 1166 261 l 1
 1048 261 l 1
 875 698 l 1
 669 698 l 1
 615 261 l 1
 518 261 l 1
EndSplineSet
EndChar

StartChar: ring
Encoding: 730 730 403
Width: 534
VWidth: 0
Flags: HW
PickledData: "(dp1
S'org.robofab.postScriptHintData'
p2
(dp3
sS'com.typemytype.robofont.layerData'
p4
(dp5
S'b'
(dp6
S'name'
p7
S'ring'
p8
sS'lib'
p9
(dp10
sS'unicodes'
p11
(tsS'width'
p12
F633.35000000000002
sS'contours'
p13
(tsS'components'
p14
(tsS'anchors'
p15
(tsss."
LayerCount: 2
Fore
SplineSet
444 1337 m 0
 444 1225 353 1146 247 1146 c 0
 154 1146 92 1206 92 1291 c 0
 92 1403 183 1482 289 1482 c 0
 382 1482 444 1422 444 1337 c 0
282 1426 m 1
 217 1426 162 1372 162 1297 c 0
 162 1241 226 1231 254 1202 c 1
 319 1202 374 1256 374 1331 c 0
 374 1387 310 1397 282 1426 c 1
EndSplineSet
EndChar

StartChar: s
Encoding: 115 115 405
Width: 935
VWidth: 0
Flags: HW
PickledData: "(dp1
S'org.robofab.postScriptHintData'
p2
(dp3
sS'com.typemytype.robofont.layerData'
p4
(dp5
S'b'
(dp6
S'name'
p7
S's'
sS'lib'
p8
(dp9
sS'unicodes'
p10
(tsS'width'
p11
F981.89999999999998
sS'contours'
p12
((dp13
S'points'
p14
((dp15
S'segmentType'
p16
S'curve'
p17
sS'x'
F498
sS'smooth'
p18
I01
sS'y'
F-23
s(dp19
S'y'
F-23
sS'x'
F282
sg18
I00
s(dp20
S'y'
F70
sS'x'
F145
sg18
I00
s(dp21
g16
S'curve'
p22
sS'x'
F116
sg18
I00
sS'y'
F94
s(dp23
g16
S'line'
p24
sS'x'
F160
sg18
I00
sS'y'
F222
s(dp25
S'y'
F189
sS'x'
F208
sg18
I00
s(dp26
S'y'
F109
sS'x'
F348
sg18
I00
s(dp27
g16
S'curve'
p28
sS'x'
F484
sg18
I01
sS'y'
F109
s(dp29
S'y'
F109
sS'x'
F589
sg18
I00
s(dp30
S'y'
F141
sS'x'
F711
sg18
I00
s(dp31
g16
S'curve'
p32
sS'x'
F711
sg18
I01
sS'y'
F272
s(dp33
S'y'
F395
sS'x'
F711
sg18
I00
s(dp34
S'y'
F426
sS'x'
F561
sg18
I00
s(dp35
g16
S'curve'
p36
sS'x'
F412
sg18
I00
sS'y'
F474
s(dp37
S'y'
F521
sS'x'
F262
sg18
I00
s(dp38
S'y'
F585
sS'x'
F112
sg18
I00
s(dp39
g16
S'curve'
p40
sS'x'
F112
sg18
I01
sS'y'
F771
s(dp41
S'y'
F970
sS'x'
F112
sg18
I00
s(dp42
S'y'
F1051
sS'x'
F318
sg18
I00
s(dp43
g16
S'curve'
p44
sS'x'
F488
sg18
I01
sS'y'
F1051
s(dp45
S'y'
F1051
sS'x'
F715
sg18
I00
s(dp46
S'y'
F991
sS'x'
F792
sg18
I00
s(dp47
g16
S'curve'
p48
sS'x'
F832
sg18
I00
sS'y'
F966
s(dp49
g16
S'line'
p50
sS'x'
F785
sg18
I00
sS'y'
F851
s(dp51
S'y'
F858
sS'x'
F772
sg18
I00
s(dp52
S'y'
F917
sS'x'
F667
sg18
I00
s(dp53
g16
S'curve'
p54
sS'x'
F504
sg18
I01
sS'y'
F917
s(dp55
S'y'
F917
sS'x'
F355
sg18
I00
s(dp56
S'y'
F882
sS'x'
F283
sg18
I00
s(dp57
g16
S'curve'
p58
sS'x'
F283
sg18
I01
sS'y'
F774
s(dp59
S'y'
F660
sS'x'
F283
sg18
I00
s(dp60
S'y'
F629
sS'x'
F433
sg18
I00
s(dp61
g16
S'curve'
p62
sS'x'
F582
sg18
I01
sS'y'
F581
s(dp63
S'y'
F533
sS'x'
F732
sg18
I00
s(dp64
S'y'
F468
sS'x'
F881
sg18
I00
s(dp65
g16
S'curve'
p66
sS'x'
F881
sg18
I01
sS'y'
F284
s(dp67
S'y'
F62
sS'x'
F881
sg18
I00
s(dp68
S'y'
F-23
sS'x'
F685
sg18
I00
stp69
stp70
sS'components'
p71
(tsS'anchors'
p72
(tsss."
LayerCount: 2
Fore
SplineSet
548 970 m 0
 341 970 246 898 246 754 c 0
 246 675 287 646 401 609 c 2
 595 546 l 2
 737 499 812 441 812 321 c 0
 812 308 811 295 809 280 c 0
 783 69 612 -21 411 -21 c 0
 216 -21 101 72 70 96 c 1
 117 172 l 1
 147 151 250 65 418 65 c 0
 548 65 715 104 715 297 c 0
 715 385 664 423 552 459 c 2
 354 522 l 2
 224 563 147 617 147 740 c 0
 147 962 322 1052 558 1052 c 0
 741 1052 821 999 855 977 c 1
 814 904 l 1
 783 922 700 970 548 970 c 0
EndSplineSet
EndChar

StartChar: section
Encoding: 167 167 412
Width: 1024
VWidth: 0
Flags: HW
PickledData: "(dp1
S'org.robofab.postScriptHintData'
p2
(dp3
sS'com.typemytype.robofont.layerData'
p4
(dp5
S'b'
(dp6
S'name'
p7
S'section'
p8
sS'lib'
p9
(dp10
sS'unicodes'
p11
(tsS'width'
p12
F1071.6500000000001
sS'contours'
p13
(tsS'components'
p14
(tsS'anchors'
p15
(tsss."
LayerCount: 2
Fore
SplineSet
545 476 m 1
 677 532 765 614 778 723 c 0
 779 729 779 735 779 741 c 0
 779 813 715 844 550 930 c 1
 391 878 291 818 279 719 c 0
 278 712 278 705 278 699 c 0
 278 598 380 552 545 476 c 1
865 748 m 0
 865 596 718 498 597 447 c 1
 711 387 778 322 778 221 c 0
 778 211 777 201 776 190 c 0
 752 -5 592 -91 399 -91 c 0
 312 -91 218 -74 127 -41 c 1
 137 33 l 1
 231 -5 324 -25 407 -25 c 0
 564 -25 693 49 693 207 c 0
 693 318 573 364 416 447 c 0
 282 519 200 563 200 681 c 0
 200 838 346 930 493 960 c 1
 352 1039 294 1089 294 1189 c 0
 294 1410 499 1500 684 1500 c 0
 755 1500 823 1486 877 1462 c 1
 868 1391 l 1
 813 1415 745 1429 676 1429 c 0
 526 1429 379 1364 379 1196 c 0
 379 1127 420 1093 584 1002 c 0
 762 903 865 865 865 748 c 0
EndSplineSet
EndChar

StartChar: semicolon
Encoding: 59 59 413
Width: 550
VWidth: 0
Flags: HW
PickledData: "(dp1
S'org.robofab.postScriptHintData'
p2
(dp3
s."
LayerCount: 2
Fore
SplineSet
199 833 m 1
 219 1001 l 1
 410 1001 l 1
 390 833 l 1
 199 833 l 1
49 -256 m 1
 203 164 l 1
 322 164 l 1
 120 -256 l 1
 49 -256 l 1
EndSplineSet
EndChar

StartChar: seven
Encoding: 55 55 414
Width: 1177
VWidth: 0
Flags: HW
PickledData: "(dp1
S'org.robofab.postScriptHintData'
p2
(dp3
s."
LayerCount: 2
Fore
SplineSet
303 0 m 1
 1015 1356 l 1
 267 1356 l 1
 279 1456 l 1
 1143 1456 l 1
 1134 1376 l 1
 424 0 l 1
 303 0 l 1
EndSplineSet
EndChar

StartChar: six
Encoding: 54 54 415
Width: 1177
VWidth: 0
Flags: HW
PickledData: "(dp1
S'org.robofab.postScriptHintData'
p2
(dp3
s."
LayerCount: 2
Fore
SplineSet
534 63 m 0
 777 63 931 262 931 525 c 0
 931 696 849 826 647 826 c 0
 394 826 237 648 225 552 c 0
 220 515 218 478 218 441 c 0
 218 242 293 63 534 63 c 0
524 -23 m 0
 229 -23 107 185 107 501 c 0
 107 560 111 622 119 688 c 0
 172 1123 378 1483 755 1483 c 0
 895 1483 997 1427 1050 1383 c 1
 998 1307 l 1
 952 1349 860 1397 745 1397 c 0
 377 1397 272 981 241 777 c 0
 237 750 234 727 231 709 c 1
 278 786 439 912 657 912 c 0
 879 912 1041 765 1041 524 c 0
 1041 501 1039 477 1036 452 c 0
 1003 183 804 -23 524 -23 c 0
EndSplineSet
EndChar

StartChar: slash
Encoding: 47 47 416
Width: 732
VWidth: 0
Flags: HW
PickledData: "(dp1
S'org.robofab.postScriptHintData'
p2
(dp3
s."
LayerCount: 2
Fore
SplineSet
54 0 m 1
 659 1456 l 1
 741 1456 l 1
 134 0 l 1
 54 0 l 1
EndSplineSet
EndChar

StartChar: softhyphen
Encoding: 173 173 418
Width: 593
VWidth: 0
Flags: HW
PickledData: "(dp1
S'org.robofab.postScriptHintData'
p2
(dp3
s."
LayerCount: 2
Fore
SplineSet
63 527 m 1
 71 600 l 1
 530 600 l 1
 522 527 l 1
 63 527 l 1
EndSplineSet
EndChar

StartChar: sterling
Encoding: 163 163 420
Width: 1136
VWidth: 0
Flags: HW
PickledData: "(dp1
S'org.robofab.postScriptHintData'
p2
(dp3
sS'com.typemytype.robofont.layerData'
p4
(dp5
S'b'
(dp6
S'name'
p7
S'sterling'
p8
sS'lib'
p9
(dp10
sS'unicodes'
p11
(tsS'width'
p12
F1207.3
sS'contours'
p13
(tsS'components'
p14
(tsS'anchors'
p15
(tsss."
LayerCount: 2
Fore
SplineSet
55 0 m 1
 67 90 l 1
 229 178 301 450 313 550 c 2
 333 714 l 1
 122 714 l 1
 132 791 l 1
 344 791 l 1
 369 1001 l 2
 403 1277 523 1474 811 1474 c 0
 929 1474 1009 1432 1041 1399 c 1
 997 1327 l 1
 972 1349 914 1390 810 1390 c 4
 577 1390 491 1212 469 1026 c 2
 441 791 l 1
 833 791 l 1
 823 714 l 1
 435 714 l 1
 415 552 l 2
 381 269 229 99 188 82 c 1
 906 82 l 1
 895 0 l 1
 55 0 l 1
EndSplineSet
EndChar

StartChar: summation
Encoding: 8721 8721 421
Width: 1102
VWidth: 0
Flags: HW
PickledData: "(dp1
S'org.robofab.postScriptHintData'
p2
(dp3
sS'com.typemytype.robofont.layerData'
p4
(dp5
S'b'
(dp6
S'name'
p7
S'summation'
p8
sS'lib'
p9
(dp10
sS'unicodes'
p11
(tsS'width'
p12
F1198.3
sS'contours'
p13
(tsS'components'
p14
(tsS'anchors'
p15
(tsss."
LayerCount: 2
Fore
SplineSet
7 -99 m 1
 13 -50 l 1
 616 694 l 1
 208 1392 l 1
 215 1452 l 1
 1114 1452 l 1
 1105 1378 l 1
 337 1378 l 1
 720 706 l 1
 125 -27 l 1
 975 -27 l 1
 966 -99 l 1
 7 -99 l 1
EndSplineSet
EndChar

StartChar: t
Encoding: 116 116 422
Width: 687
VWidth: 0
Flags: HW
PickledData: "(dp1
S'org.robofab.postScriptHintData'
p2
(dp3
sS'com.typemytype.robofont.layerData'
p4
(dp5
S'b'
(dp6
S'name'
p7
S't'
sS'lib'
p8
(dp9
sS'unicodes'
p10
(tsS'width'
p11
F763.89999999999998
sS'contours'
p12
(tsS'components'
p13
(tsS'anchors'
p14
(tsss."
AnchorPoint: "caron.alt" 371 1264 basechar 0
LayerCount: 2
Fore
SplineSet
509 -1 m 1
 493 -1 477 0 463 0 c 0
 246 11 202 81 202 185 c 0
 202 227 209 275 215 326 c 2
 293 961 l 1
 91 961 l 1
 99 1026 l 1
 301 1026 l 1
 337 1320 l 1
 439 1349 l 1
 399 1026 l 1
 632 1026 l 1
 624 961 l 1
 391 961 l 1
 313 323 l 2
 307 272 302 231 302 199 c 0
 302 104 344 83 519 83 c 1
 509 -1 l 1
EndSplineSet
EndChar

StartChar: thorn
Encoding: 254 254 427
Width: 1247
VWidth: 0
Flags: HW
PickledData: "(dp1
S'org.robofab.postScriptHintData'
p2
(dp3
s."
LayerCount: 2
Fore
SplineSet
615 61 m 0
 862 61 1042 278 1042 607 c 0
 1042 837 922 965 726 965 c 3
 437 965 314 740 286 512 c 0
 282 482 281 454 281 426 c 0
 281 207 393 61 615 61 c 0
1155 617 m 0
 1155 229 923 -23 605 -23 c 0
 433 -23 301 62 248 201 c 1
 169 -449 l 1
 54 -449 l 1
 288 1450 l 1
 402 1450 l 1
 328 831 l 1
 419 972 562 1051 737 1051 c 0
 997 1051 1155 896 1155 617 c 0
EndSplineSet
EndChar

StartChar: three
Encoding: 51 51 428
Width: 1177
VWidth: 0
Flags: HW
PickledData: "(dp1
S'org.robofab.postScriptHintData'
p2
(dp3
sS'com.typemytype.robofont.layerData'
p4
(dp5
S'b'
(dp6
S'name'
p7
S'three'
p8
sS'lib'
p9
(dp10
sS'unicodes'
p11
(tsS'width'
p12
F1234.0999999999999
sS'contours'
p13
((dp14
S'points'
p15
((dp16
S'segmentType'
p17
S'curve'
p18
sS'x'
F344
sS'smooth'
p19
I01
sS'y'
F1010
s(dp20
S'y'
F827
sS'x'
F344
sg19
I00
s(dp21
S'y'
F687
sS'x'
F423
sg19
I00
s(dp22
g17
S'curve'
p23
sS'x'
F634
sg19
I01
sS'y'
F687
s(dp24
S'y'
F687
sS'x'
F814
sg19
I00
s(dp25
S'y'
F803
sS'x'
F938
sg19
I00
s(dp26
g17
S'curve'
p27
sS'x'
F938
sg19
I01
sS'y'
F991
s(dp28
S'y'
F1166
sS'x'
F938
sg19
I00
s(dp29
S'y'
F1334
sS'x'
F845
sg19
I00
s(dp30
g17
S'curve'
p31
sS'x'
F635
sg19
I01
sS'y'
F1334
s(dp32
S'y'
F1334
sS'x'
F449
sg19
I00
s(dp33
S'y'
F1196
sS'x'
F344
sg19
I00
stp34
s(dp35
g15
((dp36
g17
S'curve'
p37
sS'x'
F594
sg19
I01
sS'y'
F-24
s(dp38
S'y'
F-24
sS'x'
F473
sg19
I00
s(dp39
S'y'
F-1
sS'x'
F367
sg19
I00
s(dp40
g17
S'curve'
p41
sS'x'
F238
sg19
I00
sS'y'
F65
s(dp42
g17
S'line'
p43
sS'x'
F287
sg19
I00
sS'y'
F197
s(dp44
S'y'
F138
sS'x'
F401
sg19
I00
s(dp45
S'y'
F124
sS'x'
F489
sg19
I00
s(dp46
g17
S'curve'
p47
sS'x'
F581
sg19
I01
sS'y'
F124
s(dp48
S'y'
F124
sS'x'
F812
sg19
I00
s(dp49
S'y'
F308
sS'x'
F950
sg19
I00
s(dp50
g17
S'curve'
p51
sS'x'
F950
sg19
I01
sS'y'
F657
s(dp52
g17
S'line'
p53
sS'x'
F950
sg19
I00
sS'y'
F722
s(dp54
S'y'
F600
sS'x'
F886
sg19
I00
s(dp55
S'y'
F544
sS'x'
F772
sg19
I00
s(dp56
g17
S'curve'
p57
sS'x'
F607
sg19
I01
sS'y'
F544
s(dp58
S'y'
F544
sS'x'
F328
sg19
I00
s(dp59
S'y'
F735
sS'x'
F168
sg19
I00
s(dp60
g17
S'curve'
p61
sS'x'
F168
sg19
I01
sS'y'
F1004
s(dp62
S'y'
F1275
sS'x'
F168
sg19
I00
s(dp63
S'y'
F1483
sS'x'
F341
sg19
I00
s(dp64
g17
S'curve'
p65
sS'x'
F643
sg19
I01
sS'y'
F1483
s(dp66
S'y'
F1483
sS'x'
F969
sg19
I00
s(dp67
S'y'
F1231
sS'x'
F1125
sg19
I00
s(dp68
g17
S'curve'
p69
sS'x'
F1125
sg19
I01
sS'y'
F774
s(dp70
S'y'
F203
sS'x'
F1125
sg19
I00
s(dp71
S'y'
F-24
sS'x'
F894
sg19
I00
stp72
stp73
sS'components'
p74
(tsS'anchors'
p75
(tsss."
LayerCount: 2
Fore
SplineSet
456 63 m 0
 706 63 884 207 884 448 c 0
 884 614 779 719 558 724 c 2
 452 726 l 1
 461 820 l 1
 570 820 l 2
 798 820 919 937 942 1118 c 0
 944 1131 944 1143 944 1155 c 0
 944 1303 827 1397 636 1397 c 0
 494 1397 330 1343 230 1224 c 1
 180 1283 l 1
 273 1406 456 1483 646 1483 c 0
 893 1483 1043 1361 1043 1167 c 0
 1043 1151 1042 1135 1040 1118 c 0
 1022 971 903 808 715 772 c 1
 891 744 993 607 993 443 c 0
 993 426 992 409 990 392 c 0
 959 139 747 -23 446 -23 c 0
 319 -23 188 8 112 56 c 1
 143 137 l 1
 248 80 372 63 456 63 c 0
EndSplineSet
EndChar

StartChar: threequarters
Encoding: 190 190 429
Width: 1601
VWidth: 0
Flags: HW
PickledData: "(dp1
S'org.robofab.postScriptHintData'
p2
(dp3
s."
LayerCount: 2
Fore
SplineSet
971 256 m 1
 1278 256 l 1
 1332 697 l 1
 971 256 l 1
321 0 m 1
 1429 1456 l 1
 1497 1456 l 1
 404 0 l 1
 321 0 l 1
1249 0 m 1
 1271 184 l 1
 876 184 l 1
 885 253 l 1
 1324 786 l 1
 1423 786 l 1
 1358 256 l 1
 1441 256 l 1
 1431 184 l 1
 1345 184 l 1
 1323 0 l 1
 1249 0 l 1
664 869 m 0
 664 706 539 605 383 605 c 0
 287 605 193 640 144 695 c 1
 191 757 l 1
 235 708 312 674 391 674 c 0
 499 674 586 749 586 865 c 0
 586 950 528 1007 409 1007 c 2
 312 1007 l 1
 321 1078 l 1
 418 1078 l 2
 546 1078 618 1145 618 1251 c 0
 618 1332 559 1386 465 1386 c 0
 390 1386 325 1363 273 1302 c 1
 232 1346 l 1
 275 1413 369 1456 472 1456 c 0
 612 1456 697 1382 697 1262 c 0
 697 1154 633 1075 537 1047 c 1
 616 1024 664 955 664 869 c 0
EndSplineSet
EndChar

StartChar: threesuperior
Encoding: 179 179 430
Width: 878
VWidth: 0
Flags: HW
PickledData: "(dp1
S'org.robofab.postScriptHintData'
p2
(dp3
s."
LayerCount: 2
Fore
SplineSet
627 869 m 0
 627 706 502 605 346 605 c 0
 250 605 156 640 107 695 c 1
 153 757 l 1
 197 708 275 674 354 674 c 0
 461 674 549 749 549 865 c 0
 549 950 491 1007 372 1007 c 2
 275 1007 l 1
 284 1078 l 1
 381 1078 l 2
 509 1078 581 1145 581 1251 c 0
 581 1332 522 1386 428 1386 c 0
 353 1386 288 1363 236 1302 c 1
 195 1346 l 1
 238 1413 332 1456 435 1456 c 0
 575 1456 660 1382 660 1262 c 0
 660 1154 596 1075 500 1047 c 1
 579 1024 627 955 627 869 c 0
EndSplineSet
EndChar

StartChar: tilde
Encoding: 732 732 431
Width: 573
VWidth: 0
Flags: HW
PickledData: "(dp1
S'org.robofab.postScriptHintData'
p2
(dp3
sS'com.typemytype.robofont.layerData'
p4
(dp5
S'b'
(dp6
S'name'
p7
S'tilde'
p8
sS'lib'
p9
(dp10
sS'unicodes'
p11
(tsS'width'
p12
F672.35000000000002
sS'contours'
p13
(tsS'components'
p14
(tsS'anchors'
p15
(tsss."
LayerCount: 2
Fore
SplineSet
442 1233 m 0
 350 1233 218 1330 145 1330 c 0
 100 1330 79 1300 73 1250 c 1
 11 1250 l 1
 23 1345 72 1394 148 1394 c 0
 242 1394 370 1297 443 1297 c 0
 483 1297 489 1330 496 1383 c 1
 562 1383 l 1
 552 1307 525 1233 442 1233 c 0
EndSplineSet
EndChar

StartChar: trademark
Encoding: 8482 8482 432
Width: 1869
VWidth: 0
Flags: HW
PickledData: "(dp1
S'org.robofab.postScriptHintData'
p2
(dp3
sS'com.typemytype.robofont.layerData'
p4
(dp5
S'b'
(dp6
S'name'
p7
S'trademark'
p8
sS'lib'
p9
(dp10
sS'unicodes'
p11
(tsS'width'
p12
F1869
sS'contours'
p13
(tsS'components'
p14
(tsS'anchors'
p15
(tsss."
LayerCount: 2
Fore
SplineSet
301 731 m 1
 387 1430 l 1
 107 1430 l 1
 113 1482 l 1
 755 1482 l 1
 749 1430 l 1
 458 1430 l 1
 372 731 l 1
 301 731 l 1
779 731 m 1
 871 1482 l 1
 979 1482 l 1
 1198 825 l 1
 1609 1482 l 1
 1697 1482 l 1
 1605 731 l 1
 1545 731 l 1
 1629 1419 l 1
 1206 731 l 1
 1163 731 l 1
 926 1425 l 1
 841 731 l 1
 779 731 l 1
EndSplineSet
EndChar

StartChar: two
Encoding: 50 50 433
Width: 1212
VWidth: 0
Flags: HW
PickledData: "(dp1
S'org.robofab.postScriptHintData'
p2
(dp3
sS'com.typemytype.robofont.layerData'
p4
(dp5
S'b'
(dp6
S'name'
p7
S'two'
p8
sS'lib'
p9
(dp10
sS'unicodes'
p11
(tsS'width'
p12
F1244.5
sS'contours'
p13
(tsS'components'
p14
(tsS'anchors'
p15
(tsss."
LayerCount: 2
Fore
SplineSet
127 0 m 1
 138 90 l 1
 698 649 l 2
 878 829 953 920 971 1068 c 0
 974 1089 975 1109 975 1129 c 0
 975 1277 898 1394 666 1394 c 0
 547 1394 411 1358 291 1294 c 1
 263 1373 l 1
 393 1445 542 1483 676 1483 c 0
 979 1483 1078 1317 1078 1144 c 0
 1078 1124 1076 1104 1074 1084 c 0
 1051 896 936 771 753 590 c 1
 248 86 l 1
 947 86 l 1
 936 0 l 1
 127 0 l 1
EndSplineSet
EndChar

StartChar: twosuperior
Encoding: 178 178 434
Width: 942
VWidth: 0
Flags: HW
PickledData: "(dp1
S'org.robofab.postScriptHintData'
p2
(dp3
s."
LayerCount: 2
Fore
SplineSet
141 631 m 1
 150 701 l 1
 480 1006 l 2
 613 1129 642 1178 650 1248 c 0
 651 1256 652 1263 652 1271 c 0
 652 1333 616 1392 502 1392 c 0
 414 1392 331 1352 310 1222 c 1
 235 1226 l 1
 256 1371 362 1456 510 1456 c 0
 658 1456 727 1374 727 1278 c 0
 727 1269 726 1260 725 1251 c 0
 713 1146 676 1090 524 952 c 2
 247 700 l 1
 663 700 l 1
 654 631 l 1
 141 631 l 1
EndSplineSet
EndChar

StartChar: u
Encoding: 117 117 435
Width: 1285
VWidth: 0
Flags: HW
PickledData: "(dp1
S'org.robofab.postScriptHintData'
p2
(dp3
sS'com.typemytype.robofont.layerData'
p4
(dp5
S'b'
(dp6
S'name'
p7
S'u'
sS'lib'
p8
(dp9
sS'unicodes'
p10
(tsS'width'
p11
F1227.2
sS'contours'
p12
(tsS'components'
p13
(tsS'anchors'
p14
(tsss."
LayerCount: 2
Fore
SplineSet
519 -26 m 0
 294 -26 181 91 181 315 c 0
 181 345 183 378 187 412 c 2
 263 1026 l 1
 361 1026 l 1
 285 408 l 2
 281 378 279 350 279 323 c 0
 279 148 362 56 529 56 c 0
 784 56 943 260 954 355 c 2
 1037 1026 l 1
 1135 1026 l 1
 1036 225 l 2
 1022 113 1017 53 1014 0 c 1
 925 0 l 1
 939 191 l 1
 836 55 696 -26 519 -26 c 0
EndSplineSet
EndChar

StartChar: underscore
Encoding: 95 95 446
Width: 847
VWidth: 0
Flags: HW
PickledData: "(dp1
S'org.robofab.postScriptHintData'
p2
(dp3
s."
LayerCount: 2
Fore
SplineSet
2 -286 m 1
 12 -206 l 1
 845 -206 l 1
 835 -286 l 1
 2 -286 l 1
EndSplineSet
EndChar

StartChar: uni0307
Encoding: 775 775 459
Width: 524
VWidth: 0
Flags: HW
PickledData: "(dp1
S'org.robofab.postScriptHintData'
p2
(dp3
s."
LayerCount: 2
Fore
SplineSet
174 1246 m 1
 192 1409 l 1
 349 1409 l 1
 332 1246 l 1
 174 1246 l 1
EndSplineSet
EndChar

StartChar: uni030F
Encoding: 783 783 460
Width: 969
VWidth: 0
Flags: HW
PickledData: "(dp1
S'org.robofab.postScriptHintData'
p2
(dp3
s."
LayerCount: 2
Fore
SplineSet
739 1174 m 1
 502 1487 l 1
 618 1487 l 1
 797 1174 l 1
 739 1174 l 1
470 1174 m 1
 232 1487 l 1
 348 1487 l 1
 530 1174 l 1
 470 1174 l 1
EndSplineSet
EndChar

StartChar: uni0311
Encoding: 785 785 461
Width: 629
VWidth: 0
Flags: HW
PickledData: "(dp1
S'org.robofab.postScriptHintData'
p2
(dp3
s."
LayerCount: 2
Fore
SplineSet
37 1225 m 1
 59 1370 196 1442 324 1442 c 0
 449 1442 566 1374 566 1240 c 0
 566 1235 566 1230 566 1225 c 1
 495 1225 l 1
 494 1317 406 1364 314 1364 c 0
 224 1364 129 1319 110 1225 c 1
 37 1225 l 1
EndSplineSet
EndChar

StartChar: uni0312
Encoding: 786 786 462
Width: 600
VWidth: 0
Flags: HW
PickledData: "(dp1
S'org.robofab.postScriptHintData'
p2
(dp3
s."
LayerCount: 2
Fore
SplineSet
470 1683 m 1
 313 1250 l 1
 196 1250 l 1
 400 1683 l 1
 470 1683 l 1
EndSplineSet
EndChar

StartChar: uni0326
Encoding: 806 806 463
Width: 540
VWidth: 0
Flags: HW
PickledData: "(dp1
S'org.robofab.postScriptHintData'
p2
(dp3
s."
LayerCount: 2
Fore
SplineSet
133 -557 m 1
 290 -124 l 1
 407 -124 l 1
 203 -557 l 1
 133 -557 l 1
EndSplineSet
EndChar

StartChar: uni2015
Encoding: 8213 8213 464
Width: 4095
VWidth: 0
Flags: HW
PickledData: "(dp1
S'org.robofab.postScriptHintData'
p2
(dp3
s."
LayerCount: 2
Fore
SplineSet
65 515 m 1
 77 615 l 1
 4030 615 l 1
 4018 515 l 1
 65 515 l 1
EndSplineSet
EndChar

StartChar: v
Encoding: 118 118 469
Width: 949
VWidth: 0
Flags: HW
PickledData: "(dp1
S'org.robofab.postScriptHintData'
p2
(dp3
sS'com.typemytype.robofont.layerData'
p4
(dp5
S'b'
(dp6
S'name'
p7
S'v'
sS'lib'
p8
(dp9
sS'unicodes'
p10
(tsS'width'
p11
F1056.8
sS'contours'
p12
(tsS'components'
p13
(tsS'anchors'
p14
(tsss."
LayerCount: 2
Fore
SplineSet
361 0 m 1
 64 1026 l 1
 165 1026 l 1
 394 210 l 1
 426 78 l 1
 584 400 755 709 919 1026 c 1
 1020 1026 l 1
 471 0 l 1
 361 0 l 1
EndSplineSet
EndChar

StartChar: w
Encoding: 119 119 470
Width: 1553
VWidth: 0
Flags: HW
PickledData: "(dp1
S'org.robofab.postScriptHintData'
p2
(dp3
sS'com.typemytype.robofont.layerData'
p4
(dp5
S'b'
(dp6
S'name'
p7
S'w'
sS'lib'
p8
(dp9
sS'unicodes'
p10
(tsS'width'
p11
F1634.0999999999999
sS'contours'
p12
(tsS'components'
p13
(tsS'anchors'
p14
(tsss."
LayerCount: 2
Fore
SplineSet
279 0 m 1
 107 1026 l 1
 213 1026 l 1
 262 718 311 410 361 102 c 1
 502 412 647 718 790 1026 c 1
 918 1026 l 1
 1097 182 l 1
 1113 102 l 1
 1229 410 1346 718 1462 1026 c 1
 1571 1026 l 1
 1167 0 l 1
 1039 0 l 1
 975 313 910 625 847 939 c 1
 703 623 553 313 407 0 c 1
 279 0 l 1
EndSplineSet
EndChar

StartChar: x
Encoding: 120 120 475
Width: 1114
VWidth: 0
Flags: HW
PickledData: "(dp1
S'org.robofab.postScriptHintData'
p2
(dp3
sS'com.typemytype.robofont.layerData'
p4
(dp5
S'b'
(dp6
S'name'
p7
S'x'
sS'lib'
p8
(dp9
sS'unicodes'
p10
(tsS'width'
p11
F1062.8499999999999
sS'contours'
p12
(tsS'components'
p13
(tsS'anchors'
p14
(tsss."
LayerCount: 2
Fore
SplineSet
-5 0 m 1
 503 526 l 1
 154 1030 l 1
 265 1026 l 1
 563 582 l 1
 982 1026 l 1
 1097 1026 l 1
 614 511 l 1
 989 0 l 1
 882 0 l 1
 552 460 l 1
 107 0 l 1
 -5 0 l 1
EndSplineSet
EndChar

StartChar: y
Encoding: 121 121 476
Width: 983
VWidth: 0
Flags: HW
PickledData: "(dp1
S'org.robofab.postScriptHintData'
p2
(dp3
sS'com.typemytype.robofont.layerData'
p4
(dp5
S'b'
(dp6
S'name'
p7
S'y'
sS'lib'
p8
(dp9
sS'unicodes'
p10
(tsS'width'
p11
F1065.05
sS'contours'
p12
(tsS'components'
p13
(tsS'anchors'
p14
(tsss."
LayerCount: 2
Fore
SplineSet
68 -417 m 1
 44 -345 l 1
 262 -290 342 -167 390 -79 c 2
 421 -21 l 1
 151 1026 l 1
 257 1026 l 1
 485 97 l 1
 952 1026 l 1
 1048 1026 l 1
 503 -52 l 1
 431 -199 304 -375 68 -417 c 1
EndSplineSet
EndChar

StartChar: yen
Encoding: 165 165 480
Width: 1143
VWidth: 0
Flags: HW
PickledData: "(dp1
S'org.robofab.postScriptHintData'
p2
(dp3
sS'com.typemytype.robofont.layerData'
p4
(dp5
S'b'
(dp6
S'name'
p7
S'yen'
p8
sS'lib'
p9
(dp10
sS'unicodes'
p11
(tsS'width'
p12
F1225.45
sS'contours'
p13
(tsS'components'
p14
(tsS'anchors'
p15
(tsss."
LayerCount: 2
Fore
SplineSet
235 349 m 1
 244 415 l 1
 522 415 l 1
 536 533 l 1
 258 533 l 1
 266 599 l 1
 540 599 l 1
 169 1456 l 1
 278 1456 l 1
 610 683 l 1
 1139 1456 l 1
 1244 1456 l 1
 655 599 l 1
 933 599 l 1
 925 533 l 1
 645 533 l 1
 630 415 l 1
 909 415 l 1
 900 349 l 1
 622 349 l 1
 579 0 l 1
 471 0 l 1
 514 349 l 1
 235 349 l 1
EndSplineSet
EndChar

StartChar: z
Encoding: 122 122 484
Width: 934
VWidth: 0
Flags: HW
PickledData: "(dp1
S'org.robofab.postScriptHintData'
p2
(dp3
sS'com.typemytype.robofont.layerData'
p4
(dp5
S'b'
(dp6
S'name'
p7
S'z'
sS'lib'
p8
(dp9
sS'unicodes'
p10
(tsS'width'
p11
F971.85000000000002
sS'contours'
p12
(tsS'components'
p13
(tsS'anchors'
p14
(tsss."
LayerCount: 2
Fore
SplineSet
27 0 m 1
 34 59 l 1
 783 944 l 1
 168 944 l 1
 178 1026 l 1
 918 1026 l 1
 911 969 l 1
 167 82 l 1
 790 82 l 1
 780 0 l 1
 27 0 l 1
EndSplineSet
EndChar

StartChar: zero
Encoding: 48 48 488
Width: 1177
VWidth: 0
Flags: HW
PickledData: "(dp1
S'org.robofab.postScriptHintData'
p2
(dp3
s."
LayerCount: 2
Fore
SplineSet
506 -23 m 0
 245 -23 109 160 109 510 c 0
 109 575 114 646 123 722 c 0
 184 1220 380 1483 690 1483 c 0
 939 1483 1067 1299 1067 949 c 0
 1067 880 1062 804 1052 722 c 0
 992 235 804 -23 506 -23 c 0
516 63 m 0
 742 63 889 291 942 722 c 0
 952 805 957 881 957 949 c 0
 957 1243 863 1397 680 1397 c 0
 442 1397 287 1164 233 722 c 0
 224 646 219 576 219 513 c 0
 219 218 320 63 516 63 c 0
EndSplineSet
EndChar

